<?xml version="1.0" encoding="UTF-8" standalone="no"?>
<!DOCTYPE svg PUBLIC "-//W3C//DTD SVG 1.1//EN"
 "http://www.w3.org/Graphics/SVG/1.1/DTD/svg11.dtd">
<!-- Generated by graphviz version 2.40.1 (20161225.0304)
 -->
<!-- Title: G Pages: 1 -->
<svg width="1315pt" height="638pt"
 viewBox="0.00 0.00 1315.00 638.00" xmlns="http://www.w3.org/2000/svg" xmlns:xlink="http://www.w3.org/1999/xlink">
<g id="graph0" class="graph" transform="scale(1 1) rotate(0) translate(4 634)">
<title>G</title>
<polygon fill="#ffffff" stroke="transparent" points="-4,4 -4,-634 1311,-634 1311,4 -4,4"/>
<g id="clust1" class="cluster">
<title>cluster_root</title>
<g id="a_clust1"><a xlink:title="eventq_index=0&#10;full_system=false&#10;sim_quantum=0&#10;time_sync_enable=false&#10;time_sync_period=100000000000&#10;time_sync_spin_threshold=100000000">
<path fill="#bab6ae" stroke="#000000" d="M20,-8C20,-8 1287,-8 1287,-8 1293,-8 1299,-14 1299,-20 1299,-20 1299,-610 1299,-610 1299,-616 1293,-622 1287,-622 1287,-622 20,-622 20,-622 14,-622 8,-616 8,-610 8,-610 8,-20 8,-20 8,-14 14,-8 20,-8"/>
<text text-anchor="middle" x="653.5" y="-606.8" font-family="Arial" font-size="14.00" fill="#000000">root </text>
<text text-anchor="middle" x="653.5" y="-591.8" font-family="Arial" font-size="14.00" fill="#000000">: Root</text>
</a>
</g>
</g>
<g id="clust2" class="cluster">
<title>cluster_system</title>
<g id="a_clust2"><a xlink:title="boot_osflags=a&#10;cache_line_size=64&#10;eventq_index=0&#10;exit_on_work_items=false&#10;init_param=0&#10;kernel=&#10;kernel_addr_check=true&#10;kernel_extras=&#10;kernel_extras_addrs=&#10;&#10;oad_addr_mask=18446744073709551615&#10;&#10;oad_offset=0&#10;m5ops_base=0&#10;mem_mode=timing&#10;mem_ranges=0:268435456&#10;memories=system.mem_ctrls&#10;mmap_using_noreserve=false&#10;multi_thread=false&#10;&#10;um_work_ids=16&#10;&#13;eadfile=&#10;&#13;edirect_paths=system.redirect_paths0 system.redirect_paths1 system.redirect_paths2&#10;symbolfile=&#10;thermal_components=&#10;thermal_model=Null&#10;work_begin_ckpt_count=0&#10;work_begin_cpu_id_exit=&#45;1&#10;work_begin_exit_count=0&#10;work_cpus_ckpt_count=0&#10;work_end_ckpt_count=0&#10;work_end_exit_count=0&#10;work_item_id=&#45;1">
<path fill="#e4e7eb" stroke="#000000" d="M28,-16C28,-16 1279,-16 1279,-16 1285,-16 1291,-22 1291,-28 1291,-28 1291,-564 1291,-564 1291,-570 1285,-576 1279,-576 1279,-576 28,-576 28,-576 22,-576 16,-570 16,-564 16,-564 16,-28 16,-28 16,-22 22,-16 28,-16"/>
<text text-anchor="middle" x="653.5" y="-560.8" font-family="Arial" font-size="14.00" fill="#000000">system </text>
<text text-anchor="middle" x="653.5" y="-545.8" font-family="Arial" font-size="14.00" fill="#000000">: System</text>
</a>
</g>
</g>
<g id="clust3" class="cluster">
<title>cluster_system_membus</title>
<g id="a_clust3"><a xlink:title="clk_domain=system.clk_domain&#10;default_p_state=UNDEFINED&#10;eventq_index=0&#10;forward_latency=4&#10;frontend_latency=3&#10;max_outstanding_snoops=512&#10;max_routing_table_size=512&#10;p_state_clk_gate_bins=20&#10;p_state_clk_gate_max=1000000000000&#10;p_state_clk_gate_min=1000&#10;point_of_coherency=true&#10;point_of_unification=true&#10;power_model=&#10;&#13;esponse_latency=2&#10;snoop_filter=system.membus.snoop_filter&#10;snoop_response_latency=4&#10;system=system&#10;use_default_range=false&#10;width=16">
<path fill="#6f798c" stroke="#000000" d="M613,-354C613,-354 739,-354 739,-354 745,-354 751,-360 751,-366 751,-366 751,-433 751,-433 751,-439 745,-445 739,-445 739,-445 613,-445 613,-445 607,-445 601,-439 601,-433 601,-433 601,-366 601,-366 601,-360 607,-354 613,-354"/>
<text text-anchor="middle" x="676" y="-429.8" font-family="Arial" font-size="14.00" fill="#000000">membus </text>
<text text-anchor="middle" x="676" y="-414.8" font-family="Arial" font-size="14.00" fill="#000000">: SystemXBar</text>
</a>
</g>
</g>
<g id="clust11" class="cluster">
<title>cluster_system_mem_ctrls</title>
<g id="a_clust11"><a xlink:title="IDD0=0.055&#10;IDD02=0.0&#10;IDD2N=0.032&#10;IDD2N2=0.0&#10;IDD2P0=0.0&#10;IDD2P02=0.0&#10;IDD2P1=0.032&#10;IDD2P12=0.0&#10;IDD3N=0.038&#10;IDD3N2=0.0&#10;IDD3P0=0.0&#10;IDD3P02=0.0&#10;IDD3P1=0.038&#10;IDD3P12=0.0&#10;IDD4R=0.157&#10;IDD4R2=0.0&#10;IDD4W=0.125&#10;IDD4W2=0.0&#10;IDD5=0.235&#10;IDD52=0.0&#10;IDD6=0.02&#10;IDD62=0.0&#10;VDD=1.5&#10;VDD2=0.0&#10;activation_limit=4&#10;addr_mapping=RoRaBaCoCh&#10;bank_groups_per_rank=0&#10;banks_per_rank=8&#10;burst_length=8&#10;clk_domain=system.clk_domain&#10;conf_table_reported=true&#10;default_p_state=UNDEFINED&#10;device_bus_width=8&#10;device_rowbuffer_size=1024&#10;device_size=536870912&#10;devices_per_rank=8&#10;dll=true&#10;enable_dram_powerdown=false&#10;eventq_index=0&#10;in_addr_map=true&#10;kvm_map=true&#10;max_accesses_per_row=16&#10;mem_sched_policy=frfcfs&#10;min_writes_per_switch=16&#10;&#10;ull=false&#10;p_state_clk_gate_bins=20&#10;p_state_clk_gate_max=1000000000000&#10;p_state_clk_gate_min=1000&#10;page_policy=open_adaptive&#10;power_model=&#10;qos_masters= &#160;&#160;&#160;&#160;&#160;&#160;&#160;&#160;&#160;&#160;&#160;&#160;&#160;&#160;&#10;qos_policy=Null&#10;qos_priorities=1&#10;qos_priority_escalation=false&#10;qos_q_policy=fifo&#10;qos_syncro_scheduler=false&#10;qos_turnaround_policy=Null&#10;&#13;ange=0:268435456&#10;&#13;anks_per_channel=2&#10;&#13;ead_buffer_size=32&#10;static_backend_latency=10000&#10;static_frontend_latency=10000&#10;tBURST=5000&#10;tCCD_L=0&#10;tCCD_L_WR=0&#10;tCK=1250&#10;tCL=13750&#10;tCS=2500&#10;tRAS=35000&#10;tRCD=13750&#10;tREFI=7800000&#10;tRFC=260000&#10;tRP=13750&#10;tRRD=6000&#10;tRRD_L=0&#10;tRTP=7500&#10;tRTW=2500&#10;tWR=15000&#10;tWTR=7500&#10;tXAW=30000&#10;tXP=6000&#10;tXPDLL=0&#10;tXS=270000&#10;tXSDLL=0&#10;write_buffer_size=64&#10;write_high_thresh_perc=85&#10;write_low_thresh_perc=50">
<path fill="#5e5958" stroke="#000000" d="M36,-163C36,-163 149,-163 149,-163 155,-163 161,-169 161,-175 161,-175 161,-242 161,-242 161,-248 155,-254 149,-254 149,-254 36,-254 36,-254 30,-254 24,-248 24,-242 24,-242 24,-175 24,-175 24,-169 30,-163 36,-163"/>
<text text-anchor="middle" x="92.5" y="-238.8" font-family="Arial" font-size="14.00" fill="#000000">mem_ctrls </text>
<text text-anchor="middle" x="92.5" y="-223.8" font-family="Arial" font-size="14.00" fill="#000000">: DDR3_1600_8x8</text>
</a>
</g>
</g>
<g id="clust14" class="cluster">
<title>cluster_system_cpu0</title>
<g id="a_clust14"><a xlink:title="branchPred=Null&#10;checker=Null&#10;clk_domain=system.cpu_clk_domain&#10;cpu_id=0&#10;default_p_state=UNDEFINED&#10;do_checkpoint_insts=true&#10;do_quiesce=true&#10;do_statistics_insts=true&#10;dtb=system.cpu0.dtb&#10;eventq_index=0&#10;function_trace=false&#10;function_trace_start=0&#10;interrupts=system.cpu0.interrupts&#10;isa=system.cpu0.isa&#10;itb=system.cpu0.itb&#10;max_insts_all_threads=0&#10;max_insts_any_thread=0&#10;&#10;umThreads=1&#10;p_state_clk_gate_bins=20&#10;p_state_clk_gate_max=1000000000000&#10;p_state_clk_gate_min=1000&#10;power_gating_on_idle=false&#10;power_model=&#10;profile=0&#10;progress_interval=0&#10;pwr_gating_latency=300&#10;simpoint_start_insts=&#10;socket_id=0&#10;switched_out=false&#10;syscallRetryLatency=10000&#10;system=system&#10;tracer=system.cpu0.tracer&#10;wait_for_remote_gdb=false&#10;workload=system.cpu0.workload">
<path fill="#bbc6d9" stroke="#000000" d="M193,-24C193,-24 703,-24 703,-24 709,-24 715,-30 715,-36 715,-36 715,-334 715,-334 715,-340 709,-346 703,-346 703,-346 193,-346 193,-346 187,-346 181,-340 181,-334 181,-334 181,-36 181,-36 181,-30 187,-24 193,-24"/>
<text text-anchor="middle" x="448" y="-330.8" font-family="Arial" font-size="14.00" fill="#000000">cpu0 </text>
<text text-anchor="middle" x="448" y="-315.8" font-family="Arial" font-size="14.00" fill="#000000">: TimingSimpleCPU</text>
</a>
</g>
</g>
<g id="clust15" class="cluster">
<title>cluster_system_cpu0_icache</title>
<g id="a_clust15"><a xlink:title="addr_ranges=0:18446744073709551615&#10;assoc=2&#10;clk_domain=system.cpu_clk_domain&#10;clusivity=mostly_incl&#10;compressor=Null&#10;data_latency=2&#10;default_p_state=UNDEFINED&#10;demand_mshr_reserve=1&#10;eventq_index=0&#10;is_read_only=true&#10;max_miss_count=0&#10;mshrs=4&#10;p_state_clk_gate_bins=20&#10;p_state_clk_gate_max=1000000000000&#10;p_state_clk_gate_min=1000&#10;power_model=&#10;prefetch_on_access=false&#10;prefetcher=Null&#10;&#13;eplacement_policy=system.cpu0.icache.replacement_policy&#10;&#13;esponse_latency=2&#10;sequential_access=false&#10;size=32768&#10;system=system&#10;tag_latency=2&#10;tags=system.cpu0.icache.tags&#10;tgts_per_mshr=20&#10;warmup_percentage=0&#10;write_allocator=Null&#10;write_buffers=8&#10;writeback_clean=true">
<path fill="#bab6ae" stroke="#000000" d="M201,-32C201,-32 371,-32 371,-32 377,-32 383,-38 383,-44 383,-44 383,-111 383,-111 383,-117 377,-123 371,-123 371,-123 201,-123 201,-123 195,-123 189,-117 189,-111 189,-111 189,-44 189,-44 189,-38 195,-32 201,-32"/>
<text text-anchor="middle" x="286" y="-107.8" font-family="Arial" font-size="14.00" fill="#000000">icache </text>
<text text-anchor="middle" x="286" y="-92.8" font-family="Arial" font-size="14.00" fill="#000000">: L1_ICache</text>
</a>
</g>
</g>
<g id="clust19" class="cluster">
<title>cluster_system_cpu0_dtb</title>
<g id="a_clust19"><a xlink:title="eventq_index=0&#10;is_stage2=false&#10;size=64&#10;sys=system&#10;walker=system.cpu0.dtb.walker">
<path fill="#bab6ae" stroke="#000000" d="M572,-155C572,-155 695,-155 695,-155 701,-155 707,-161 707,-167 707,-167 707,-288 707,-288 707,-294 701,-300 695,-300 695,-300 572,-300 572,-300 566,-300 560,-294 560,-288 560,-288 560,-167 560,-167 560,-161 566,-155 572,-155"/>
<text text-anchor="middle" x="633.5" y="-284.8" font-family="Arial" font-size="14.00" fill="#000000">dtb </text>
<text text-anchor="middle" x="633.5" y="-269.8" font-family="Arial" font-size="14.00" fill="#000000">: ArmDTB</text>
</a>
</g>
</g>
<g id="clust20" class="cluster">
<title>cluster_system_cpu0_dtb_walker</title>
<g id="a_clust20"><a xlink:title="clk_domain=system.cpu_clk_domain&#10;default_p_state=UNDEFINED&#10;eventq_index=0&#10;is_stage2=false&#10;&#10;um_squash_per_cycle=2&#10;p_state_clk_gate_bins=20&#10;p_state_clk_gate_max=1000000000000&#10;p_state_clk_gate_min=1000&#10;power_model=&#10;sys=system">
<path fill="#9f9c95" stroke="#000000" d="M580,-163C580,-163 687,-163 687,-163 693,-163 699,-169 699,-175 699,-175 699,-242 699,-242 699,-248 693,-254 687,-254 687,-254 580,-254 580,-254 574,-254 568,-248 568,-242 568,-242 568,-175 568,-175 568,-169 574,-163 580,-163"/>
<text text-anchor="middle" x="633.5" y="-238.8" font-family="Arial" font-size="14.00" fill="#000000">walker </text>
<text text-anchor="middle" x="633.5" y="-223.8" font-family="Arial" font-size="14.00" fill="#000000">: ArmTableWalker</text>
</a>
</g>
</g>
<g id="clust25" class="cluster">
<title>cluster_system_cpu0_itb</title>
<g id="a_clust25"><a xlink:title="eventq_index=0&#10;is_stage2=false&#10;size=64&#10;sys=system&#10;walker=system.cpu0.itb.walker">
<path fill="#bab6ae" stroke="#000000" d="M417,-155C417,-155 540,-155 540,-155 546,-155 552,-161 552,-167 552,-167 552,-288 552,-288 552,-294 546,-300 540,-300 540,-300 417,-300 417,-300 411,-300 405,-294 405,-288 405,-288 405,-167 405,-167 405,-161 411,-155 417,-155"/>
<text text-anchor="middle" x="478.5" y="-284.8" font-family="Arial" font-size="14.00" fill="#000000">itb </text>
<text text-anchor="middle" x="478.5" y="-269.8" font-family="Arial" font-size="14.00" fill="#000000">: ArmITB</text>
</a>
</g>
</g>
<g id="clust26" class="cluster">
<title>cluster_system_cpu0_itb_walker</title>
<g id="a_clust26"><a xlink:title="clk_domain=system.cpu_clk_domain&#10;default_p_state=UNDEFINED&#10;eventq_index=0&#10;is_stage2=false&#10;&#10;um_squash_per_cycle=2&#10;p_state_clk_gate_bins=20&#10;p_state_clk_gate_max=1000000000000&#10;p_state_clk_gate_min=1000&#10;power_model=&#10;sys=system">
<path fill="#9f9c95" stroke="#000000" d="M425,-163C425,-163 532,-163 532,-163 538,-163 544,-169 544,-175 544,-175 544,-242 544,-242 544,-248 538,-254 532,-254 532,-254 425,-254 425,-254 419,-254 413,-248 413,-242 413,-242 413,-175 413,-175 413,-169 419,-163 425,-163"/>
<text text-anchor="middle" x="478.5" y="-238.8" font-family="Arial" font-size="14.00" fill="#000000">walker </text>
<text text-anchor="middle" x="478.5" y="-223.8" font-family="Arial" font-size="14.00" fill="#000000">: ArmTableWalker</text>
</a>
</g>
</g>
<g id="clust31" class="cluster">
<title>cluster_system_cpu0_dcache</title>
<g id="a_clust31"><a xlink:title="addr_ranges=0:18446744073709551615&#10;assoc=2&#10;clk_domain=system.cpu_clk_domain&#10;clusivity=mostly_incl&#10;compressor=Null&#10;data_latency=2&#10;default_p_state=UNDEFINED&#10;demand_mshr_reserve=1&#10;eventq_index=0&#10;is_read_only=false&#10;max_miss_count=0&#10;mshrs=4&#10;p_state_clk_gate_bins=20&#10;p_state_clk_gate_max=1000000000000&#10;p_state_clk_gate_min=1000&#10;power_model=&#10;prefetch_on_access=false&#10;prefetcher=Null&#10;&#13;eplacement_policy=system.cpu0.dcache.replacement_policy&#10;&#13;esponse_latency=2&#10;sequential_access=false&#10;size=65536&#10;system=system&#10;tag_latency=2&#10;tags=system.cpu0.dcache.tags&#10;tgts_per_mshr=20&#10;warmup_percentage=0&#10;write_allocator=Null&#10;write_buffers=8&#10;writeback_clean=false">
<path fill="#bab6ae" stroke="#000000" d="M464,-32C464,-32 634,-32 634,-32 640,-32 646,-38 646,-44 646,-44 646,-111 646,-111 646,-117 640,-123 634,-123 634,-123 464,-123 464,-123 458,-123 452,-117 452,-111 452,-111 452,-44 452,-44 452,-38 458,-32 464,-32"/>
<text text-anchor="middle" x="549" y="-107.8" font-family="Arial" font-size="14.00" fill="#000000">dcache </text>
<text text-anchor="middle" x="549" y="-92.8" font-family="Arial" font-size="14.00" fill="#000000">: L1_DCache</text>
</a>
</g>
</g>
<g id="clust37" class="cluster">
<title>cluster_system_cpu1</title>
<g id="a_clust37"><a xlink:title="branchPred=Null&#10;checker=Null&#10;clk_domain=system.cpu_clk_domain&#10;cpu_id=1&#10;default_p_state=UNDEFINED&#10;do_checkpoint_insts=true&#10;do_quiesce=true&#10;do_statistics_insts=true&#10;dtb=system.cpu1.dtb&#10;eventq_index=0&#10;function_trace=false&#10;function_trace_start=0&#10;interrupts=system.cpu1.interrupts&#10;isa=system.cpu1.isa&#10;itb=system.cpu1.itb&#10;max_insts_all_threads=0&#10;max_insts_any_thread=0&#10;&#10;umThreads=1&#10;p_state_clk_gate_bins=20&#10;p_state_clk_gate_max=1000000000000&#10;p_state_clk_gate_min=1000&#10;power_gating_on_idle=false&#10;power_model=&#10;profile=0&#10;progress_interval=0&#10;pwr_gating_latency=300&#10;simpoint_start_insts=&#10;socket_id=0&#10;switched_out=false&#10;syscallRetryLatency=10000&#10;system=system&#10;tracer=system.cpu1.tracer&#10;wait_for_remote_gdb=false&#10;workload=system.cpu0.workload">
<path fill="#bbc6d9" stroke="#000000" d="M759,-24C759,-24 1269,-24 1269,-24 1275,-24 1281,-30 1281,-36 1281,-36 1281,-334 1281,-334 1281,-340 1275,-346 1269,-346 1269,-346 759,-346 759,-346 753,-346 747,-340 747,-334 747,-334 747,-36 747,-36 747,-30 753,-24 759,-24"/>
<text text-anchor="middle" x="1014" y="-330.8" font-family="Arial" font-size="14.00" fill="#000000">cpu1 </text>
<text text-anchor="middle" x="1014" y="-315.8" font-family="Arial" font-size="14.00" fill="#000000">: TimingSimpleCPU</text>
</a>
</g>
</g>
<g id="clust38" class="cluster">
<title>cluster_system_cpu1_icache</title>
<g id="a_clust38"><a xlink:title="addr_ranges=0:18446744073709551615&#10;assoc=2&#10;clk_domain=system.cpu_clk_domain&#10;clusivity=mostly_incl&#10;compressor=Null&#10;data_latency=2&#10;default_p_state=UNDEFINED&#10;demand_mshr_reserve=1&#10;eventq_index=0&#10;is_read_only=true&#10;max_miss_count=0&#10;mshrs=4&#10;p_state_clk_gate_bins=20&#10;p_state_clk_gate_max=1000000000000&#10;p_state_clk_gate_min=1000&#10;power_model=&#10;prefetch_on_access=false&#10;prefetcher=Null&#10;&#13;eplacement_policy=system.cpu1.icache.replacement_policy&#10;&#13;esponse_latency=2&#10;sequential_access=false&#10;size=32768&#10;system=system&#10;tag_latency=2&#10;tags=system.cpu1.icache.tags&#10;tgts_per_mshr=20&#10;warmup_percentage=0&#10;write_allocator=Null&#10;write_buffers=8&#10;writeback_clean=true">
<path fill="#bab6ae" stroke="#000000" d="M767,-32C767,-32 937,-32 937,-32 943,-32 949,-38 949,-44 949,-44 949,-111 949,-111 949,-117 943,-123 937,-123 937,-123 767,-123 767,-123 761,-123 755,-117 755,-111 755,-111 755,-44 755,-44 755,-38 761,-32 767,-32"/>
<text text-anchor="middle" x="852" y="-107.8" font-family="Arial" font-size="14.00" fill="#000000">icache </text>
<text text-anchor="middle" x="852" y="-92.8" font-family="Arial" font-size="14.00" fill="#000000">: L1_ICache</text>
</a>
</g>
</g>
<g id="clust42" class="cluster">
<title>cluster_system_cpu1_dtb</title>
<g id="a_clust42"><a xlink:title="eventq_index=0&#10;is_stage2=false&#10;size=64&#10;sys=system&#10;walker=system.cpu1.dtb.walker">
<path fill="#bab6ae" stroke="#000000" d="M1138,-155C1138,-155 1261,-155 1261,-155 1267,-155 1273,-161 1273,-167 1273,-167 1273,-288 1273,-288 1273,-294 1267,-300 1261,-300 1261,-300 1138,-300 1138,-300 1132,-300 1126,-294 1126,-288 1126,-288 1126,-167 1126,-167 1126,-161 1132,-155 1138,-155"/>
<text text-anchor="middle" x="1199.5" y="-284.8" font-family="Arial" font-size="14.00" fill="#000000">dtb </text>
<text text-anchor="middle" x="1199.5" y="-269.8" font-family="Arial" font-size="14.00" fill="#000000">: ArmDTB</text>
</a>
</g>
</g>
<g id="clust43" class="cluster">
<title>cluster_system_cpu1_dtb_walker</title>
<g id="a_clust43"><a xlink:title="clk_domain=system.cpu_clk_domain&#10;default_p_state=UNDEFINED&#10;eventq_index=0&#10;is_stage2=false&#10;&#10;um_squash_per_cycle=2&#10;p_state_clk_gate_bins=20&#10;p_state_clk_gate_max=1000000000000&#10;p_state_clk_gate_min=1000&#10;power_model=&#10;sys=system">
<path fill="#9f9c95" stroke="#000000" d="M1146,-163C1146,-163 1253,-163 1253,-163 1259,-163 1265,-169 1265,-175 1265,-175 1265,-242 1265,-242 1265,-248 1259,-254 1253,-254 1253,-254 1146,-254 1146,-254 1140,-254 1134,-248 1134,-242 1134,-242 1134,-175 1134,-175 1134,-169 1140,-163 1146,-163"/>
<text text-anchor="middle" x="1199.5" y="-238.8" font-family="Arial" font-size="14.00" fill="#000000">walker </text>
<text text-anchor="middle" x="1199.5" y="-223.8" font-family="Arial" font-size="14.00" fill="#000000">: ArmTableWalker</text>
</a>
</g>
</g>
<g id="clust48" class="cluster">
<title>cluster_system_cpu1_itb</title>
<g id="a_clust48"><a xlink:title="eventq_index=0&#10;is_stage2=false&#10;size=64&#10;sys=system&#10;walker=system.cpu1.itb.walker">
<path fill="#bab6ae" stroke="#000000" d="M983,-155C983,-155 1106,-155 1106,-155 1112,-155 1118,-161 1118,-167 1118,-167 1118,-288 1118,-288 1118,-294 1112,-300 1106,-300 1106,-300 983,-300 983,-300 977,-300 971,-294 971,-288 971,-288 971,-167 971,-167 971,-161 977,-155 983,-155"/>
<text text-anchor="middle" x="1044.5" y="-284.8" font-family="Arial" font-size="14.00" fill="#000000">itb </text>
<text text-anchor="middle" x="1044.5" y="-269.8" font-family="Arial" font-size="14.00" fill="#000000">: ArmITB</text>
</a>
</g>
</g>
<g id="clust49" class="cluster">
<title>cluster_system_cpu1_itb_walker</title>
<g id="a_clust49"><a xlink:title="clk_domain=system.cpu_clk_domain&#10;default_p_state=UNDEFINED&#10;eventq_index=0&#10;is_stage2=false&#10;&#10;um_squash_per_cycle=2&#10;p_state_clk_gate_bins=20&#10;p_state_clk_gate_max=1000000000000&#10;p_state_clk_gate_min=1000&#10;power_model=&#10;sys=system">
<path fill="#9f9c95" stroke="#000000" d="M991,-163C991,-163 1098,-163 1098,-163 1104,-163 1110,-169 1110,-175 1110,-175 1110,-242 1110,-242 1110,-248 1104,-254 1098,-254 1098,-254 991,-254 991,-254 985,-254 979,-248 979,-242 979,-242 979,-175 979,-175 979,-169 985,-163 991,-163"/>
<text text-anchor="middle" x="1044.5" y="-238.8" font-family="Arial" font-size="14.00" fill="#000000">walker </text>
<text text-anchor="middle" x="1044.5" y="-223.8" font-family="Arial" font-size="14.00" fill="#000000">: ArmTableWalker</text>
</a>
</g>
</g>
<g id="clust53" class="cluster">
<title>cluster_system_cpu1_dcache</title>
<g id="a_clust53"><a xlink:title="addr_ranges=0:18446744073709551615&#10;assoc=2&#10;clk_domain=system.cpu_clk_domain&#10;clusivity=mostly_incl&#10;compressor=Null&#10;data_latency=2&#10;default_p_state=UNDEFINED&#10;demand_mshr_reserve=1&#10;eventq_index=0&#10;is_read_only=false&#10;max_miss_count=0&#10;mshrs=4&#10;p_state_clk_gate_bins=20&#10;p_state_clk_gate_max=1000000000000&#10;p_state_clk_gate_min=1000&#10;power_model=&#10;prefetch_on_access=false&#10;prefetcher=Null&#10;&#13;eplacement_policy=system.cpu1.dcache.replacement_policy&#10;&#13;esponse_latency=2&#10;sequential_access=false&#10;size=65536&#10;system=system&#10;tag_latency=2&#10;tags=system.cpu1.dcache.tags&#10;tgts_per_mshr=20&#10;warmup_percentage=0&#10;write_allocator=Null&#10;write_buffers=8&#10;writeback_clean=false">
<path fill="#bab6ae" stroke="#000000" d="M1030,-32C1030,-32 1200,-32 1200,-32 1206,-32 1212,-38 1212,-44 1212,-44 1212,-111 1212,-111 1212,-117 1206,-123 1200,-123 1200,-123 1030,-123 1030,-123 1024,-123 1018,-117 1018,-111 1018,-111 1018,-44 1018,-44 1018,-38 1024,-32 1030,-32"/>
<text text-anchor="middle" x="1115" y="-107.8" font-family="Arial" font-size="14.00" fill="#000000">dcache </text>
<text text-anchor="middle" x="1115" y="-92.8" font-family="Arial" font-size="14.00" fill="#000000">: L1_DCache</text>
</a>
</g>
</g>
<!-- system_system_port -->
<g id="node1" class="node">
<title>system_system_port</title>
<path fill="#b6b8bc" stroke="#000000" d="M680,-493.5C680,-493.5 752,-493.5 752,-493.5 758,-493.5 764,-499.5 764,-505.5 764,-505.5 764,-517.5 764,-517.5 764,-523.5 758,-529.5 752,-529.5 752,-529.5 680,-529.5 680,-529.5 674,-529.5 668,-523.5 668,-517.5 668,-517.5 668,-505.5 668,-505.5 668,-499.5 674,-493.5 680,-493.5"/>
<text text-anchor="middle" x="716" y="-507.8" font-family="Arial" font-size="14.00" fill="#000000">system_port</text>
</g>
<!-- system_membus_slave -->
<g id="node3" class="node">
<title>system_membus_slave</title>
<path fill="#586070" stroke="#000000" d="M701,-362.5C701,-362.5 731,-362.5 731,-362.5 737,-362.5 743,-368.5 743,-374.5 743,-374.5 743,-386.5 743,-386.5 743,-392.5 737,-398.5 731,-398.5 731,-398.5 701,-398.5 701,-398.5 695,-398.5 689,-392.5 689,-386.5 689,-386.5 689,-374.5 689,-374.5 689,-368.5 695,-362.5 701,-362.5"/>
<text text-anchor="middle" x="716" y="-376.8" font-family="Arial" font-size="14.00" fill="#000000">slave</text>
</g>
<!-- system_system_port&#45;&gt;system_membus_slave -->
<g id="edge1" class="edge">
<title>system_system_port&#45;&gt;system_membus_slave</title>
<path fill="none" stroke="#000000" d="M716,-493.285C716,-471.3856 716,-434.3861 716,-408.7663"/>
<polygon fill="#000000" stroke="#000000" points="719.5001,-408.5603 716,-398.5603 712.5001,-408.5603 719.5001,-408.5603"/>
</g>
<!-- system_membus_master -->
<g id="node2" class="node">
<title>system_membus_master</title>
<path fill="#586070" stroke="#000000" d="M621.5,-362.5C621.5,-362.5 658.5,-362.5 658.5,-362.5 664.5,-362.5 670.5,-368.5 670.5,-374.5 670.5,-374.5 670.5,-386.5 670.5,-386.5 670.5,-392.5 664.5,-398.5 658.5,-398.5 658.5,-398.5 621.5,-398.5 621.5,-398.5 615.5,-398.5 609.5,-392.5 609.5,-386.5 609.5,-386.5 609.5,-374.5 609.5,-374.5 609.5,-368.5 615.5,-362.5 621.5,-362.5"/>
<text text-anchor="middle" x="640" y="-376.8" font-family="Arial" font-size="14.00" fill="#000000">master</text>
</g>
<!-- system_mem_ctrls_port -->
<g id="node4" class="node">
<title>system_mem_ctrls_port</title>
<path fill="#4b4746" stroke="#000000" d="M109,-171.5C109,-171.5 139,-171.5 139,-171.5 145,-171.5 151,-177.5 151,-183.5 151,-183.5 151,-195.5 151,-195.5 151,-201.5 145,-207.5 139,-207.5 139,-207.5 109,-207.5 109,-207.5 103,-207.5 97,-201.5 97,-195.5 97,-195.5 97,-183.5 97,-183.5 97,-177.5 103,-171.5 109,-171.5"/>
<text text-anchor="middle" x="124" y="-185.8" font-family="Arial" font-size="14.00" fill="#000000">port</text>
</g>
<!-- system_membus_master&#45;&gt;system_mem_ctrls_port -->
<g id="edge2" class="edge">
<title>system_membus_master&#45;&gt;system_mem_ctrls_port</title>
<path fill="none" stroke="#000000" d="M609.287,-380.3086C509.5333,-379.4107 199.0958,-374.3439 165,-346 127.5163,-314.8396 122.0118,-254.0046 122.3545,-218.0492"/>
<polygon fill="#000000" stroke="#000000" points="125.8611,-217.8366 122.6197,-207.7498 118.8634,-217.6564 125.8611,-217.8366"/>
</g>
<!-- system_cpu0_icache_mem_side -->
<g id="node7" class="node">
<title>system_cpu0_icache_mem_side</title>
<path fill="#94918b" stroke="#000000" d="M209,-40.5C209,-40.5 269,-40.5 269,-40.5 275,-40.5 281,-46.5 281,-52.5 281,-52.5 281,-64.5 281,-64.5 281,-70.5 275,-76.5 269,-76.5 269,-76.5 209,-76.5 209,-76.5 203,-76.5 197,-70.5 197,-64.5 197,-64.5 197,-52.5 197,-52.5 197,-46.5 203,-40.5 209,-40.5"/>
<text text-anchor="middle" x="239" y="-54.8" font-family="Arial" font-size="14.00" fill="#000000">mem_side</text>
</g>
<!-- system_membus_slave&#45;&gt;system_cpu0_icache_mem_side -->
<g id="edge3" class="edge">
<title>system_membus_slave&#45;&gt;system_cpu0_icache_mem_side</title>
<path fill="none" stroke="#000000" d="M687.2179,-357.0977C684.8625,-355.8819 682.4452,-354.8245 680,-354 666.7586,-349.535 186.8022,-355.9594 177,-346 162.1134,-330.8748 171.0223,-175.3629 177,-155 185.8623,-124.8109 207.4023,-95.1276 222.5951,-76.8255"/>
<polygon fill="#000000" stroke="#000000" points="685.5655,-360.1897 695.924,-362.4151 689.2142,-354.2158 685.5655,-360.1897"/>
</g>
<!-- system_cpu0_dtb_walker_port -->
<g id="node9" class="node">
<title>system_cpu0_dtb_walker_port</title>
<path fill="#7f7c77" stroke="#000000" d="M649,-171.5C649,-171.5 679,-171.5 679,-171.5 685,-171.5 691,-177.5 691,-183.5 691,-183.5 691,-195.5 691,-195.5 691,-201.5 685,-207.5 679,-207.5 679,-207.5 649,-207.5 649,-207.5 643,-207.5 637,-201.5 637,-195.5 637,-195.5 637,-183.5 637,-183.5 637,-177.5 643,-171.5 649,-171.5"/>
<text text-anchor="middle" x="664" y="-185.8" font-family="Arial" font-size="14.00" fill="#000000">port</text>
</g>
<!-- system_membus_slave&#45;&gt;system_cpu0_dtb_walker_port -->
<g id="edge6" class="edge">
<title>system_membus_slave&#45;&gt;system_cpu0_dtb_walker_port</title>
<path fill="none" stroke="#000000" d="M708.3345,-352.344C697.5187,-312.6169 678.0835,-241.2297 668.9709,-207.7584"/>
<polygon fill="#000000" stroke="#000000" points="705.01,-353.4568 711.014,-362.1861 711.7641,-351.6179 705.01,-353.4568"/>
</g>
<!-- system_cpu0_itb_walker_port -->
<g id="node10" class="node">
<title>system_cpu0_itb_walker_port</title>
<path fill="#7f7c77" stroke="#000000" d="M494,-171.5C494,-171.5 524,-171.5 524,-171.5 530,-171.5 536,-177.5 536,-183.5 536,-183.5 536,-195.5 536,-195.5 536,-201.5 530,-207.5 524,-207.5 524,-207.5 494,-207.5 494,-207.5 488,-207.5 482,-201.5 482,-195.5 482,-195.5 482,-183.5 482,-183.5 482,-177.5 488,-171.5 494,-171.5"/>
<text text-anchor="middle" x="509" y="-185.8" font-family="Arial" font-size="14.00" fill="#000000">port</text>
</g>
<!-- system_membus_slave&#45;&gt;system_cpu0_itb_walker_port -->
<g id="edge5" class="edge">
<title>system_membus_slave&#45;&gt;system_cpu0_itb_walker_port</title>
<path fill="none" stroke="#000000" d="M686.4909,-356.8887C684.3625,-355.7841 682.1903,-354.8037 680,-354 655.7427,-345.0985 584.5567,-361.6549 564,-346 520.0094,-312.4992 511.0672,-241.2184 509.3455,-207.6717"/>
<polygon fill="#000000" stroke="#000000" points="685.1009,-360.1406 695.4601,-362.3626 688.7475,-354.1655 685.1009,-360.1406"/>
</g>
<!-- system_cpu0_dcache_mem_side -->
<g id="node11" class="node">
<title>system_cpu0_dcache_mem_side</title>
<path fill="#94918b" stroke="#000000" d="M566,-40.5C566,-40.5 626,-40.5 626,-40.5 632,-40.5 638,-46.5 638,-52.5 638,-52.5 638,-64.5 638,-64.5 638,-70.5 632,-76.5 626,-76.5 626,-76.5 566,-76.5 566,-76.5 560,-76.5 554,-70.5 554,-64.5 554,-64.5 554,-52.5 554,-52.5 554,-46.5 560,-40.5 566,-40.5"/>
<text text-anchor="middle" x="596" y="-54.8" font-family="Arial" font-size="14.00" fill="#000000">mem_side</text>
</g>
<!-- system_membus_slave&#45;&gt;system_cpu0_dcache_mem_side -->
<g id="edge4" class="edge">
<title>system_membus_slave&#45;&gt;system_cpu0_dcache_mem_side</title>
<path fill="none" stroke="#000000" d="M717.0054,-352.2238C718.447,-299.6432 719.3432,-189.0704 703,-155 686.609,-120.8299 652.1443,-93.3067 626.7384,-76.5304"/>
<polygon fill="#000000" stroke="#000000" points="713.507,-352.1209 716.7052,-362.2214 720.5039,-352.3311 713.507,-352.1209"/>
</g>
<!-- system_cpu1_icache_mem_side -->
<g id="node15" class="node">
<title>system_cpu1_icache_mem_side</title>
<path fill="#94918b" stroke="#000000" d="M775,-40.5C775,-40.5 835,-40.5 835,-40.5 841,-40.5 847,-46.5 847,-52.5 847,-52.5 847,-64.5 847,-64.5 847,-70.5 841,-76.5 835,-76.5 835,-76.5 775,-76.5 775,-76.5 769,-76.5 763,-70.5 763,-64.5 763,-64.5 763,-52.5 763,-52.5 763,-46.5 769,-40.5 775,-40.5"/>
<text text-anchor="middle" x="805" y="-54.8" font-family="Arial" font-size="14.00" fill="#000000">mem_side</text>
</g>
<!-- system_membus_slave&#45;&gt;system_cpu1_icache_mem_side -->
<g id="edge7" class="edge">
<title>system_membus_slave&#45;&gt;system_cpu1_icache_mem_side</title>
<path fill="none" stroke="#000000" d="M720.1506,-352.3377C720.4454,-350.1941 720.7317,-348.0631 721,-346 732.0181,-261.2632 714.2719,-235.4762 743,-155 753.6448,-125.1808 774.9837,-95.1771 789.6263,-76.721"/>
<polygon fill="#000000" stroke="#000000" points="716.6836,-351.8588 718.7465,-362.2509 723.6144,-352.8406 716.6836,-351.8588"/>
</g>
<!-- system_cpu1_dtb_walker_port -->
<g id="node17" class="node">
<title>system_cpu1_dtb_walker_port</title>
<path fill="#7f7c77" stroke="#000000" d="M1154,-171.5C1154,-171.5 1184,-171.5 1184,-171.5 1190,-171.5 1196,-177.5 1196,-183.5 1196,-183.5 1196,-195.5 1196,-195.5 1196,-201.5 1190,-207.5 1184,-207.5 1184,-207.5 1154,-207.5 1154,-207.5 1148,-207.5 1142,-201.5 1142,-195.5 1142,-195.5 1142,-183.5 1142,-183.5 1142,-177.5 1148,-171.5 1154,-171.5"/>
<text text-anchor="middle" x="1169" y="-185.8" font-family="Arial" font-size="14.00" fill="#000000">port</text>
</g>
<!-- system_membus_slave&#45;&gt;system_cpu1_dtb_walker_port -->
<g id="edge10" class="edge">
<title>system_membus_slave&#45;&gt;system_cpu1_dtb_walker_port</title>
<path fill="none" stroke="#000000" d="M753.2888,-379.5449C846.8082,-376.8321 1085.866,-367.8194 1114,-346 1157.6939,-312.1132 1166.7844,-241.0253 1168.5989,-207.5993"/>
<polygon fill="#000000" stroke="#000000" points="753.0425,-376.0503 743.1452,-379.8308 753.2398,-383.0475 753.0425,-376.0503"/>
</g>
<!-- system_cpu1_itb_walker_port -->
<g id="node18" class="node">
<title>system_cpu1_itb_walker_port</title>
<path fill="#7f7c77" stroke="#000000" d="M999,-171.5C999,-171.5 1029,-171.5 1029,-171.5 1035,-171.5 1041,-177.5 1041,-183.5 1041,-183.5 1041,-195.5 1041,-195.5 1041,-201.5 1035,-207.5 1029,-207.5 1029,-207.5 999,-207.5 999,-207.5 993,-207.5 987,-201.5 987,-195.5 987,-195.5 987,-183.5 987,-183.5 987,-177.5 993,-171.5 999,-171.5"/>
<text text-anchor="middle" x="1014" y="-185.8" font-family="Arial" font-size="14.00" fill="#000000">port</text>
</g>
<!-- system_membus_slave&#45;&gt;system_cpu1_itb_walker_port -->
<g id="edge9" class="edge">
<title>system_membus_slave&#45;&gt;system_cpu1_itb_walker_port</title>
<path fill="none" stroke="#000000" d="M753.4638,-378.0654C823.006,-373.2009 966.5204,-361.4101 983,-346 1021.6411,-309.8666 1019.8788,-240.5344 1016.4927,-207.6561"/>
<polygon fill="#000000" stroke="#000000" points="753.1025,-374.5819 743.366,-378.7593 753.5825,-381.5654 753.1025,-374.5819"/>
</g>
<!-- system_cpu1_dcache_mem_side -->
<g id="node19" class="node">
<title>system_cpu1_dcache_mem_side</title>
<path fill="#94918b" stroke="#000000" d="M1132,-40.5C1132,-40.5 1192,-40.5 1192,-40.5 1198,-40.5 1204,-46.5 1204,-52.5 1204,-52.5 1204,-64.5 1204,-64.5 1204,-70.5 1198,-76.5 1192,-76.5 1192,-76.5 1132,-76.5 1132,-76.5 1126,-76.5 1120,-70.5 1120,-64.5 1120,-64.5 1120,-52.5 1120,-52.5 1120,-46.5 1126,-40.5 1132,-40.5"/>
<text text-anchor="middle" x="1162" y="-54.8" font-family="Arial" font-size="14.00" fill="#000000">mem_side</text>
</g>
<!-- system_membus_slave&#45;&gt;system_cpu1_dcache_mem_side -->
<g id="edge8" class="edge">
<title>system_membus_slave&#45;&gt;system_cpu1_dcache_mem_side</title>
<path fill="none" stroke="#000000" d="M753.4504,-379.5571C874.9454,-376.3181 1251.3372,-364.7991 1269,-346 1327.1267,-284.1339 1303.4961,-232.5638 1269,-155 1253.7011,-120.6007 1219.4095,-93.2956 1193.744,-76.6324"/>
<polygon fill="#000000" stroke="#000000" points="753.0677,-376.0659 743.1633,-379.8277 753.2519,-383.0634 753.0677,-376.0659"/>
</g>
<!-- system_cpu0_icache_port -->
<g id="node5" class="node">
<title>system_cpu0_icache_port</title>
<path fill="#959ead" stroke="#000000" d="M201,-171.5C201,-171.5 269,-171.5 269,-171.5 275,-171.5 281,-177.5 281,-183.5 281,-183.5 281,-195.5 281,-195.5 281,-201.5 275,-207.5 269,-207.5 269,-207.5 201,-207.5 201,-207.5 195,-207.5 189,-201.5 189,-195.5 189,-195.5 189,-183.5 189,-183.5 189,-177.5 195,-171.5 201,-171.5"/>
<text text-anchor="middle" x="235" y="-185.8" font-family="Arial" font-size="14.00" fill="#000000">icache_port</text>
</g>
<!-- system_cpu0_icache_cpu_side -->
<g id="node8" class="node">
<title>system_cpu0_icache_cpu_side</title>
<path fill="#94918b" stroke="#000000" d="M311,-40.5C311,-40.5 363,-40.5 363,-40.5 369,-40.5 375,-46.5 375,-52.5 375,-52.5 375,-64.5 375,-64.5 375,-70.5 369,-76.5 363,-76.5 363,-76.5 311,-76.5 311,-76.5 305,-76.5 299,-70.5 299,-64.5 299,-64.5 299,-52.5 299,-52.5 299,-46.5 305,-40.5 311,-40.5"/>
<text text-anchor="middle" x="337" y="-54.8" font-family="Arial" font-size="14.00" fill="#000000">cpu_side</text>
</g>
<!-- system_cpu0_icache_port&#45;&gt;system_cpu0_icache_cpu_side -->
<g id="edge11" class="edge">
<title>system_cpu0_icache_port&#45;&gt;system_cpu0_icache_cpu_side</title>
<path fill="none" stroke="#000000" d="M250.4801,-171.3982C261.673,-158.1627 277.0417,-139.6837 290,-123 299.6432,-110.5845 309.9708,-96.5044 318.482,-84.674"/>
<polygon fill="#000000" stroke="#000000" points="321.3488,-86.6821 324.3226,-76.5132 315.6564,-82.6081 321.3488,-86.6821"/>
</g>
<!-- system_cpu0_dcache_port -->
<g id="node6" class="node">
<title>system_cpu0_dcache_port</title>
<path fill="#959ead" stroke="#000000" d="M311,-171.5C311,-171.5 385,-171.5 385,-171.5 391,-171.5 397,-177.5 397,-183.5 397,-183.5 397,-195.5 397,-195.5 397,-201.5 391,-207.5 385,-207.5 385,-207.5 311,-207.5 311,-207.5 305,-207.5 299,-201.5 299,-195.5 299,-195.5 299,-183.5 299,-183.5 299,-177.5 305,-171.5 311,-171.5"/>
<text text-anchor="middle" x="348" y="-185.8" font-family="Arial" font-size="14.00" fill="#000000">dcache_port</text>
</g>
<!-- system_cpu0_dcache_cpu_side -->
<g id="node12" class="node">
<title>system_cpu0_dcache_cpu_side</title>
<path fill="#94918b" stroke="#000000" d="M472,-40.5C472,-40.5 524,-40.5 524,-40.5 530,-40.5 536,-46.5 536,-52.5 536,-52.5 536,-64.5 536,-64.5 536,-70.5 530,-76.5 524,-76.5 524,-76.5 472,-76.5 472,-76.5 466,-76.5 460,-70.5 460,-64.5 460,-64.5 460,-52.5 460,-52.5 460,-46.5 466,-40.5 472,-40.5"/>
<text text-anchor="middle" x="498" y="-54.8" font-family="Arial" font-size="14.00" fill="#000000">cpu_side</text>
</g>
<!-- system_cpu0_dcache_port&#45;&gt;system_cpu0_dcache_cpu_side -->
<g id="edge12" class="edge">
<title>system_cpu0_dcache_port&#45;&gt;system_cpu0_dcache_cpu_side</title>
<path fill="none" stroke="#000000" d="M368.8569,-171.285C395.052,-148.4079 440.1155,-109.0525 469.4823,-83.4055"/>
<polygon fill="#000000" stroke="#000000" points="472.0906,-85.7745 477.3203,-76.5603 467.486,-80.5021 472.0906,-85.7745"/>
</g>
<!-- system_cpu1_icache_port -->
<g id="node13" class="node">
<title>system_cpu1_icache_port</title>
<path fill="#959ead" stroke="#000000" d="M767,-171.5C767,-171.5 835,-171.5 835,-171.5 841,-171.5 847,-177.5 847,-183.5 847,-183.5 847,-195.5 847,-195.5 847,-201.5 841,-207.5 835,-207.5 835,-207.5 767,-207.5 767,-207.5 761,-207.5 755,-201.5 755,-195.5 755,-195.5 755,-183.5 755,-183.5 755,-177.5 761,-171.5 767,-171.5"/>
<text text-anchor="middle" x="801" y="-185.8" font-family="Arial" font-size="14.00" fill="#000000">icache_port</text>
</g>
<!-- system_cpu1_icache_cpu_side -->
<g id="node16" class="node">
<title>system_cpu1_icache_cpu_side</title>
<path fill="#94918b" stroke="#000000" d="M877,-40.5C877,-40.5 929,-40.5 929,-40.5 935,-40.5 941,-46.5 941,-52.5 941,-52.5 941,-64.5 941,-64.5 941,-70.5 935,-76.5 929,-76.5 929,-76.5 877,-76.5 877,-76.5 871,-76.5 865,-70.5 865,-64.5 865,-64.5 865,-52.5 865,-52.5 865,-46.5 871,-40.5 877,-40.5"/>
<text text-anchor="middle" x="903" y="-54.8" font-family="Arial" font-size="14.00" fill="#000000">cpu_side</text>
</g>
<!-- system_cpu1_icache_port&#45;&gt;system_cpu1_icache_cpu_side -->
<g id="edge13" class="edge">
<title>system_cpu1_icache_port&#45;&gt;system_cpu1_icache_cpu_side</title>
<path fill="none" stroke="#000000" d="M816.4801,-171.3982C827.673,-158.1627 843.0417,-139.6837 856,-123 865.6432,-110.5845 875.9708,-96.5044 884.482,-84.674"/>
<polygon fill="#000000" stroke="#000000" points="887.3488,-86.6821 890.3226,-76.5132 881.6564,-82.6081 887.3488,-86.6821"/>
</g>
<!-- system_cpu1_dcache_port -->
<g id="node14" class="node">
<title>system_cpu1_dcache_port</title>
<path fill="#959ead" stroke="#000000" d="M877,-171.5C877,-171.5 951,-171.5 951,-171.5 957,-171.5 963,-177.5 963,-183.5 963,-183.5 963,-195.5 963,-195.5 963,-201.5 957,-207.5 951,-207.5 951,-207.5 877,-207.5 877,-207.5 871,-207.5 865,-201.5 865,-195.5 865,-195.5 865,-183.5 865,-183.5 865,-177.5 871,-171.5 877,-171.5"/>
<text text-anchor="middle" x="914" y="-185.8" font-family="Arial" font-size="14.00" fill="#000000">dcache_port</text>
</g>
<!-- system_cpu1_dcache_cpu_side -->
<g id="node20" class="node">
<title>system_cpu1_dcache_cpu_side</title>
<path fill="#94918b" stroke="#000000" d="M1038,-40.5C1038,-40.5 1090,-40.5 1090,-40.5 1096,-40.5 1102,-46.5 1102,-52.5 1102,-52.5 1102,-64.5 1102,-64.5 1102,-70.5 1096,-76.5 1090,-76.5 1090,-76.5 1038,-76.5 1038,-76.5 1032,-76.5 1026,-70.5 1026,-64.5 1026,-64.5 1026,-52.5 1026,-52.5 1026,-46.5 1032,-40.5 1038,-40.5"/>
<text text-anchor="middle" x="1064" y="-54.8" font-family="Arial" font-size="14.00" fill="#000000">cpu_side</text>
</g>
<!-- system_cpu1_dcache_port&#45;&gt;system_cpu1_dcache_cpu_side -->
<g id="edge14" class="edge">
<title>system_cpu1_dcache_port&#45;&gt;system_cpu1_dcache_cpu_side</title>
<path fill="none" stroke="#000000" d="M934.8569,-171.285C961.052,-148.4079 1006.1155,-109.0525 1035.4823,-83.4055"/>
<polygon fill="#000000" stroke="#000000" points="1038.0906,-85.7745 1043.3203,-76.5603 1033.486,-80.5021 1038.0906,-85.7745"/>
</g>
</g>
</svg>
