<?xml version="1.0" encoding="UTF-8" standalone="no"?>
<!DOCTYPE svg PUBLIC "-//W3C//DTD SVG 1.1//EN"
 "http://www.w3.org/Graphics/SVG/1.1/DTD/svg11.dtd">
<!-- Generated by graphviz version 2.40.1 (20161225.0304)
 -->
<!-- Title: G Pages: 1 -->
<svg width="749pt" height="638pt"
 viewBox="0.00 0.00 749.00 638.00" xmlns="http://www.w3.org/2000/svg" xmlns:xlink="http://www.w3.org/1999/xlink">
<g id="graph0" class="graph" transform="scale(1 1) rotate(0) translate(4 634)">
<title>G</title>
<polygon fill="#ffffff" stroke="transparent" points="-4,4 -4,-634 745,-634 745,4 -4,4"/>
<g id="clust1" class="cluster">
<title>cluster_root</title>
<g id="a_clust1"><a xlink:title="eventq_index=0&#10;full_system=false&#10;sim_quantum=0&#10;time_sync_enable=false&#10;time_sync_period=100000000000&#10;time_sync_spin_threshold=100000000">
<path fill="#bab6ae" stroke="#000000" d="M20,-8C20,-8 721,-8 721,-8 727,-8 733,-14 733,-20 733,-20 733,-610 733,-610 733,-616 727,-622 721,-622 721,-622 20,-622 20,-622 14,-622 8,-616 8,-610 8,-610 8,-20 8,-20 8,-14 14,-8 20,-8"/>
<text text-anchor="middle" x="370.5" y="-606.8" font-family="Arial" font-size="14.00" fill="#000000">root </text>
<text text-anchor="middle" x="370.5" y="-591.8" font-family="Arial" font-size="14.00" fill="#000000">: Root</text>
</a>
</g>
</g>
<g id="clust2" class="cluster">
<title>cluster_system</title>
<g id="a_clust2"><a xlink:title="boot_osflags=a&#10;cache_line_size=64&#10;eventq_index=0&#10;exit_on_work_items=false&#10;init_param=0&#10;kernel=&#10;kernel_addr_check=true&#10;kernel_extras=&#10;kernel_extras_addrs=&#10;&#10;oad_addr_mask=18446744073709551615&#10;&#10;oad_offset=0&#10;m5ops_base=0&#10;mem_mode=timing&#10;mem_ranges=0:268435456&#10;memories=system.mem_ctrls&#10;mmap_using_noreserve=false&#10;multi_thread=false&#10;&#10;um_work_ids=16&#10;&#13;eadfile=&#10;&#13;edirect_paths=system.redirect_paths0 system.redirect_paths1 system.redirect_paths2&#10;symbolfile=&#10;thermal_components=&#10;thermal_model=Null&#10;work_begin_ckpt_count=0&#10;work_begin_cpu_id_exit=&#45;1&#10;work_begin_exit_count=0&#10;work_cpus_ckpt_count=0&#10;work_end_ckpt_count=0&#10;work_end_exit_count=0&#10;work_item_id=&#45;1">
<path fill="#e4e7eb" stroke="#000000" d="M28,-16C28,-16 713,-16 713,-16 719,-16 725,-22 725,-28 725,-28 725,-564 725,-564 725,-570 719,-576 713,-576 713,-576 28,-576 28,-576 22,-576 16,-570 16,-564 16,-564 16,-28 16,-28 16,-22 22,-16 28,-16"/>
<text text-anchor="middle" x="370.5" y="-560.8" font-family="Arial" font-size="14.00" fill="#000000">system </text>
<text text-anchor="middle" x="370.5" y="-545.8" font-family="Arial" font-size="14.00" fill="#000000">: System</text>
</a>
</g>
</g>
<g id="clust3" class="cluster">
<title>cluster_system_membus</title>
<g id="a_clust3"><a xlink:title="clk_domain=system.clk_domain&#10;default_p_state=UNDEFINED&#10;eventq_index=0&#10;forward_latency=4&#10;frontend_latency=3&#10;max_outstanding_snoops=512&#10;max_routing_table_size=512&#10;p_state_clk_gate_bins=20&#10;p_state_clk_gate_max=1000000000000&#10;p_state_clk_gate_min=1000&#10;point_of_coherency=true&#10;point_of_unification=true&#10;power_model=&#10;&#13;esponse_latency=2&#10;snoop_filter=system.membus.snoop_filter&#10;snoop_response_latency=4&#10;system=system&#10;use_default_range=false&#10;width=16">
<path fill="#6f798c" stroke="#000000" d="M375,-354C375,-354 501,-354 501,-354 507,-354 513,-360 513,-366 513,-366 513,-433 513,-433 513,-439 507,-445 501,-445 501,-445 375,-445 375,-445 369,-445 363,-439 363,-433 363,-433 363,-366 363,-366 363,-360 369,-354 375,-354"/>
<text text-anchor="middle" x="438" y="-429.8" font-family="Arial" font-size="14.00" fill="#000000">membus </text>
<text text-anchor="middle" x="438" y="-414.8" font-family="Arial" font-size="14.00" fill="#000000">: SystemXBar</text>
</a>
</g>
</g>
<g id="clust11" class="cluster">
<title>cluster_system_mem_ctrls</title>
<g id="a_clust11"><a xlink:title="IDD0=0.055&#10;IDD02=0.0&#10;IDD2N=0.032&#10;IDD2N2=0.0&#10;IDD2P0=0.0&#10;IDD2P02=0.0&#10;IDD2P1=0.032&#10;IDD2P12=0.0&#10;IDD3N=0.038&#10;IDD3N2=0.0&#10;IDD3P0=0.0&#10;IDD3P02=0.0&#10;IDD3P1=0.038&#10;IDD3P12=0.0&#10;IDD4R=0.157&#10;IDD4R2=0.0&#10;IDD4W=0.125&#10;IDD4W2=0.0&#10;IDD5=0.235&#10;IDD52=0.0&#10;IDD6=0.02&#10;IDD62=0.0&#10;VDD=1.5&#10;VDD2=0.0&#10;activation_limit=4&#10;addr_mapping=RoRaBaCoCh&#10;bank_groups_per_rank=0&#10;banks_per_rank=8&#10;burst_length=8&#10;clk_domain=system.clk_domain&#10;conf_table_reported=true&#10;default_p_state=UNDEFINED&#10;device_bus_width=8&#10;device_rowbuffer_size=1024&#10;device_size=536870912&#10;devices_per_rank=8&#10;dll=true&#10;enable_dram_powerdown=false&#10;eventq_index=0&#10;in_addr_map=true&#10;kvm_map=true&#10;max_accesses_per_row=16&#10;mem_sched_policy=frfcfs&#10;min_writes_per_switch=16&#10;&#10;ull=false&#10;p_state_clk_gate_bins=20&#10;p_state_clk_gate_max=1000000000000&#10;p_state_clk_gate_min=1000&#10;page_policy=open_adaptive&#10;power_model=&#10;qos_masters= &#160;&#160;&#160;&#160;&#160;&#160;&#160;&#160;&#160;&#160;&#160;&#160;&#160;&#160;&#10;qos_policy=Null&#10;qos_priorities=1&#10;qos_priority_escalation=false&#10;qos_q_policy=fifo&#10;qos_syncro_scheduler=false&#10;qos_turnaround_policy=Null&#10;&#13;ange=0:268435456&#10;&#13;anks_per_channel=2&#10;&#13;ead_buffer_size=32&#10;static_backend_latency=10000&#10;static_frontend_latency=10000&#10;tBURST=5000&#10;tCCD_L=0&#10;tCCD_L_WR=0&#10;tCK=1250&#10;tCL=13750&#10;tCS=2500&#10;tRAS=35000&#10;tRCD=13750&#10;tREFI=7800000&#10;tRFC=260000&#10;tRP=13750&#10;tRRD=6000&#10;tRRD_L=0&#10;tRTP=7500&#10;tRTW=2500&#10;tWR=15000&#10;tWTR=7500&#10;tXAW=30000&#10;tXP=6000&#10;tXPDLL=0&#10;tXS=270000&#10;tXSDLL=0&#10;write_buffer_size=64&#10;write_high_thresh_perc=85&#10;write_low_thresh_perc=50">
<path fill="#5e5958" stroke="#000000" d="M36,-163C36,-163 149,-163 149,-163 155,-163 161,-169 161,-175 161,-175 161,-242 161,-242 161,-248 155,-254 149,-254 149,-254 36,-254 36,-254 30,-254 24,-248 24,-242 24,-242 24,-175 24,-175 24,-169 30,-163 36,-163"/>
<text text-anchor="middle" x="92.5" y="-238.8" font-family="Arial" font-size="14.00" fill="#000000">mem_ctrls </text>
<text text-anchor="middle" x="92.5" y="-223.8" font-family="Arial" font-size="14.00" fill="#000000">: DDR3_1600_8x8</text>
</a>
</g>
</g>
<g id="clust14" class="cluster">
<title>cluster_system_cpu</title>
<g id="a_clust14"><a xlink:title="branchPred=Null&#10;checker=Null&#10;clk_domain=system.cpu_clk_domain&#10;cpu_id=0&#10;default_p_state=UNDEFINED&#10;do_checkpoint_insts=true&#10;do_quiesce=true&#10;do_statistics_insts=true&#10;dtb=system.cpu.dtb&#10;eventq_index=0&#10;function_trace=false&#10;function_trace_start=0&#10;interrupts=system.cpu.interrupts&#10;isa=system.cpu.isa&#10;itb=system.cpu.itb&#10;max_insts_all_threads=0&#10;max_insts_any_thread=0&#10;&#10;umThreads=1&#10;p_state_clk_gate_bins=20&#10;p_state_clk_gate_max=1000000000000&#10;p_state_clk_gate_min=1000&#10;power_gating_on_idle=false&#10;power_model=&#10;profile=0&#10;progress_interval=0&#10;pwr_gating_latency=300&#10;simpoint_start_insts=&#10;socket_id=0&#10;switched_out=false&#10;syscallRetryLatency=10000&#10;system=system&#10;tracer=system.cpu.tracer&#10;wait_for_remote_gdb=false&#10;workload=system.cpu.workload">
<path fill="#bbc6d9" stroke="#000000" d="M193,-24C193,-24 703,-24 703,-24 709,-24 715,-30 715,-36 715,-36 715,-334 715,-334 715,-340 709,-346 703,-346 703,-346 193,-346 193,-346 187,-346 181,-340 181,-334 181,-334 181,-36 181,-36 181,-30 187,-24 193,-24"/>
<text text-anchor="middle" x="448" y="-330.8" font-family="Arial" font-size="14.00" fill="#000000">cpu </text>
<text text-anchor="middle" x="448" y="-315.8" font-family="Arial" font-size="14.00" fill="#000000">: TimingSimpleCPU</text>
</a>
</g>
</g>
<g id="clust15" class="cluster">
<title>cluster_system_cpu_icache</title>
<g id="a_clust15"><a xlink:title="addr_ranges=0:18446744073709551615&#10;assoc=2&#10;clk_domain=system.cpu_clk_domain&#10;clusivity=mostly_incl&#10;compressor=Null&#10;data_latency=2&#10;default_p_state=UNDEFINED&#10;demand_mshr_reserve=1&#10;eventq_index=0&#10;is_read_only=true&#10;max_miss_count=0&#10;mshrs=4&#10;p_state_clk_gate_bins=20&#10;p_state_clk_gate_max=1000000000000&#10;p_state_clk_gate_min=1000&#10;power_model=&#10;prefetch_on_access=false&#10;prefetcher=Null&#10;&#13;eplacement_policy=system.cpu.icache.replacement_policy&#10;&#13;esponse_latency=2&#10;sequential_access=false&#10;size=32768&#10;system=system&#10;tag_latency=2&#10;tags=system.cpu.icache.tags&#10;tgts_per_mshr=20&#10;warmup_percentage=0&#10;write_allocator=Null&#10;write_buffers=8&#10;writeback_clean=true">
<path fill="#bab6ae" stroke="#000000" d="M201,-32C201,-32 371,-32 371,-32 377,-32 383,-38 383,-44 383,-44 383,-111 383,-111 383,-117 377,-123 371,-123 371,-123 201,-123 201,-123 195,-123 189,-117 189,-111 189,-111 189,-44 189,-44 189,-38 195,-32 201,-32"/>
<text text-anchor="middle" x="286" y="-107.8" font-family="Arial" font-size="14.00" fill="#000000">icache </text>
<text text-anchor="middle" x="286" y="-92.8" font-family="Arial" font-size="14.00" fill="#000000">: L1_ICache</text>
</a>
</g>
</g>
<g id="clust19" class="cluster">
<title>cluster_system_cpu_dtb</title>
<g id="a_clust19"><a xlink:title="eventq_index=0&#10;is_stage2=false&#10;size=64&#10;sys=system&#10;walker=system.cpu.dtb.walker">
<path fill="#bab6ae" stroke="#000000" d="M572,-155C572,-155 695,-155 695,-155 701,-155 707,-161 707,-167 707,-167 707,-288 707,-288 707,-294 701,-300 695,-300 695,-300 572,-300 572,-300 566,-300 560,-294 560,-288 560,-288 560,-167 560,-167 560,-161 566,-155 572,-155"/>
<text text-anchor="middle" x="633.5" y="-284.8" font-family="Arial" font-size="14.00" fill="#000000">dtb </text>
<text text-anchor="middle" x="633.5" y="-269.8" font-family="Arial" font-size="14.00" fill="#000000">: ArmDTB</text>
</a>
</g>
</g>
<g id="clust20" class="cluster">
<title>cluster_system_cpu_dtb_walker</title>
<g id="a_clust20"><a xlink:title="clk_domain=system.cpu_clk_domain&#10;default_p_state=UNDEFINED&#10;eventq_index=0&#10;is_stage2=false&#10;&#10;um_squash_per_cycle=2&#10;p_state_clk_gate_bins=20&#10;p_state_clk_gate_max=1000000000000&#10;p_state_clk_gate_min=1000&#10;power_model=&#10;sys=system">
<path fill="#9f9c95" stroke="#000000" d="M580,-163C580,-163 687,-163 687,-163 693,-163 699,-169 699,-175 699,-175 699,-242 699,-242 699,-248 693,-254 687,-254 687,-254 580,-254 580,-254 574,-254 568,-248 568,-242 568,-242 568,-175 568,-175 568,-169 574,-163 580,-163"/>
<text text-anchor="middle" x="633.5" y="-238.8" font-family="Arial" font-size="14.00" fill="#000000">walker </text>
<text text-anchor="middle" x="633.5" y="-223.8" font-family="Arial" font-size="14.00" fill="#000000">: ArmTableWalker</text>
</a>
</g>
</g>
<g id="clust25" class="cluster">
<title>cluster_system_cpu_itb</title>
<g id="a_clust25"><a xlink:title="eventq_index=0&#10;is_stage2=false&#10;size=64&#10;sys=system&#10;walker=system.cpu.itb.walker">
<path fill="#bab6ae" stroke="#000000" d="M417,-155C417,-155 540,-155 540,-155 546,-155 552,-161 552,-167 552,-167 552,-288 552,-288 552,-294 546,-300 540,-300 540,-300 417,-300 417,-300 411,-300 405,-294 405,-288 405,-288 405,-167 405,-167 405,-161 411,-155 417,-155"/>
<text text-anchor="middle" x="478.5" y="-284.8" font-family="Arial" font-size="14.00" fill="#000000">itb </text>
<text text-anchor="middle" x="478.5" y="-269.8" font-family="Arial" font-size="14.00" fill="#000000">: ArmITB</text>
</a>
</g>
</g>
<g id="clust26" class="cluster">
<title>cluster_system_cpu_itb_walker</title>
<g id="a_clust26"><a xlink:title="clk_domain=system.cpu_clk_domain&#10;default_p_state=UNDEFINED&#10;eventq_index=0&#10;is_stage2=false&#10;&#10;um_squash_per_cycle=2&#10;p_state_clk_gate_bins=20&#10;p_state_clk_gate_max=1000000000000&#10;p_state_clk_gate_min=1000&#10;power_model=&#10;sys=system">
<path fill="#9f9c95" stroke="#000000" d="M425,-163C425,-163 532,-163 532,-163 538,-163 544,-169 544,-175 544,-175 544,-242 544,-242 544,-248 538,-254 532,-254 532,-254 425,-254 425,-254 419,-254 413,-248 413,-242 413,-242 413,-175 413,-175 413,-169 419,-163 425,-163"/>
<text text-anchor="middle" x="478.5" y="-238.8" font-family="Arial" font-size="14.00" fill="#000000">walker </text>
<text text-anchor="middle" x="478.5" y="-223.8" font-family="Arial" font-size="14.00" fill="#000000">: ArmTableWalker</text>
</a>
</g>
</g>
<g id="clust31" class="cluster">
<title>cluster_system_cpu_dcache</title>
<g id="a_clust31"><a xlink:title="addr_ranges=0:18446744073709551615&#10;assoc=2&#10;clk_domain=system.cpu_clk_domain&#10;clusivity=mostly_incl&#10;compressor=Null&#10;data_latency=2&#10;default_p_state=UNDEFINED&#10;demand_mshr_reserve=1&#10;eventq_index=0&#10;is_read_only=false&#10;max_miss_count=0&#10;mshrs=4&#10;p_state_clk_gate_bins=20&#10;p_state_clk_gate_max=1000000000000&#10;p_state_clk_gate_min=1000&#10;power_model=&#10;prefetch_on_access=false&#10;prefetcher=Null&#10;&#13;eplacement_policy=system.cpu.dcache.replacement_policy&#10;&#13;esponse_latency=2&#10;sequential_access=false&#10;size=65536&#10;system=system&#10;tag_latency=2&#10;tags=system.cpu.dcache.tags&#10;tgts_per_mshr=20&#10;warmup_percentage=0&#10;write_allocator=Null&#10;write_buffers=8&#10;writeback_clean=false">
<path fill="#bab6ae" stroke="#000000" d="M464,-32C464,-32 634,-32 634,-32 640,-32 646,-38 646,-44 646,-44 646,-111 646,-111 646,-117 640,-123 634,-123 634,-123 464,-123 464,-123 458,-123 452,-117 452,-111 452,-111 452,-44 452,-44 452,-38 458,-32 464,-32"/>
<text text-anchor="middle" x="549" y="-107.8" font-family="Arial" font-size="14.00" fill="#000000">dcache </text>
<text text-anchor="middle" x="549" y="-92.8" font-family="Arial" font-size="14.00" fill="#000000">: L1_DCache</text>
</a>
</g>
</g>
<!-- system_system_port -->
<g id="node1" class="node">
<title>system_system_port</title>
<path fill="#b6b8bc" stroke="#000000" d="M442,-493.5C442,-493.5 514,-493.5 514,-493.5 520,-493.5 526,-499.5 526,-505.5 526,-505.5 526,-517.5 526,-517.5 526,-523.5 520,-529.5 514,-529.5 514,-529.5 442,-529.5 442,-529.5 436,-529.5 430,-523.5 430,-517.5 430,-517.5 430,-505.5 430,-505.5 430,-499.5 436,-493.5 442,-493.5"/>
<text text-anchor="middle" x="478" y="-507.8" font-family="Arial" font-size="14.00" fill="#000000">system_port</text>
</g>
<!-- system_membus_slave -->
<g id="node3" class="node">
<title>system_membus_slave</title>
<path fill="#586070" stroke="#000000" d="M463,-362.5C463,-362.5 493,-362.5 493,-362.5 499,-362.5 505,-368.5 505,-374.5 505,-374.5 505,-386.5 505,-386.5 505,-392.5 499,-398.5 493,-398.5 493,-398.5 463,-398.5 463,-398.5 457,-398.5 451,-392.5 451,-386.5 451,-386.5 451,-374.5 451,-374.5 451,-368.5 457,-362.5 463,-362.5"/>
<text text-anchor="middle" x="478" y="-376.8" font-family="Arial" font-size="14.00" fill="#000000">slave</text>
</g>
<!-- system_system_port&#45;&gt;system_membus_slave -->
<g id="edge1" class="edge">
<title>system_system_port&#45;&gt;system_membus_slave</title>
<path fill="none" stroke="#000000" d="M478,-493.285C478,-471.3856 478,-434.3861 478,-408.7663"/>
<polygon fill="#000000" stroke="#000000" points="481.5001,-408.5603 478,-398.5603 474.5001,-408.5603 481.5001,-408.5603"/>
</g>
<!-- system_membus_master -->
<g id="node2" class="node">
<title>system_membus_master</title>
<path fill="#586070" stroke="#000000" d="M383.5,-362.5C383.5,-362.5 420.5,-362.5 420.5,-362.5 426.5,-362.5 432.5,-368.5 432.5,-374.5 432.5,-374.5 432.5,-386.5 432.5,-386.5 432.5,-392.5 426.5,-398.5 420.5,-398.5 420.5,-398.5 383.5,-398.5 383.5,-398.5 377.5,-398.5 371.5,-392.5 371.5,-386.5 371.5,-386.5 371.5,-374.5 371.5,-374.5 371.5,-368.5 377.5,-362.5 383.5,-362.5"/>
<text text-anchor="middle" x="402" y="-376.8" font-family="Arial" font-size="14.00" fill="#000000">master</text>
</g>
<!-- system_mem_ctrls_port -->
<g id="node4" class="node">
<title>system_mem_ctrls_port</title>
<path fill="#4b4746" stroke="#000000" d="M109,-171.5C109,-171.5 139,-171.5 139,-171.5 145,-171.5 151,-177.5 151,-183.5 151,-183.5 151,-195.5 151,-195.5 151,-201.5 145,-207.5 139,-207.5 139,-207.5 109,-207.5 109,-207.5 103,-207.5 97,-201.5 97,-195.5 97,-195.5 97,-183.5 97,-183.5 97,-177.5 103,-171.5 109,-171.5"/>
<text text-anchor="middle" x="124" y="-185.8" font-family="Arial" font-size="14.00" fill="#000000">port</text>
</g>
<!-- system_membus_master&#45;&gt;system_mem_ctrls_port -->
<g id="edge2" class="edge">
<title>system_membus_master&#45;&gt;system_mem_ctrls_port</title>
<path fill="none" stroke="#000000" d="M371.0847,-377.8998C310.3776,-372.5226 180.1493,-359.5455 165,-346 128.7578,-313.5946 122.7815,-253.4629 122.7118,-217.914"/>
<polygon fill="#000000" stroke="#000000" points="126.2139,-217.7762 122.8528,-207.7287 119.2146,-217.6793 126.2139,-217.7762"/>
</g>
<!-- system_cpu_icache_mem_side -->
<g id="node7" class="node">
<title>system_cpu_icache_mem_side</title>
<path fill="#94918b" stroke="#000000" d="M209,-40.5C209,-40.5 269,-40.5 269,-40.5 275,-40.5 281,-46.5 281,-52.5 281,-52.5 281,-64.5 281,-64.5 281,-70.5 275,-76.5 269,-76.5 269,-76.5 209,-76.5 209,-76.5 203,-76.5 197,-70.5 197,-64.5 197,-64.5 197,-52.5 197,-52.5 197,-46.5 203,-40.5 209,-40.5"/>
<text text-anchor="middle" x="239" y="-54.8" font-family="Arial" font-size="14.00" fill="#000000">mem_side</text>
</g>
<!-- system_membus_slave&#45;&gt;system_cpu_icache_mem_side -->
<g id="edge3" class="edge">
<title>system_membus_slave&#45;&gt;system_cpu_icache_mem_side</title>
<path fill="none" stroke="#000000" d="M449.2044,-357.1373C446.8521,-355.9122 444.4392,-354.8419 442,-354 428.0771,-349.1942 187.2566,-356.5709 177,-346 162.2218,-330.7689 171.0223,-175.3629 177,-155 185.8623,-124.8109 207.4023,-95.1276 222.5951,-76.8255"/>
<polygon fill="#000000" stroke="#000000" points="447.5497,-360.2283 457.9038,-362.4742 451.2102,-354.2617 447.5497,-360.2283"/>
</g>
<!-- system_cpu_dtb_walker_port -->
<g id="node9" class="node">
<title>system_cpu_dtb_walker_port</title>
<path fill="#7f7c77" stroke="#000000" d="M588,-171.5C588,-171.5 618,-171.5 618,-171.5 624,-171.5 630,-177.5 630,-183.5 630,-183.5 630,-195.5 630,-195.5 630,-201.5 624,-207.5 618,-207.5 618,-207.5 588,-207.5 588,-207.5 582,-207.5 576,-201.5 576,-195.5 576,-195.5 576,-183.5 576,-183.5 576,-177.5 582,-171.5 588,-171.5"/>
<text text-anchor="middle" x="603" y="-185.8" font-family="Arial" font-size="14.00" fill="#000000">port</text>
</g>
<!-- system_membus_slave&#45;&gt;system_cpu_dtb_walker_port -->
<g id="edge6" class="edge">
<title>system_membus_slave&#45;&gt;system_cpu_dtb_walker_port</title>
<path fill="none" stroke="#000000" d="M514.497,-368.8802C526.5099,-363.5326 539.0632,-356.0788 548,-346 584.1117,-305.2739 596.8805,-239.3807 601.0906,-207.6793"/>
<polygon fill="#000000" stroke="#000000" points="512.9976,-365.7117 505.0583,-372.7273 515.6397,-372.194 512.9976,-365.7117"/>
</g>
<!-- system_cpu_itb_walker_port -->
<g id="node10" class="node">
<title>system_cpu_itb_walker_port</title>
<path fill="#7f7c77" stroke="#000000" d="M463,-171.5C463,-171.5 493,-171.5 493,-171.5 499,-171.5 505,-177.5 505,-183.5 505,-183.5 505,-195.5 505,-195.5 505,-201.5 499,-207.5 493,-207.5 493,-207.5 463,-207.5 463,-207.5 457,-207.5 451,-201.5 451,-195.5 451,-195.5 451,-183.5 451,-183.5 451,-177.5 457,-171.5 463,-171.5"/>
<text text-anchor="middle" x="478" y="-185.8" font-family="Arial" font-size="14.00" fill="#000000">port</text>
</g>
<!-- system_membus_slave&#45;&gt;system_cpu_itb_walker_port -->
<g id="edge5" class="edge">
<title>system_membus_slave&#45;&gt;system_cpu_itb_walker_port</title>
<path fill="none" stroke="#000000" d="M478,-352.09C478,-312.3133 478,-241.1585 478,-207.7584"/>
<polygon fill="#000000" stroke="#000000" points="474.5001,-352.1861 478,-362.1861 481.5001,-352.1862 474.5001,-352.1861"/>
</g>
<!-- system_cpu_dcache_mem_side -->
<g id="node11" class="node">
<title>system_cpu_dcache_mem_side</title>
<path fill="#94918b" stroke="#000000" d="M566,-40.5C566,-40.5 626,-40.5 626,-40.5 632,-40.5 638,-46.5 638,-52.5 638,-52.5 638,-64.5 638,-64.5 638,-70.5 632,-76.5 626,-76.5 626,-76.5 566,-76.5 566,-76.5 560,-76.5 554,-70.5 554,-64.5 554,-64.5 554,-52.5 554,-52.5 554,-46.5 560,-40.5 566,-40.5"/>
<text text-anchor="middle" x="596" y="-54.8" font-family="Arial" font-size="14.00" fill="#000000">mem_side</text>
</g>
<!-- system_membus_slave&#45;&gt;system_cpu_dcache_mem_side -->
<g id="edge4" class="edge">
<title>system_membus_slave&#45;&gt;system_cpu_dcache_mem_side</title>
<path fill="none" stroke="#000000" d="M515.3525,-377.4097C576.142,-371.9986 690.9502,-360.0382 703,-346 758.2899,-281.5861 737.4961,-232.5638 703,-155 687.7011,-120.6007 653.4095,-93.2956 627.744,-76.6324"/>
<polygon fill="#000000" stroke="#000000" points="514.6783,-373.9552 505.021,-378.3126 515.2878,-380.9286 514.6783,-373.9552"/>
</g>
<!-- system_cpu_icache_port -->
<g id="node5" class="node">
<title>system_cpu_icache_port</title>
<path fill="#959ead" stroke="#000000" d="M201,-171.5C201,-171.5 269,-171.5 269,-171.5 275,-171.5 281,-177.5 281,-183.5 281,-183.5 281,-195.5 281,-195.5 281,-201.5 275,-207.5 269,-207.5 269,-207.5 201,-207.5 201,-207.5 195,-207.5 189,-201.5 189,-195.5 189,-195.5 189,-183.5 189,-183.5 189,-177.5 195,-171.5 201,-171.5"/>
<text text-anchor="middle" x="235" y="-185.8" font-family="Arial" font-size="14.00" fill="#000000">icache_port</text>
</g>
<!-- system_cpu_icache_cpu_side -->
<g id="node8" class="node">
<title>system_cpu_icache_cpu_side</title>
<path fill="#94918b" stroke="#000000" d="M311,-40.5C311,-40.5 363,-40.5 363,-40.5 369,-40.5 375,-46.5 375,-52.5 375,-52.5 375,-64.5 375,-64.5 375,-70.5 369,-76.5 363,-76.5 363,-76.5 311,-76.5 311,-76.5 305,-76.5 299,-70.5 299,-64.5 299,-64.5 299,-52.5 299,-52.5 299,-46.5 305,-40.5 311,-40.5"/>
<text text-anchor="middle" x="337" y="-54.8" font-family="Arial" font-size="14.00" fill="#000000">cpu_side</text>
</g>
<!-- system_cpu_icache_port&#45;&gt;system_cpu_icache_cpu_side -->
<g id="edge7" class="edge">
<title>system_cpu_icache_port&#45;&gt;system_cpu_icache_cpu_side</title>
<path fill="none" stroke="#000000" d="M250.4801,-171.3982C261.673,-158.1627 277.0417,-139.6837 290,-123 299.6432,-110.5845 309.9708,-96.5044 318.482,-84.674"/>
<polygon fill="#000000" stroke="#000000" points="321.3488,-86.6821 324.3226,-76.5132 315.6564,-82.6081 321.3488,-86.6821"/>
</g>
<!-- system_cpu_dcache_port -->
<g id="node6" class="node">
<title>system_cpu_dcache_port</title>
<path fill="#959ead" stroke="#000000" d="M311,-171.5C311,-171.5 385,-171.5 385,-171.5 391,-171.5 397,-177.5 397,-183.5 397,-183.5 397,-195.5 397,-195.5 397,-201.5 391,-207.5 385,-207.5 385,-207.5 311,-207.5 311,-207.5 305,-207.5 299,-201.5 299,-195.5 299,-195.5 299,-183.5 299,-183.5 299,-177.5 305,-171.5 311,-171.5"/>
<text text-anchor="middle" x="348" y="-185.8" font-family="Arial" font-size="14.00" fill="#000000">dcache_port</text>
</g>
<!-- system_cpu_dcache_cpu_side -->
<g id="node12" class="node">
<title>system_cpu_dcache_cpu_side</title>
<path fill="#94918b" stroke="#000000" d="M472,-40.5C472,-40.5 524,-40.5 524,-40.5 530,-40.5 536,-46.5 536,-52.5 536,-52.5 536,-64.5 536,-64.5 536,-70.5 530,-76.5 524,-76.5 524,-76.5 472,-76.5 472,-76.5 466,-76.5 460,-70.5 460,-64.5 460,-64.5 460,-52.5 460,-52.5 460,-46.5 466,-40.5 472,-40.5"/>
<text text-anchor="middle" x="498" y="-54.8" font-family="Arial" font-size="14.00" fill="#000000">cpu_side</text>
</g>
<!-- system_cpu_dcache_port&#45;&gt;system_cpu_dcache_cpu_side -->
<g id="edge8" class="edge">
<title>system_cpu_dcache_port&#45;&gt;system_cpu_dcache_cpu_side</title>
<path fill="none" stroke="#000000" d="M368.8569,-171.285C395.052,-148.4079 440.1155,-109.0525 469.4823,-83.4055"/>
<polygon fill="#000000" stroke="#000000" points="472.0906,-85.7745 477.3203,-76.5603 467.486,-80.5021 472.0906,-85.7745"/>
</g>
</g>
</svg>
