<?xml version="1.0" encoding="UTF-8" standalone="no"?>
<!DOCTYPE svg PUBLIC "-//W3C//DTD SVG 1.1//EN"
 "http://www.w3.org/Graphics/SVG/1.1/DTD/svg11.dtd">
<!-- Generated by graphviz version 2.40.1 (20161225.0304)
 -->
<!-- Title: G Pages: 1 -->
<svg width="735pt" height="515pt"
 viewBox="0.00 0.00 735.00 515.00" xmlns="http://www.w3.org/2000/svg" xmlns:xlink="http://www.w3.org/1999/xlink">
<g id="graph0" class="graph" transform="scale(1 1) rotate(0) translate(4 511)">
<title>G</title>
<polygon fill="#ffffff" stroke="transparent" points="-4,4 -4,-511 731,-511 731,4 -4,4"/>
<g id="clust1" class="cluster">
<title>cluster_root</title>
<g id="a_clust1"><a xlink:title="eventq_index=0&#10;full_system=false&#10;sim_quantum=0&#10;time_sync_enable=false&#10;time_sync_period=100000000000&#10;time_sync_spin_threshold=100000000">
<path fill="#bab6ae" stroke="#000000" d="M20,-8C20,-8 707,-8 707,-8 713,-8 719,-14 719,-20 719,-20 719,-487 719,-487 719,-493 713,-499 707,-499 707,-499 20,-499 20,-499 14,-499 8,-493 8,-487 8,-487 8,-20 8,-20 8,-14 14,-8 20,-8"/>
<text text-anchor="middle" x="363.5" y="-483.8" font-family="Arial" font-size="14.00" fill="#000000">root </text>
<text text-anchor="middle" x="363.5" y="-468.8" font-family="Arial" font-size="14.00" fill="#000000">: Root</text>
</a>
</g>
</g>
<g id="clust2" class="cluster">
<title>cluster_system</title>
<g id="a_clust2"><a xlink:title="boot_osflags=a&#10;cache_line_size=64&#10;eventq_index=0&#10;exit_on_work_items=false&#10;init_param=0&#10;kernel=&#10;kernel_addr_check=true&#10;kernel_extras=&#10;kernel_extras_addrs=&#10;&#10;oad_addr_mask=18446744073709551615&#10;&#10;oad_offset=0&#10;m5ops_base=0&#10;mem_mode=timing&#10;mem_ranges=0:268435456&#10;memories=system.mem_ctrls&#10;mmap_using_noreserve=false&#10;multi_thread=false&#10;&#10;um_work_ids=16&#10;&#13;eadfile=&#10;&#13;edirect_paths=system.redirect_paths0 system.redirect_paths1 system.redirect_paths2&#10;symbolfile=&#10;thermal_components=&#10;thermal_model=Null&#10;work_begin_ckpt_count=0&#10;work_begin_cpu_id_exit=&#45;1&#10;work_begin_exit_count=0&#10;work_cpus_ckpt_count=0&#10;work_end_ckpt_count=0&#10;work_end_exit_count=0&#10;work_item_id=&#45;1">
<path fill="#e4e7eb" stroke="#000000" d="M28,-16C28,-16 699,-16 699,-16 705,-16 711,-22 711,-28 711,-28 711,-441 711,-441 711,-447 705,-453 699,-453 699,-453 28,-453 28,-453 22,-453 16,-447 16,-441 16,-441 16,-28 16,-28 16,-22 22,-16 28,-16"/>
<text text-anchor="middle" x="363.5" y="-437.8" font-family="Arial" font-size="14.00" fill="#000000">system </text>
<text text-anchor="middle" x="363.5" y="-422.8" font-family="Arial" font-size="14.00" fill="#000000">: System</text>
</a>
</g>
</g>
<g id="clust3" class="cluster">
<title>cluster_system_membus</title>
<g id="a_clust3"><a xlink:title="clk_domain=system.clk_domain&#10;default_p_state=UNDEFINED&#10;eventq_index=0&#10;forward_latency=4&#10;frontend_latency=3&#10;max_outstanding_snoops=512&#10;max_routing_table_size=512&#10;p_state_clk_gate_bins=20&#10;p_state_clk_gate_max=1000000000000&#10;p_state_clk_gate_min=1000&#10;point_of_coherency=true&#10;point_of_unification=true&#10;power_model=&#10;&#13;esponse_latency=2&#10;snoop_filter=system.membus.snoop_filter&#10;snoop_response_latency=4&#10;system=system&#10;use_default_range=false&#10;width=16">
<path fill="#6f798c" stroke="#000000" d="M236,-231C236,-231 362,-231 362,-231 368,-231 374,-237 374,-243 374,-243 374,-310 374,-310 374,-316 368,-322 362,-322 362,-322 236,-322 236,-322 230,-322 224,-316 224,-310 224,-310 224,-243 224,-243 224,-237 230,-231 236,-231"/>
<text text-anchor="middle" x="299" y="-306.8" font-family="Arial" font-size="14.00" fill="#000000">membus </text>
<text text-anchor="middle" x="299" y="-291.8" font-family="Arial" font-size="14.00" fill="#000000">: SystemXBar</text>
</a>
</g>
</g>
<g id="clust11" class="cluster">
<title>cluster_system_mem_ctrls</title>
<g id="a_clust11"><a xlink:title="IDD0=0.055&#10;IDD02=0.0&#10;IDD2N=0.032&#10;IDD2N2=0.0&#10;IDD2P0=0.0&#10;IDD2P02=0.0&#10;IDD2P1=0.032&#10;IDD2P12=0.0&#10;IDD3N=0.038&#10;IDD3N2=0.0&#10;IDD3P0=0.0&#10;IDD3P02=0.0&#10;IDD3P1=0.038&#10;IDD3P12=0.0&#10;IDD4R=0.157&#10;IDD4R2=0.0&#10;IDD4W=0.125&#10;IDD4W2=0.0&#10;IDD5=0.235&#10;IDD52=0.0&#10;IDD6=0.02&#10;IDD62=0.0&#10;VDD=1.5&#10;VDD2=0.0&#10;activation_limit=4&#10;addr_mapping=RoRaBaCoCh&#10;bank_groups_per_rank=0&#10;banks_per_rank=8&#10;burst_length=8&#10;clk_domain=system.clk_domain&#10;conf_table_reported=true&#10;default_p_state=UNDEFINED&#10;device_bus_width=8&#10;device_rowbuffer_size=1024&#10;device_size=536870912&#10;devices_per_rank=8&#10;dll=true&#10;enable_dram_powerdown=false&#10;eventq_index=0&#10;in_addr_map=true&#10;kvm_map=true&#10;max_accesses_per_row=16&#10;mem_sched_policy=frfcfs&#10;min_writes_per_switch=16&#10;&#10;ull=false&#10;p_state_clk_gate_bins=20&#10;p_state_clk_gate_max=1000000000000&#10;p_state_clk_gate_min=1000&#10;page_policy=open_adaptive&#10;power_model=&#10;qos_masters= &#160;&#160;&#160;&#160;&#160;&#160;&#160;&#160;&#160;&#160;&#160;&#160;&#160;&#160;&#10;qos_policy=Null&#10;qos_priorities=1&#10;qos_priority_escalation=false&#10;qos_q_policy=fifo&#10;qos_syncro_scheduler=false&#10;qos_turnaround_policy=Null&#10;&#13;ange=0:268435456&#10;&#13;anks_per_channel=2&#10;&#13;ead_buffer_size=32&#10;static_backend_latency=10000&#10;static_frontend_latency=10000&#10;tBURST=5000&#10;tCCD_L=0&#10;tCCD_L_WR=0&#10;tCK=1250&#10;tCL=13750&#10;tCS=2500&#10;tRAS=35000&#10;tRCD=13750&#10;tREFI=7800000&#10;tRFC=260000&#10;tRP=13750&#10;tRRD=6000&#10;tRRD_L=0&#10;tRTP=7500&#10;tRTW=2500&#10;tWR=15000&#10;tWTR=7500&#10;tXAW=30000&#10;tXP=6000&#10;tXPDLL=0&#10;tXS=270000&#10;tXSDLL=0&#10;write_buffer_size=64&#10;write_high_thresh_perc=85&#10;write_low_thresh_perc=50">
<path fill="#5e5958" stroke="#000000" d="M36,-40C36,-40 149,-40 149,-40 155,-40 161,-46 161,-52 161,-52 161,-119 161,-119 161,-125 155,-131 149,-131 149,-131 36,-131 36,-131 30,-131 24,-125 24,-119 24,-119 24,-52 24,-52 24,-46 30,-40 36,-40"/>
<text text-anchor="middle" x="92.5" y="-115.8" font-family="Arial" font-size="14.00" fill="#000000">mem_ctrls </text>
<text text-anchor="middle" x="92.5" y="-100.8" font-family="Arial" font-size="14.00" fill="#000000">: DDR3_1600_8x8</text>
</a>
</g>
</g>
<g id="clust14" class="cluster">
<title>cluster_system_cpu</title>
<g id="a_clust14"><a xlink:title="branchPred=Null&#10;checker=Null&#10;clk_domain=system.cpu_clk_domain&#10;cpu_id=0&#10;default_p_state=UNDEFINED&#10;do_checkpoint_insts=true&#10;do_quiesce=true&#10;do_statistics_insts=true&#10;dtb=system.cpu.dtb&#10;eventq_index=0&#10;function_trace=false&#10;function_trace_start=0&#10;interrupts=system.cpu.interrupts&#10;isa=system.cpu.isa&#10;itb=system.cpu.itb&#10;max_insts_all_threads=0&#10;max_insts_any_thread=0&#10;&#10;umThreads=1&#10;p_state_clk_gate_bins=20&#10;p_state_clk_gate_max=1000000000000&#10;p_state_clk_gate_min=1000&#10;power_gating_on_idle=false&#10;power_model=&#10;profile=0&#10;progress_interval=0&#10;pwr_gating_latency=300&#10;simpoint_start_insts=&#10;socket_id=0&#10;switched_out=false&#10;syscallRetryLatency=10000&#10;system=system&#10;tracer=system.cpu.tracer&#10;wait_for_remote_gdb=false&#10;workload=system.cpu.workload">
<path fill="#bbc6d9" stroke="#000000" d="M181,-24C181,-24 691,-24 691,-24 697,-24 703,-30 703,-36 703,-36 703,-211 703,-211 703,-217 697,-223 691,-223 691,-223 181,-223 181,-223 175,-223 169,-217 169,-211 169,-211 169,-36 169,-36 169,-30 175,-24 181,-24"/>
<text text-anchor="middle" x="436" y="-207.8" font-family="Arial" font-size="14.00" fill="#000000">cpu </text>
<text text-anchor="middle" x="436" y="-192.8" font-family="Arial" font-size="14.00" fill="#000000">: TimingSimpleCPU</text>
</a>
</g>
</g>
<g id="clust16" class="cluster">
<title>cluster_system_cpu_dtb</title>
<g id="a_clust16"><a xlink:title="eventq_index=0&#10;is_stage2=false&#10;size=64&#10;sys=system&#10;walker=system.cpu.dtb.walker">
<path fill="#bab6ae" stroke="#000000" d="M560,-32C560,-32 683,-32 683,-32 689,-32 695,-38 695,-44 695,-44 695,-165 695,-165 695,-171 689,-177 683,-177 683,-177 560,-177 560,-177 554,-177 548,-171 548,-165 548,-165 548,-44 548,-44 548,-38 554,-32 560,-32"/>
<text text-anchor="middle" x="621.5" y="-161.8" font-family="Arial" font-size="14.00" fill="#000000">dtb </text>
<text text-anchor="middle" x="621.5" y="-146.8" font-family="Arial" font-size="14.00" fill="#000000">: ArmDTB</text>
</a>
</g>
</g>
<g id="clust17" class="cluster">
<title>cluster_system_cpu_dtb_walker</title>
<g id="a_clust17"><a xlink:title="clk_domain=system.cpu_clk_domain&#10;default_p_state=UNDEFINED&#10;eventq_index=0&#10;is_stage2=false&#10;&#10;um_squash_per_cycle=2&#10;p_state_clk_gate_bins=20&#10;p_state_clk_gate_max=1000000000000&#10;p_state_clk_gate_min=1000&#10;power_model=&#10;sys=system">
<path fill="#9f9c95" stroke="#000000" d="M568,-40C568,-40 675,-40 675,-40 681,-40 687,-46 687,-52 687,-52 687,-119 687,-119 687,-125 681,-131 675,-131 675,-131 568,-131 568,-131 562,-131 556,-125 556,-119 556,-119 556,-52 556,-52 556,-46 562,-40 568,-40"/>
<text text-anchor="middle" x="621.5" y="-115.8" font-family="Arial" font-size="14.00" fill="#000000">walker </text>
<text text-anchor="middle" x="621.5" y="-100.8" font-family="Arial" font-size="14.00" fill="#000000">: ArmTableWalker</text>
</a>
</g>
</g>
<g id="clust22" class="cluster">
<title>cluster_system_cpu_itb</title>
<g id="a_clust22"><a xlink:title="eventq_index=0&#10;is_stage2=false&#10;size=64&#10;sys=system&#10;walker=system.cpu.itb.walker">
<path fill="#bab6ae" stroke="#000000" d="M405,-32C405,-32 528,-32 528,-32 534,-32 540,-38 540,-44 540,-44 540,-165 540,-165 540,-171 534,-177 528,-177 528,-177 405,-177 405,-177 399,-177 393,-171 393,-165 393,-165 393,-44 393,-44 393,-38 399,-32 405,-32"/>
<text text-anchor="middle" x="466.5" y="-161.8" font-family="Arial" font-size="14.00" fill="#000000">itb </text>
<text text-anchor="middle" x="466.5" y="-146.8" font-family="Arial" font-size="14.00" fill="#000000">: ArmITB</text>
</a>
</g>
</g>
<g id="clust23" class="cluster">
<title>cluster_system_cpu_itb_walker</title>
<g id="a_clust23"><a xlink:title="clk_domain=system.cpu_clk_domain&#10;default_p_state=UNDEFINED&#10;eventq_index=0&#10;is_stage2=false&#10;&#10;um_squash_per_cycle=2&#10;p_state_clk_gate_bins=20&#10;p_state_clk_gate_max=1000000000000&#10;p_state_clk_gate_min=1000&#10;power_model=&#10;sys=system">
<path fill="#9f9c95" stroke="#000000" d="M413,-40C413,-40 520,-40 520,-40 526,-40 532,-46 532,-52 532,-52 532,-119 532,-119 532,-125 526,-131 520,-131 520,-131 413,-131 413,-131 407,-131 401,-125 401,-119 401,-119 401,-52 401,-52 401,-46 407,-40 413,-40"/>
<text text-anchor="middle" x="466.5" y="-115.8" font-family="Arial" font-size="14.00" fill="#000000">walker </text>
<text text-anchor="middle" x="466.5" y="-100.8" font-family="Arial" font-size="14.00" fill="#000000">: ArmTableWalker</text>
</a>
</g>
</g>
<!-- system_system_port -->
<g id="node1" class="node">
<title>system_system_port</title>
<path fill="#b6b8bc" stroke="#000000" d="M303,-370.5C303,-370.5 375,-370.5 375,-370.5 381,-370.5 387,-376.5 387,-382.5 387,-382.5 387,-394.5 387,-394.5 387,-400.5 381,-406.5 375,-406.5 375,-406.5 303,-406.5 303,-406.5 297,-406.5 291,-400.5 291,-394.5 291,-394.5 291,-382.5 291,-382.5 291,-376.5 297,-370.5 303,-370.5"/>
<text text-anchor="middle" x="339" y="-384.8" font-family="Arial" font-size="14.00" fill="#000000">system_port</text>
</g>
<!-- system_membus_slave -->
<g id="node3" class="node">
<title>system_membus_slave</title>
<path fill="#586070" stroke="#000000" d="M324,-239.5C324,-239.5 354,-239.5 354,-239.5 360,-239.5 366,-245.5 366,-251.5 366,-251.5 366,-263.5 366,-263.5 366,-269.5 360,-275.5 354,-275.5 354,-275.5 324,-275.5 324,-275.5 318,-275.5 312,-269.5 312,-263.5 312,-263.5 312,-251.5 312,-251.5 312,-245.5 318,-239.5 324,-239.5"/>
<text text-anchor="middle" x="339" y="-253.8" font-family="Arial" font-size="14.00" fill="#000000">slave</text>
</g>
<!-- system_system_port&#45;&gt;system_membus_slave -->
<g id="edge1" class="edge">
<title>system_system_port&#45;&gt;system_membus_slave</title>
<path fill="none" stroke="#000000" d="M339,-370.285C339,-348.3856 339,-311.3861 339,-285.7663"/>
<polygon fill="#000000" stroke="#000000" points="342.5001,-285.5603 339,-275.5603 335.5001,-285.5603 342.5001,-285.5603"/>
</g>
<!-- system_membus_master -->
<g id="node2" class="node">
<title>system_membus_master</title>
<path fill="#586070" stroke="#000000" d="M244.5,-239.5C244.5,-239.5 281.5,-239.5 281.5,-239.5 287.5,-239.5 293.5,-245.5 293.5,-251.5 293.5,-251.5 293.5,-263.5 293.5,-263.5 293.5,-269.5 287.5,-275.5 281.5,-275.5 281.5,-275.5 244.5,-275.5 244.5,-275.5 238.5,-275.5 232.5,-269.5 232.5,-263.5 232.5,-263.5 232.5,-251.5 232.5,-251.5 232.5,-245.5 238.5,-239.5 244.5,-239.5"/>
<text text-anchor="middle" x="263" y="-253.8" font-family="Arial" font-size="14.00" fill="#000000">master</text>
</g>
<!-- system_mem_ctrls_port -->
<g id="node4" class="node">
<title>system_mem_ctrls_port</title>
<path fill="#4b4746" stroke="#000000" d="M111,-48.5C111,-48.5 141,-48.5 141,-48.5 147,-48.5 153,-54.5 153,-60.5 153,-60.5 153,-72.5 153,-72.5 153,-78.5 147,-84.5 141,-84.5 141,-84.5 111,-84.5 111,-84.5 105,-84.5 99,-78.5 99,-72.5 99,-72.5 99,-60.5 99,-60.5 99,-54.5 105,-48.5 111,-48.5"/>
<text text-anchor="middle" x="126" y="-62.8" font-family="Arial" font-size="14.00" fill="#000000">port</text>
</g>
<!-- system_membus_master&#45;&gt;system_mem_ctrls_port -->
<g id="edge2" class="edge">
<title>system_membus_master&#45;&gt;system_mem_ctrls_port</title>
<path fill="none" stroke="#000000" d="M232.2619,-254.339C210.5049,-250.4872 182.2378,-241.9444 165,-223 132.7763,-187.586 126.2001,-129.6586 125.3857,-95.0932"/>
<polygon fill="#000000" stroke="#000000" points="128.8828,-94.7198 125.2986,-84.7497 121.883,-94.7789 128.8828,-94.7198"/>
</g>
<!-- system_cpu_icache_port -->
<g id="node5" class="node">
<title>system_cpu_icache_port</title>
<path fill="#959ead" stroke="#000000" d="M305,-48.5C305,-48.5 373,-48.5 373,-48.5 379,-48.5 385,-54.5 385,-60.5 385,-60.5 385,-72.5 385,-72.5 385,-78.5 379,-84.5 373,-84.5 373,-84.5 305,-84.5 305,-84.5 299,-84.5 293,-78.5 293,-72.5 293,-72.5 293,-60.5 293,-60.5 293,-54.5 299,-48.5 305,-48.5"/>
<text text-anchor="middle" x="339" y="-62.8" font-family="Arial" font-size="14.00" fill="#000000">icache_port</text>
</g>
<!-- system_membus_slave&#45;&gt;system_cpu_icache_port -->
<g id="edge3" class="edge">
<title>system_membus_slave&#45;&gt;system_cpu_icache_port</title>
<path fill="none" stroke="#000000" d="M339,-229.09C339,-189.3133 339,-118.1585 339,-84.7584"/>
<polygon fill="#000000" stroke="#000000" points="335.5001,-229.1861 339,-239.1861 342.5001,-229.1862 335.5001,-229.1861"/>
</g>
<!-- system_cpu_dcache_port -->
<g id="node6" class="node">
<title>system_cpu_dcache_port</title>
<path fill="#959ead" stroke="#000000" d="M189,-48.5C189,-48.5 263,-48.5 263,-48.5 269,-48.5 275,-54.5 275,-60.5 275,-60.5 275,-72.5 275,-72.5 275,-78.5 269,-84.5 263,-84.5 263,-84.5 189,-84.5 189,-84.5 183,-84.5 177,-78.5 177,-72.5 177,-72.5 177,-60.5 177,-60.5 177,-54.5 183,-48.5 189,-48.5"/>
<text text-anchor="middle" x="226" y="-62.8" font-family="Arial" font-size="14.00" fill="#000000">dcache_port</text>
</g>
<!-- system_membus_slave&#45;&gt;system_cpu_dcache_port -->
<g id="edge4" class="edge">
<title>system_membus_slave&#45;&gt;system_cpu_dcache_port</title>
<path fill="none" stroke="#000000" d="M307.4731,-233.667C305.9799,-232.7372 304.4846,-231.8432 303,-231 295.0329,-226.4749 290.336,-229.6186 284,-223 246.0288,-183.3358 232.4919,-116.6395 228.0212,-84.6652"/>
<polygon fill="#000000" stroke="#000000" points="305.6482,-236.6567 315.9131,-239.2801 309.5246,-230.828 305.6482,-236.6567"/>
</g>
<!-- system_cpu_dtb_walker_port -->
<g id="node7" class="node">
<title>system_cpu_dtb_walker_port</title>
<path fill="#7f7c77" stroke="#000000" d="M576,-48.5C576,-48.5 606,-48.5 606,-48.5 612,-48.5 618,-54.5 618,-60.5 618,-60.5 618,-72.5 618,-72.5 618,-78.5 612,-84.5 606,-84.5 606,-84.5 576,-84.5 576,-84.5 570,-84.5 564,-78.5 564,-72.5 564,-72.5 564,-60.5 564,-60.5 564,-54.5 570,-48.5 576,-48.5"/>
<text text-anchor="middle" x="591" y="-62.8" font-family="Arial" font-size="14.00" fill="#000000">port</text>
</g>
<!-- system_membus_slave&#45;&gt;system_cpu_dtb_walker_port -->
<g id="edge6" class="edge">
<title>system_membus_slave&#45;&gt;system_cpu_dtb_walker_port</title>
<path fill="none" stroke="#000000" d="M376.2828,-255.3992C426.5387,-251.8404 512.4463,-242.9643 536,-223 578.0708,-187.3403 587.9763,-117.4575 590.2971,-84.5068"/>
<polygon fill="#000000" stroke="#000000" points="375.8784,-251.9183 366.1351,-256.0799 376.347,-258.9026 375.8784,-251.9183"/>
</g>
<!-- system_cpu_itb_walker_port -->
<g id="node8" class="node">
<title>system_cpu_itb_walker_port</title>
<path fill="#7f7c77" stroke="#000000" d="M421,-48.5C421,-48.5 451,-48.5 451,-48.5 457,-48.5 463,-54.5 463,-60.5 463,-60.5 463,-72.5 463,-72.5 463,-78.5 457,-84.5 451,-84.5 451,-84.5 421,-84.5 421,-84.5 415,-84.5 409,-78.5 409,-72.5 409,-72.5 409,-60.5 409,-60.5 409,-54.5 415,-48.5 421,-48.5"/>
<text text-anchor="middle" x="436" y="-62.8" font-family="Arial" font-size="14.00" fill="#000000">port</text>
</g>
<!-- system_membus_slave&#45;&gt;system_cpu_itb_walker_port -->
<g id="edge5" class="edge">
<title>system_membus_slave&#45;&gt;system_cpu_itb_walker_port</title>
<path fill="none" stroke="#000000" d="M375.702,-245.4187C386.625,-240.1418 397.6314,-232.8486 405,-223 436.1951,-181.306 438.2909,-116.4486 437.2033,-84.9348"/>
<polygon fill="#000000" stroke="#000000" points="373.9879,-242.3477 366.2181,-249.5506 376.7838,-248.7651 373.9879,-242.3477"/>
</g>
</g>
</svg>
