<?xml version="1.0" encoding="utf-8" standalone="no"?>
<!DOCTYPE svg PUBLIC "-//W3C//DTD SVG 1.1//EN"
  "http://www.w3.org/Graphics/SVG/1.1/DTD/svg11.dtd">
<svg xmlns:xlink="http://www.w3.org/1999/xlink" width="466.712812pt" height="331.518125pt" viewBox="0 0 466.712812 331.518125" xmlns="http://www.w3.org/2000/svg" version="1.1">
 <metadata>
  <rdf:RDF xmlns:dc="http://purl.org/dc/elements/1.1/" xmlns:cc="http://creativecommons.org/ns#" xmlns:rdf="http://www.w3.org/1999/02/22-rdf-syntax-ns#">
   <cc:Work>
    <dc:type rdf:resource="http://purl.org/dc/dcmitype/StillImage"/>
    <dc:date>2024-07-04T15:27:37.887024</dc:date>
    <dc:format>image/svg+xml</dc:format>
    <dc:creator>
     <cc:Agent>
      <dc:title>Matplotlib v3.6.3, https://matplotlib.org/</dc:title>
     </cc:Agent>
    </dc:creator>
   </cc:Work>
  </rdf:RDF>
 </metadata>
 <defs>
  <style type="text/css">*{stroke-linejoin: round; stroke-linecap: butt}</style>
 </defs>
 <g id="figure_1">
  <g id="patch_1">
   <path d="M 0 331.518125 
L 466.712812 331.518125 
L 466.712812 0 
L 0 0 
z
" style="fill: #ffffff"/>
  </g>
  <g id="axes_1">
   <g id="patch_2">
    <path d="M 44.845313 119.576 
L 453.150312 119.576 
L 453.150312 57.384 
L 44.845313 57.384 
z
" style="fill: #ffffff"/>
   </g>
   <g id="matplotlib.axis_1">
    <g id="xtick_1">
     <g id="line2d_1">
      <path d="M 52.851293 119.576 
L 52.851293 57.384 
" clip-path="url(#pb936979478)" style="fill: none; stroke: #b0b0b0; stroke-width: 0.8; stroke-linecap: square"/>
     </g>
     <g id="line2d_2">
      <defs>
       <path id="m234e713217" d="M 0 0 
L 0 3.5 
" style="stroke: #000000; stroke-width: 0.8"/>
      </defs>
      <g>
       <use xlink:href="#m234e713217" x="52.851293" y="119.576" style="stroke: #000000; stroke-width: 0.8"/>
      </g>
     </g>
     <g id="text_1">
      <!-- 0 -->
      <g transform="translate(49.670043 134.174437) scale(0.1 -0.1)">
       <defs>
        <path id="DejaVuSans-30" d="M 2034 4250 
Q 1547 4250 1301 3770 
Q 1056 3291 1056 2328 
Q 1056 1369 1301 889 
Q 1547 409 2034 409 
Q 2525 409 2770 889 
Q 3016 1369 3016 2328 
Q 3016 3291 2770 3770 
Q 2525 4250 2034 4250 
z
M 2034 4750 
Q 2819 4750 3233 4129 
Q 3647 3509 3647 2328 
Q 3647 1150 3233 529 
Q 2819 -91 2034 -91 
Q 1250 -91 836 529 
Q 422 1150 422 2328 
Q 422 3509 836 4129 
Q 1250 4750 2034 4750 
z
" transform="scale(0.015625)"/>
       </defs>
       <use xlink:href="#DejaVuSans-30"/>
      </g>
     </g>
    </g>
    <g id="xtick_2">
     <g id="line2d_3">
      <path d="M 132.911097 119.576 
L 132.911097 57.384 
" clip-path="url(#pb936979478)" style="fill: none; stroke: #b0b0b0; stroke-width: 0.8; stroke-linecap: square"/>
     </g>
     <g id="line2d_4">
      <g>
       <use xlink:href="#m234e713217" x="132.911097" y="119.576" style="stroke: #000000; stroke-width: 0.8"/>
      </g>
     </g>
     <g id="text_2">
      <!-- 5 -->
      <g transform="translate(129.729847 134.174437) scale(0.1 -0.1)">
       <defs>
        <path id="DejaVuSans-35" d="M 691 4666 
L 3169 4666 
L 3169 4134 
L 1269 4134 
L 1269 2991 
Q 1406 3038 1543 3061 
Q 1681 3084 1819 3084 
Q 2600 3084 3056 2656 
Q 3513 2228 3513 1497 
Q 3513 744 3044 326 
Q 2575 -91 1722 -91 
Q 1428 -91 1123 -41 
Q 819 9 494 109 
L 494 744 
Q 775 591 1075 516 
Q 1375 441 1709 441 
Q 2250 441 2565 725 
Q 2881 1009 2881 1497 
Q 2881 1984 2565 2268 
Q 2250 2553 1709 2553 
Q 1456 2553 1204 2497 
Q 953 2441 691 2322 
L 691 4666 
z
" transform="scale(0.015625)"/>
       </defs>
       <use xlink:href="#DejaVuSans-35"/>
      </g>
     </g>
    </g>
    <g id="xtick_3">
     <g id="line2d_5">
      <path d="M 212.970901 119.576 
L 212.970901 57.384 
" clip-path="url(#pb936979478)" style="fill: none; stroke: #b0b0b0; stroke-width: 0.8; stroke-linecap: square"/>
     </g>
     <g id="line2d_6">
      <g>
       <use xlink:href="#m234e713217" x="212.970901" y="119.576" style="stroke: #000000; stroke-width: 0.8"/>
      </g>
     </g>
     <g id="text_3">
      <!-- 10 -->
      <g transform="translate(206.608401 134.174437) scale(0.1 -0.1)">
       <defs>
        <path id="DejaVuSans-31" d="M 794 531 
L 1825 531 
L 1825 4091 
L 703 3866 
L 703 4441 
L 1819 4666 
L 2450 4666 
L 2450 531 
L 3481 531 
L 3481 0 
L 794 0 
L 794 531 
z
" transform="scale(0.015625)"/>
       </defs>
       <use xlink:href="#DejaVuSans-31"/>
       <use xlink:href="#DejaVuSans-30" x="63.623047"/>
      </g>
     </g>
    </g>
    <g id="xtick_4">
     <g id="line2d_7">
      <path d="M 293.030705 119.576 
L 293.030705 57.384 
" clip-path="url(#pb936979478)" style="fill: none; stroke: #b0b0b0; stroke-width: 0.8; stroke-linecap: square"/>
     </g>
     <g id="line2d_8">
      <g>
       <use xlink:href="#m234e713217" x="293.030705" y="119.576" style="stroke: #000000; stroke-width: 0.8"/>
      </g>
     </g>
     <g id="text_4">
      <!-- 15 -->
      <g transform="translate(286.668205 134.174437) scale(0.1 -0.1)">
       <use xlink:href="#DejaVuSans-31"/>
       <use xlink:href="#DejaVuSans-35" x="63.623047"/>
      </g>
     </g>
    </g>
    <g id="xtick_5">
     <g id="line2d_9">
      <path d="M 373.090509 119.576 
L 373.090509 57.384 
" clip-path="url(#pb936979478)" style="fill: none; stroke: #b0b0b0; stroke-width: 0.8; stroke-linecap: square"/>
     </g>
     <g id="line2d_10">
      <g>
       <use xlink:href="#m234e713217" x="373.090509" y="119.576" style="stroke: #000000; stroke-width: 0.8"/>
      </g>
     </g>
     <g id="text_5">
      <!-- 20 -->
      <g transform="translate(366.728009 134.174437) scale(0.1 -0.1)">
       <defs>
        <path id="DejaVuSans-32" d="M 1228 531 
L 3431 531 
L 3431 0 
L 469 0 
L 469 531 
Q 828 903 1448 1529 
Q 2069 2156 2228 2338 
Q 2531 2678 2651 2914 
Q 2772 3150 2772 3378 
Q 2772 3750 2511 3984 
Q 2250 4219 1831 4219 
Q 1534 4219 1204 4116 
Q 875 4013 500 3803 
L 500 4441 
Q 881 4594 1212 4672 
Q 1544 4750 1819 4750 
Q 2544 4750 2975 4387 
Q 3406 4025 3406 3419 
Q 3406 3131 3298 2873 
Q 3191 2616 2906 2266 
Q 2828 2175 2409 1742 
Q 1991 1309 1228 531 
z
" transform="scale(0.015625)"/>
       </defs>
       <use xlink:href="#DejaVuSans-32"/>
       <use xlink:href="#DejaVuSans-30" x="63.623047"/>
      </g>
     </g>
    </g>
    <g id="xtick_6">
     <g id="line2d_11">
      <path d="M 453.150312 119.576 
L 453.150312 57.384 
" clip-path="url(#pb936979478)" style="fill: none; stroke: #b0b0b0; stroke-width: 0.8; stroke-linecap: square"/>
     </g>
     <g id="line2d_12">
      <g>
       <use xlink:href="#m234e713217" x="453.150312" y="119.576" style="stroke: #000000; stroke-width: 0.8"/>
      </g>
     </g>
     <g id="text_6">
      <!-- 25 -->
      <g transform="translate(446.787812 134.174437) scale(0.1 -0.1)">
       <use xlink:href="#DejaVuSans-32"/>
       <use xlink:href="#DejaVuSans-35" x="63.623047"/>
      </g>
     </g>
    </g>
   </g>
   <g id="matplotlib.axis_2">
    <g id="ytick_1">
     <g id="line2d_13">
      <path d="M 44.845313 115.133714 
L 453.150312 115.133714 
" clip-path="url(#pb936979478)" style="fill: none; stroke: #b0b0b0; stroke-width: 0.8; stroke-linecap: square"/>
     </g>
     <g id="line2d_14">
      <defs>
       <path id="mb1f15c0fd6" d="M 0 0 
L -3.5 0 
" style="stroke: #000000; stroke-width: 0.8"/>
      </defs>
      <g>
       <use xlink:href="#mb1f15c0fd6" x="44.845313" y="115.133714" style="stroke: #000000; stroke-width: 0.8"/>
      </g>
     </g>
     <g id="text_7">
      <!-- −3 -->
      <g transform="translate(23.103125 118.932933) scale(0.1 -0.1)">
       <defs>
        <path id="DejaVuSans-2212" d="M 678 2272 
L 4684 2272 
L 4684 1741 
L 678 1741 
L 678 2272 
z
" transform="scale(0.015625)"/>
        <path id="DejaVuSans-33" d="M 2597 2516 
Q 3050 2419 3304 2112 
Q 3559 1806 3559 1356 
Q 3559 666 3084 287 
Q 2609 -91 1734 -91 
Q 1441 -91 1130 -33 
Q 819 25 488 141 
L 488 750 
Q 750 597 1062 519 
Q 1375 441 1716 441 
Q 2309 441 2620 675 
Q 2931 909 2931 1356 
Q 2931 1769 2642 2001 
Q 2353 2234 1838 2234 
L 1294 2234 
L 1294 2753 
L 1863 2753 
Q 2328 2753 2575 2939 
Q 2822 3125 2822 3475 
Q 2822 3834 2567 4026 
Q 2313 4219 1838 4219 
Q 1578 4219 1281 4162 
Q 984 4106 628 3988 
L 628 4550 
Q 988 4650 1302 4700 
Q 1616 4750 1894 4750 
Q 2613 4750 3031 4423 
Q 3450 4097 3450 3541 
Q 3450 3153 3228 2886 
Q 3006 2619 2597 2516 
z
" transform="scale(0.015625)"/>
       </defs>
       <use xlink:href="#DejaVuSans-2212"/>
       <use xlink:href="#DejaVuSans-33" x="83.789062"/>
      </g>
     </g>
    </g>
    <g id="ytick_2">
     <g id="line2d_15">
      <path d="M 44.845313 88.48 
L 453.150312 88.48 
" clip-path="url(#pb936979478)" style="fill: none; stroke: #b0b0b0; stroke-width: 0.8; stroke-linecap: square"/>
     </g>
     <g id="line2d_16">
      <g>
       <use xlink:href="#mb1f15c0fd6" x="44.845313" y="88.48" style="stroke: #000000; stroke-width: 0.8"/>
      </g>
     </g>
     <g id="text_8">
      <!-- 0 -->
      <g transform="translate(31.482813 92.279219) scale(0.1 -0.1)">
       <use xlink:href="#DejaVuSans-30"/>
      </g>
     </g>
    </g>
    <g id="ytick_3">
     <g id="line2d_17">
      <path d="M 44.845313 61.826286 
L 453.150312 61.826286 
" clip-path="url(#pb936979478)" style="fill: none; stroke: #b0b0b0; stroke-width: 0.8; stroke-linecap: square"/>
     </g>
     <g id="line2d_18">
      <g>
       <use xlink:href="#mb1f15c0fd6" x="44.845313" y="61.826286" style="stroke: #000000; stroke-width: 0.8"/>
      </g>
     </g>
     <g id="text_9">
      <!-- 3 -->
      <g transform="translate(31.482813 65.625504) scale(0.1 -0.1)">
       <use xlink:href="#DejaVuSans-33"/>
      </g>
     </g>
    </g>
   </g>
   <g id="line2d_19">
    <defs>
     <path id="m1ea5ef3a73" d="M 0 1.5 
C 0.397805 1.5 0.77937 1.341951 1.06066 1.06066 
C 1.341951 0.77937 1.5 0.397805 1.5 0 
C 1.5 -0.397805 1.341951 -0.77937 1.06066 -1.06066 
C 0.77937 -1.341951 0.397805 -1.5 0 -1.5 
C -0.397805 -1.5 -0.77937 -1.341951 -1.06066 -1.06066 
C -1.341951 -0.77937 -1.5 -0.397805 -1.5 0 
C -1.5 0.397805 -1.341951 0.77937 -1.06066 1.06066 
C -0.77937 1.341951 -0.397805 1.5 0 1.5 
z
" style="stroke: #1f77b4"/>
    </defs>
    <g clip-path="url(#pb936979478)">
     <use xlink:href="#m1ea5ef3a73" x="52.851293" y="79.595429" style="fill: #1f77b4; stroke: #1f77b4"/>
     <use xlink:href="#m1ea5ef3a73" x="68.863254" y="79.300402" style="fill: #1f77b4; stroke: #1f77b4"/>
     <use xlink:href="#m1ea5ef3a73" x="84.875214" y="83.702517" style="fill: #1f77b4; stroke: #1f77b4"/>
     <use xlink:href="#m1ea5ef3a73" x="100.887175" y="85.130699" style="fill: #1f77b4; stroke: #1f77b4"/>
     <use xlink:href="#m1ea5ef3a73" x="116.899136" y="79.140255" style="fill: #1f77b4; stroke: #1f77b4"/>
     <use xlink:href="#m1ea5ef3a73" x="132.911097" y="68.835057" style="fill: #1f77b4; stroke: #1f77b4"/>
     <use xlink:href="#m1ea5ef3a73" x="148.923058" y="62.140474" style="fill: #1f77b4; stroke: #1f77b4"/>
     <use xlink:href="#m1ea5ef3a73" x="164.935018" y="64.549024" style="fill: #1f77b4; stroke: #1f77b4"/>
     <use xlink:href="#m1ea5ef3a73" x="180.946979" y="74.066802" style="fill: #1f77b4; stroke: #1f77b4"/>
     <use xlink:href="#m1ea5ef3a73" x="196.95894" y="83.049306" style="fill: #1f77b4; stroke: #1f77b4"/>
     <use xlink:href="#m1ea5ef3a73" x="212.970901" y="85.223329" style="fill: #1f77b4; stroke: #1f77b4"/>
     <use xlink:href="#m1ea5ef3a73" x="228.982862" y="81.380875" style="fill: #1f77b4; stroke: #1f77b4"/>
     <use xlink:href="#m1ea5ef3a73" x="244.994822" y="78.467327" style="fill: #1f77b4; stroke: #1f77b4"/>
     <use xlink:href="#m1ea5ef3a73" x="261.006783" y="82.921455" style="fill: #1f77b4; stroke: #1f77b4"/>
     <use xlink:href="#m1ea5ef3a73" x="277.018744" y="94.463391" style="fill: #1f77b4; stroke: #1f77b4"/>
     <use xlink:href="#m1ea5ef3a73" x="293.030705" y="106.112209" style="fill: #1f77b4; stroke: #1f77b4"/>
     <use xlink:href="#m1ea5ef3a73" x="309.042665" y="110.432025" style="fill: #1f77b4; stroke: #1f77b4"/>
     <use xlink:href="#m1ea5ef3a73" x="325.054626" y="106.222804" style="fill: #1f77b4; stroke: #1f77b4"/>
     <use xlink:href="#m1ea5ef3a73" x="341.066587" y="99.457829" style="fill: #1f77b4; stroke: #1f77b4"/>
     <use xlink:href="#m1ea5ef3a73" x="357.078548" y="97.608633" style="fill: #1f77b4; stroke: #1f77b4"/>
     <use xlink:href="#m1ea5ef3a73" x="373.090509" y="102.633976" style="fill: #1f77b4; stroke: #1f77b4"/>
     <use xlink:href="#m1ea5ef3a73" x="389.102469" y="109.146222" style="fill: #1f77b4; stroke: #1f77b4"/>
     <use xlink:href="#m1ea5ef3a73" x="405.11443" y="109.458329" style="fill: #1f77b4; stroke: #1f77b4"/>
     <use xlink:href="#m1ea5ef3a73" x="421.126391" y="100.823216" style="fill: #1f77b4; stroke: #1f77b4"/>
     <use xlink:href="#m1ea5ef3a73" x="437.138352" y="88.138415" style="fill: #1f77b4; stroke: #1f77b4"/>
    </g>
   </g>
   <g id="patch_3">
    <path d="M 44.845313 119.576 
L 44.845313 57.384 
" style="fill: none; stroke: #000000; stroke-width: 0.8; stroke-linejoin: miter; stroke-linecap: square"/>
   </g>
   <g id="patch_4">
    <path d="M 453.150312 119.576 
L 453.150312 57.384 
" style="fill: none; stroke: #000000; stroke-width: 0.8; stroke-linejoin: miter; stroke-linecap: square"/>
   </g>
   <g id="patch_5">
    <path d="M 44.845313 119.576 
L 453.150312 119.576 
" style="fill: none; stroke: #000000; stroke-width: 0.8; stroke-linejoin: miter; stroke-linecap: square"/>
   </g>
   <g id="patch_6">
    <path d="M 44.845313 57.384 
L 453.150312 57.384 
" style="fill: none; stroke: #000000; stroke-width: 0.8; stroke-linejoin: miter; stroke-linecap: square"/>
   </g>
   <g id="text_10">
    <!-- x(t) = 2 sin(2 $\pi$ t / 25) + cos(8 $\pi$ t / 25) -->
    <g transform="translate(132.777812 51.384) scale(0.12 -0.12)">
     <defs>
      <path id="DejaVuSans-78" d="M 3513 3500 
L 2247 1797 
L 3578 0 
L 2900 0 
L 1881 1375 
L 863 0 
L 184 0 
L 1544 1831 
L 300 3500 
L 978 3500 
L 1906 2253 
L 2834 3500 
L 3513 3500 
z
" transform="scale(0.015625)"/>
      <path id="DejaVuSans-28" d="M 1984 4856 
Q 1566 4138 1362 3434 
Q 1159 2731 1159 2009 
Q 1159 1288 1364 580 
Q 1569 -128 1984 -844 
L 1484 -844 
Q 1016 -109 783 600 
Q 550 1309 550 2009 
Q 550 2706 781 3412 
Q 1013 4119 1484 4856 
L 1984 4856 
z
" transform="scale(0.015625)"/>
      <path id="DejaVuSans-74" d="M 1172 4494 
L 1172 3500 
L 2356 3500 
L 2356 3053 
L 1172 3053 
L 1172 1153 
Q 1172 725 1289 603 
Q 1406 481 1766 481 
L 2356 481 
L 2356 0 
L 1766 0 
Q 1100 0 847 248 
Q 594 497 594 1153 
L 594 3053 
L 172 3053 
L 172 3500 
L 594 3500 
L 594 4494 
L 1172 4494 
z
" transform="scale(0.015625)"/>
      <path id="DejaVuSans-29" d="M 513 4856 
L 1013 4856 
Q 1481 4119 1714 3412 
Q 1947 2706 1947 2009 
Q 1947 1309 1714 600 
Q 1481 -109 1013 -844 
L 513 -844 
Q 928 -128 1133 580 
Q 1338 1288 1338 2009 
Q 1338 2731 1133 3434 
Q 928 4138 513 4856 
z
" transform="scale(0.015625)"/>
      <path id="DejaVuSans-20" transform="scale(0.015625)"/>
      <path id="DejaVuSans-3d" d="M 678 2906 
L 4684 2906 
L 4684 2381 
L 678 2381 
L 678 2906 
z
M 678 1631 
L 4684 1631 
L 4684 1100 
L 678 1100 
L 678 1631 
z
" transform="scale(0.015625)"/>
      <path id="DejaVuSans-73" d="M 2834 3397 
L 2834 2853 
Q 2591 2978 2328 3040 
Q 2066 3103 1784 3103 
Q 1356 3103 1142 2972 
Q 928 2841 928 2578 
Q 928 2378 1081 2264 
Q 1234 2150 1697 2047 
L 1894 2003 
Q 2506 1872 2764 1633 
Q 3022 1394 3022 966 
Q 3022 478 2636 193 
Q 2250 -91 1575 -91 
Q 1294 -91 989 -36 
Q 684 19 347 128 
L 347 722 
Q 666 556 975 473 
Q 1284 391 1588 391 
Q 1994 391 2212 530 
Q 2431 669 2431 922 
Q 2431 1156 2273 1281 
Q 2116 1406 1581 1522 
L 1381 1569 
Q 847 1681 609 1914 
Q 372 2147 372 2553 
Q 372 3047 722 3315 
Q 1072 3584 1716 3584 
Q 2034 3584 2315 3537 
Q 2597 3491 2834 3397 
z
" transform="scale(0.015625)"/>
      <path id="DejaVuSans-69" d="M 603 3500 
L 1178 3500 
L 1178 0 
L 603 0 
L 603 3500 
z
M 603 4863 
L 1178 4863 
L 1178 4134 
L 603 4134 
L 603 4863 
z
" transform="scale(0.015625)"/>
      <path id="DejaVuSans-6e" d="M 3513 2113 
L 3513 0 
L 2938 0 
L 2938 2094 
Q 2938 2591 2744 2837 
Q 2550 3084 2163 3084 
Q 1697 3084 1428 2787 
Q 1159 2491 1159 1978 
L 1159 0 
L 581 0 
L 581 3500 
L 1159 3500 
L 1159 2956 
Q 1366 3272 1645 3428 
Q 1925 3584 2291 3584 
Q 2894 3584 3203 3211 
Q 3513 2838 3513 2113 
z
" transform="scale(0.015625)"/>
      <path id="DejaVuSans-Oblique-3c0" d="M 584 3500 
L 3938 3500 
L 3825 2925 
L 3384 2925 
L 2966 775 
Q 2922 550 2981 450 
Q 3038 353 3209 353 
Q 3256 353 3325 363 
Q 3397 369 3419 372 
L 3338 -44 
Q 3222 -84 3103 -103 
Q 2981 -122 2866 -122 
Q 2491 -122 2388 81 
Q 2284 288 2391 838 
L 2797 2925 
L 1506 2925 
L 938 0 
L 350 0 
L 919 2925 
L 472 2925 
L 584 3500 
z
" transform="scale(0.015625)"/>
      <path id="DejaVuSans-2f" d="M 1625 4666 
L 2156 4666 
L 531 -594 
L 0 -594 
L 1625 4666 
z
" transform="scale(0.015625)"/>
      <path id="DejaVuSans-2b" d="M 2944 4013 
L 2944 2272 
L 4684 2272 
L 4684 1741 
L 2944 1741 
L 2944 0 
L 2419 0 
L 2419 1741 
L 678 1741 
L 678 2272 
L 2419 2272 
L 2419 4013 
L 2944 4013 
z
" transform="scale(0.015625)"/>
      <path id="DejaVuSans-63" d="M 3122 3366 
L 3122 2828 
Q 2878 2963 2633 3030 
Q 2388 3097 2138 3097 
Q 1578 3097 1268 2742 
Q 959 2388 959 1747 
Q 959 1106 1268 751 
Q 1578 397 2138 397 
Q 2388 397 2633 464 
Q 2878 531 3122 666 
L 3122 134 
Q 2881 22 2623 -34 
Q 2366 -91 2075 -91 
Q 1284 -91 818 406 
Q 353 903 353 1747 
Q 353 2603 823 3093 
Q 1294 3584 2113 3584 
Q 2378 3584 2631 3529 
Q 2884 3475 3122 3366 
z
" transform="scale(0.015625)"/>
      <path id="DejaVuSans-6f" d="M 1959 3097 
Q 1497 3097 1228 2736 
Q 959 2375 959 1747 
Q 959 1119 1226 758 
Q 1494 397 1959 397 
Q 2419 397 2687 759 
Q 2956 1122 2956 1747 
Q 2956 2369 2687 2733 
Q 2419 3097 1959 3097 
z
M 1959 3584 
Q 2709 3584 3137 3096 
Q 3566 2609 3566 1747 
Q 3566 888 3137 398 
Q 2709 -91 1959 -91 
Q 1206 -91 779 398 
Q 353 888 353 1747 
Q 353 2609 779 3096 
Q 1206 3584 1959 3584 
z
" transform="scale(0.015625)"/>
      <path id="DejaVuSans-38" d="M 2034 2216 
Q 1584 2216 1326 1975 
Q 1069 1734 1069 1313 
Q 1069 891 1326 650 
Q 1584 409 2034 409 
Q 2484 409 2743 651 
Q 3003 894 3003 1313 
Q 3003 1734 2745 1975 
Q 2488 2216 2034 2216 
z
M 1403 2484 
Q 997 2584 770 2862 
Q 544 3141 544 3541 
Q 544 4100 942 4425 
Q 1341 4750 2034 4750 
Q 2731 4750 3128 4425 
Q 3525 4100 3525 3541 
Q 3525 3141 3298 2862 
Q 3072 2584 2669 2484 
Q 3125 2378 3379 2068 
Q 3634 1759 3634 1313 
Q 3634 634 3220 271 
Q 2806 -91 2034 -91 
Q 1263 -91 848 271 
Q 434 634 434 1313 
Q 434 1759 690 2068 
Q 947 2378 1403 2484 
z
M 1172 3481 
Q 1172 3119 1398 2916 
Q 1625 2713 2034 2713 
Q 2441 2713 2670 2916 
Q 2900 3119 2900 3481 
Q 2900 3844 2670 4047 
Q 2441 4250 2034 4250 
Q 1625 4250 1398 4047 
Q 1172 3844 1172 3481 
z
" transform="scale(0.015625)"/>
     </defs>
     <use xlink:href="#DejaVuSans-78" transform="translate(0 0.015625)"/>
     <use xlink:href="#DejaVuSans-28" transform="translate(59.179688 0.015625)"/>
     <use xlink:href="#DejaVuSans-74" transform="translate(98.193359 0.015625)"/>
     <use xlink:href="#DejaVuSans-29" transform="translate(137.402344 0.015625)"/>
     <use xlink:href="#DejaVuSans-20" transform="translate(176.416016 0.015625)"/>
     <use xlink:href="#DejaVuSans-3d" transform="translate(208.203125 0.015625)"/>
     <use xlink:href="#DejaVuSans-20" transform="translate(291.992188 0.015625)"/>
     <use xlink:href="#DejaVuSans-32" transform="translate(323.779297 0.015625)"/>
     <use xlink:href="#DejaVuSans-20" transform="translate(387.402344 0.015625)"/>
     <use xlink:href="#DejaVuSans-73" transform="translate(419.189453 0.015625)"/>
     <use xlink:href="#DejaVuSans-69" transform="translate(471.289062 0.015625)"/>
     <use xlink:href="#DejaVuSans-6e" transform="translate(499.072266 0.015625)"/>
     <use xlink:href="#DejaVuSans-28" transform="translate(562.451172 0.015625)"/>
     <use xlink:href="#DejaVuSans-32" transform="translate(601.464844 0.015625)"/>
     <use xlink:href="#DejaVuSans-20" transform="translate(665.087891 0.015625)"/>
     <use xlink:href="#DejaVuSans-Oblique-3c0" transform="translate(696.875 0.015625)"/>
     <use xlink:href="#DejaVuSans-20" transform="translate(757.080078 0.015625)"/>
     <use xlink:href="#DejaVuSans-74" transform="translate(788.867188 0.015625)"/>
     <use xlink:href="#DejaVuSans-20" transform="translate(828.076172 0.015625)"/>
     <use xlink:href="#DejaVuSans-2f" transform="translate(859.863281 0.015625)"/>
     <use xlink:href="#DejaVuSans-20" transform="translate(893.554688 0.015625)"/>
     <use xlink:href="#DejaVuSans-32" transform="translate(925.341797 0.015625)"/>
     <use xlink:href="#DejaVuSans-35" transform="translate(988.964844 0.015625)"/>
     <use xlink:href="#DejaVuSans-29" transform="translate(1052.587891 0.015625)"/>
     <use xlink:href="#DejaVuSans-20" transform="translate(1091.601562 0.015625)"/>
     <use xlink:href="#DejaVuSans-2b" transform="translate(1123.388672 0.015625)"/>
     <use xlink:href="#DejaVuSans-20" transform="translate(1207.177734 0.015625)"/>
     <use xlink:href="#DejaVuSans-63" transform="translate(1238.964844 0.015625)"/>
     <use xlink:href="#DejaVuSans-6f" transform="translate(1293.945312 0.015625)"/>
     <use xlink:href="#DejaVuSans-73" transform="translate(1355.126953 0.015625)"/>
     <use xlink:href="#DejaVuSans-28" transform="translate(1407.226562 0.015625)"/>
     <use xlink:href="#DejaVuSans-38" transform="translate(1446.240234 0.015625)"/>
     <use xlink:href="#DejaVuSans-20" transform="translate(1509.863281 0.015625)"/>
     <use xlink:href="#DejaVuSans-Oblique-3c0" transform="translate(1541.650391 0.015625)"/>
     <use xlink:href="#DejaVuSans-20" transform="translate(1601.855469 0.015625)"/>
     <use xlink:href="#DejaVuSans-74" transform="translate(1633.642578 0.015625)"/>
     <use xlink:href="#DejaVuSans-20" transform="translate(1672.851562 0.015625)"/>
     <use xlink:href="#DejaVuSans-2f" transform="translate(1704.638672 0.015625)"/>
     <use xlink:href="#DejaVuSans-20" transform="translate(1738.330078 0.015625)"/>
     <use xlink:href="#DejaVuSans-32" transform="translate(1770.117188 0.015625)"/>
     <use xlink:href="#DejaVuSans-35" transform="translate(1833.740234 0.015625)"/>
     <use xlink:href="#DejaVuSans-29" transform="translate(1897.363281 0.015625)"/>
    </g>
   </g>
  </g>
  <g id="axes_2">
   <g id="patch_7">
    <path d="M 44.845313 213.608 
L 453.150312 213.608 
L 453.150312 151.416 
L 44.845313 151.416 
z
" style="fill: #ffffff"/>
   </g>
   <g id="matplotlib.axis_3">
    <g id="xtick_7">
     <g id="line2d_20">
      <path d="M 52.851293 213.608 
L 52.851293 151.416 
" clip-path="url(#p785b413182)" style="fill: none; stroke: #b0b0b0; stroke-width: 0.8; stroke-linecap: square"/>
     </g>
     <g id="line2d_21">
      <g>
       <use xlink:href="#m234e713217" x="52.851293" y="213.608" style="stroke: #000000; stroke-width: 0.8"/>
      </g>
     </g>
     <g id="text_11">
      <!-- 0 -->
      <g transform="translate(49.670043 228.206437) scale(0.1 -0.1)">
       <use xlink:href="#DejaVuSans-30"/>
      </g>
     </g>
    </g>
    <g id="xtick_8">
     <g id="line2d_22">
      <path d="M 132.911097 213.608 
L 132.911097 151.416 
" clip-path="url(#p785b413182)" style="fill: none; stroke: #b0b0b0; stroke-width: 0.8; stroke-linecap: square"/>
     </g>
     <g id="line2d_23">
      <g>
       <use xlink:href="#m234e713217" x="132.911097" y="213.608" style="stroke: #000000; stroke-width: 0.8"/>
      </g>
     </g>
     <g id="text_12">
      <!-- 5 -->
      <g transform="translate(129.729847 228.206437) scale(0.1 -0.1)">
       <use xlink:href="#DejaVuSans-35"/>
      </g>
     </g>
    </g>
    <g id="xtick_9">
     <g id="line2d_24">
      <path d="M 212.970901 213.608 
L 212.970901 151.416 
" clip-path="url(#p785b413182)" style="fill: none; stroke: #b0b0b0; stroke-width: 0.8; stroke-linecap: square"/>
     </g>
     <g id="line2d_25">
      <g>
       <use xlink:href="#m234e713217" x="212.970901" y="213.608" style="stroke: #000000; stroke-width: 0.8"/>
      </g>
     </g>
     <g id="text_13">
      <!-- 10 -->
      <g transform="translate(206.608401 228.206437) scale(0.1 -0.1)">
       <use xlink:href="#DejaVuSans-31"/>
       <use xlink:href="#DejaVuSans-30" x="63.623047"/>
      </g>
     </g>
    </g>
    <g id="xtick_10">
     <g id="line2d_26">
      <path d="M 293.030705 213.608 
L 293.030705 151.416 
" clip-path="url(#p785b413182)" style="fill: none; stroke: #b0b0b0; stroke-width: 0.8; stroke-linecap: square"/>
     </g>
     <g id="line2d_27">
      <g>
       <use xlink:href="#m234e713217" x="293.030705" y="213.608" style="stroke: #000000; stroke-width: 0.8"/>
      </g>
     </g>
     <g id="text_14">
      <!-- 15 -->
      <g transform="translate(286.668205 228.206437) scale(0.1 -0.1)">
       <use xlink:href="#DejaVuSans-31"/>
       <use xlink:href="#DejaVuSans-35" x="63.623047"/>
      </g>
     </g>
    </g>
    <g id="xtick_11">
     <g id="line2d_28">
      <path d="M 373.090509 213.608 
L 373.090509 151.416 
" clip-path="url(#p785b413182)" style="fill: none; stroke: #b0b0b0; stroke-width: 0.8; stroke-linecap: square"/>
     </g>
     <g id="line2d_29">
      <g>
       <use xlink:href="#m234e713217" x="373.090509" y="213.608" style="stroke: #000000; stroke-width: 0.8"/>
      </g>
     </g>
     <g id="text_15">
      <!-- 20 -->
      <g transform="translate(366.728009 228.206437) scale(0.1 -0.1)">
       <use xlink:href="#DejaVuSans-32"/>
       <use xlink:href="#DejaVuSans-30" x="63.623047"/>
      </g>
     </g>
    </g>
    <g id="xtick_12">
     <g id="line2d_30">
      <path d="M 453.150312 213.608 
L 453.150312 151.416 
" clip-path="url(#p785b413182)" style="fill: none; stroke: #b0b0b0; stroke-width: 0.8; stroke-linecap: square"/>
     </g>
     <g id="line2d_31">
      <g>
       <use xlink:href="#m234e713217" x="453.150312" y="213.608" style="stroke: #000000; stroke-width: 0.8"/>
      </g>
     </g>
     <g id="text_16">
      <!-- 25 -->
      <g transform="translate(446.787812 228.206437) scale(0.1 -0.1)">
       <use xlink:href="#DejaVuSans-32"/>
       <use xlink:href="#DejaVuSans-35" x="63.623047"/>
      </g>
     </g>
    </g>
   </g>
   <g id="matplotlib.axis_4">
    <g id="ytick_4">
     <g id="line2d_32">
      <path d="M 44.845313 208.425333 
L 453.150312 208.425333 
" clip-path="url(#p785b413182)" style="fill: none; stroke: #b0b0b0; stroke-width: 0.8; stroke-linecap: square"/>
     </g>
     <g id="line2d_33">
      <g>
       <use xlink:href="#mb1f15c0fd6" x="44.845313" y="208.425333" style="stroke: #000000; stroke-width: 0.8"/>
      </g>
     </g>
     <g id="text_17">
      <!-- −25.0 -->
      <g transform="translate(7.2 212.224552) scale(0.1 -0.1)">
       <defs>
        <path id="DejaVuSans-2e" d="M 684 794 
L 1344 794 
L 1344 0 
L 684 0 
L 684 794 
z
" transform="scale(0.015625)"/>
       </defs>
       <use xlink:href="#DejaVuSans-2212"/>
       <use xlink:href="#DejaVuSans-32" x="83.789062"/>
       <use xlink:href="#DejaVuSans-35" x="147.412109"/>
       <use xlink:href="#DejaVuSans-2e" x="211.035156"/>
       <use xlink:href="#DejaVuSans-30" x="242.822266"/>
      </g>
     </g>
    </g>
    <g id="ytick_5">
     <g id="line2d_34">
      <path d="M 44.845313 195.468667 
L 453.150312 195.468667 
" clip-path="url(#p785b413182)" style="fill: none; stroke: #b0b0b0; stroke-width: 0.8; stroke-linecap: square"/>
     </g>
     <g id="line2d_35">
      <g>
       <use xlink:href="#mb1f15c0fd6" x="44.845313" y="195.468667" style="stroke: #000000; stroke-width: 0.8"/>
      </g>
     </g>
     <g id="text_18">
      <!-- −12.5 -->
      <g transform="translate(7.2 199.267885) scale(0.1 -0.1)">
       <use xlink:href="#DejaVuSans-2212"/>
       <use xlink:href="#DejaVuSans-31" x="83.789062"/>
       <use xlink:href="#DejaVuSans-32" x="147.412109"/>
       <use xlink:href="#DejaVuSans-2e" x="211.035156"/>
       <use xlink:href="#DejaVuSans-35" x="242.822266"/>
      </g>
     </g>
    </g>
    <g id="ytick_6">
     <g id="line2d_36">
      <path d="M 44.845313 182.512 
L 453.150312 182.512 
" clip-path="url(#p785b413182)" style="fill: none; stroke: #b0b0b0; stroke-width: 0.8; stroke-linecap: square"/>
     </g>
     <g id="line2d_37">
      <g>
       <use xlink:href="#mb1f15c0fd6" x="44.845313" y="182.512" style="stroke: #000000; stroke-width: 0.8"/>
      </g>
     </g>
     <g id="text_19">
      <!-- 0.0 -->
      <g transform="translate(21.942188 186.311219) scale(0.1 -0.1)">
       <use xlink:href="#DejaVuSans-30"/>
       <use xlink:href="#DejaVuSans-2e" x="63.623047"/>
       <use xlink:href="#DejaVuSans-30" x="95.410156"/>
      </g>
     </g>
    </g>
    <g id="ytick_7">
     <g id="line2d_38">
      <path d="M 44.845313 169.555333 
L 453.150312 169.555333 
" clip-path="url(#p785b413182)" style="fill: none; stroke: #b0b0b0; stroke-width: 0.8; stroke-linecap: square"/>
     </g>
     <g id="line2d_39">
      <g>
       <use xlink:href="#mb1f15c0fd6" x="44.845313" y="169.555333" style="stroke: #000000; stroke-width: 0.8"/>
      </g>
     </g>
     <g id="text_20">
      <!-- 12.5 -->
      <g transform="translate(15.579688 173.354552) scale(0.1 -0.1)">
       <use xlink:href="#DejaVuSans-31"/>
       <use xlink:href="#DejaVuSans-32" x="63.623047"/>
       <use xlink:href="#DejaVuSans-2e" x="127.246094"/>
       <use xlink:href="#DejaVuSans-35" x="159.033203"/>
      </g>
     </g>
    </g>
    <g id="ytick_8">
     <g id="line2d_40">
      <path d="M 44.845313 156.598667 
L 453.150312 156.598667 
" clip-path="url(#p785b413182)" style="fill: none; stroke: #b0b0b0; stroke-width: 0.8; stroke-linecap: square"/>
     </g>
     <g id="line2d_41">
      <g>
       <use xlink:href="#mb1f15c0fd6" x="44.845313" y="156.598667" style="stroke: #000000; stroke-width: 0.8"/>
      </g>
     </g>
     <g id="text_21">
      <!-- 25.0 -->
      <g transform="translate(15.579688 160.397885) scale(0.1 -0.1)">
       <use xlink:href="#DejaVuSans-32"/>
       <use xlink:href="#DejaVuSans-35" x="63.623047"/>
       <use xlink:href="#DejaVuSans-2e" x="127.246094"/>
       <use xlink:href="#DejaVuSans-30" x="159.033203"/>
      </g>
     </g>
    </g>
   </g>
   <g id="line2d_42">
    <g clip-path="url(#p785b413182)">
     <use xlink:href="#m1ea5ef3a73" x="52.851293" y="182.512" style="fill: #1f77b4; stroke: #1f77b4"/>
     <use xlink:href="#m1ea5ef3a73" x="68.863254" y="182.512" style="fill: #1f77b4; stroke: #1f77b4"/>
     <use xlink:href="#m1ea5ef3a73" x="84.875214" y="182.512" style="fill: #1f77b4; stroke: #1f77b4"/>
     <use xlink:href="#m1ea5ef3a73" x="100.887175" y="182.512" style="fill: #1f77b4; stroke: #1f77b4"/>
     <use xlink:href="#m1ea5ef3a73" x="116.899136" y="169.555333" style="fill: #1f77b4; stroke: #1f77b4"/>
     <use xlink:href="#m1ea5ef3a73" x="132.911097" y="182.512" style="fill: #1f77b4; stroke: #1f77b4"/>
     <use xlink:href="#m1ea5ef3a73" x="148.923058" y="182.512" style="fill: #1f77b4; stroke: #1f77b4"/>
     <use xlink:href="#m1ea5ef3a73" x="164.935018" y="182.512" style="fill: #1f77b4; stroke: #1f77b4"/>
     <use xlink:href="#m1ea5ef3a73" x="180.946979" y="182.512" style="fill: #1f77b4; stroke: #1f77b4"/>
     <use xlink:href="#m1ea5ef3a73" x="196.95894" y="182.512" style="fill: #1f77b4; stroke: #1f77b4"/>
     <use xlink:href="#m1ea5ef3a73" x="212.970901" y="182.512" style="fill: #1f77b4; stroke: #1f77b4"/>
     <use xlink:href="#m1ea5ef3a73" x="228.982862" y="182.512" style="fill: #1f77b4; stroke: #1f77b4"/>
     <use xlink:href="#m1ea5ef3a73" x="244.994822" y="182.512" style="fill: #1f77b4; stroke: #1f77b4"/>
     <use xlink:href="#m1ea5ef3a73" x="261.006783" y="182.512" style="fill: #1f77b4; stroke: #1f77b4"/>
     <use xlink:href="#m1ea5ef3a73" x="277.018744" y="182.512" style="fill: #1f77b4; stroke: #1f77b4"/>
     <use xlink:href="#m1ea5ef3a73" x="293.030705" y="182.512" style="fill: #1f77b4; stroke: #1f77b4"/>
     <use xlink:href="#m1ea5ef3a73" x="309.042665" y="182.512" style="fill: #1f77b4; stroke: #1f77b4"/>
     <use xlink:href="#m1ea5ef3a73" x="325.054626" y="182.512" style="fill: #1f77b4; stroke: #1f77b4"/>
     <use xlink:href="#m1ea5ef3a73" x="341.066587" y="182.512" style="fill: #1f77b4; stroke: #1f77b4"/>
     <use xlink:href="#m1ea5ef3a73" x="357.078548" y="182.512" style="fill: #1f77b4; stroke: #1f77b4"/>
     <use xlink:href="#m1ea5ef3a73" x="373.090509" y="182.512" style="fill: #1f77b4; stroke: #1f77b4"/>
     <use xlink:href="#m1ea5ef3a73" x="389.102469" y="169.555333" style="fill: #1f77b4; stroke: #1f77b4"/>
     <use xlink:href="#m1ea5ef3a73" x="405.11443" y="182.512" style="fill: #1f77b4; stroke: #1f77b4"/>
     <use xlink:href="#m1ea5ef3a73" x="421.126391" y="182.512" style="fill: #1f77b4; stroke: #1f77b4"/>
     <use xlink:href="#m1ea5ef3a73" x="437.138352" y="182.512" style="fill: #1f77b4; stroke: #1f77b4"/>
    </g>
   </g>
   <g id="patch_8">
    <path d="M 44.845313 213.608 
L 44.845313 151.416 
" style="fill: none; stroke: #000000; stroke-width: 0.8; stroke-linejoin: miter; stroke-linecap: square"/>
   </g>
   <g id="patch_9">
    <path d="M 453.150312 213.608 
L 453.150312 151.416 
" style="fill: none; stroke: #000000; stroke-width: 0.8; stroke-linejoin: miter; stroke-linecap: square"/>
   </g>
   <g id="patch_10">
    <path d="M 44.845313 213.608 
L 453.150312 213.608 
" style="fill: none; stroke: #000000; stroke-width: 0.8; stroke-linejoin: miter; stroke-linecap: square"/>
   </g>
   <g id="patch_11">
    <path d="M 44.845313 151.416 
L 453.150312 151.416 
" style="fill: none; stroke: #000000; stroke-width: 0.8; stroke-linejoin: miter; stroke-linecap: square"/>
   </g>
   <g id="text_22">
    <!-- Re(X(t)) -->
    <g transform="translate(225.580937 145.416) scale(0.12 -0.12)">
     <defs>
      <path id="DejaVuSans-52" d="M 2841 2188 
Q 3044 2119 3236 1894 
Q 3428 1669 3622 1275 
L 4263 0 
L 3584 0 
L 2988 1197 
Q 2756 1666 2539 1819 
Q 2322 1972 1947 1972 
L 1259 1972 
L 1259 0 
L 628 0 
L 628 4666 
L 2053 4666 
Q 2853 4666 3247 4331 
Q 3641 3997 3641 3322 
Q 3641 2881 3436 2590 
Q 3231 2300 2841 2188 
z
M 1259 4147 
L 1259 2491 
L 2053 2491 
Q 2509 2491 2742 2702 
Q 2975 2913 2975 3322 
Q 2975 3731 2742 3939 
Q 2509 4147 2053 4147 
L 1259 4147 
z
" transform="scale(0.015625)"/>
      <path id="DejaVuSans-65" d="M 3597 1894 
L 3597 1613 
L 953 1613 
Q 991 1019 1311 708 
Q 1631 397 2203 397 
Q 2534 397 2845 478 
Q 3156 559 3463 722 
L 3463 178 
Q 3153 47 2828 -22 
Q 2503 -91 2169 -91 
Q 1331 -91 842 396 
Q 353 884 353 1716 
Q 353 2575 817 3079 
Q 1281 3584 2069 3584 
Q 2775 3584 3186 3129 
Q 3597 2675 3597 1894 
z
M 3022 2063 
Q 3016 2534 2758 2815 
Q 2500 3097 2075 3097 
Q 1594 3097 1305 2825 
Q 1016 2553 972 2059 
L 3022 2063 
z
" transform="scale(0.015625)"/>
      <path id="DejaVuSans-58" d="M 403 4666 
L 1081 4666 
L 2241 2931 
L 3406 4666 
L 4084 4666 
L 2584 2425 
L 4184 0 
L 3506 0 
L 2194 1984 
L 872 0 
L 191 0 
L 1856 2491 
L 403 4666 
z
" transform="scale(0.015625)"/>
     </defs>
     <use xlink:href="#DejaVuSans-52"/>
     <use xlink:href="#DejaVuSans-65" x="64.982422"/>
     <use xlink:href="#DejaVuSans-28" x="126.505859"/>
     <use xlink:href="#DejaVuSans-58" x="165.519531"/>
     <use xlink:href="#DejaVuSans-28" x="234.025391"/>
     <use xlink:href="#DejaVuSans-74" x="273.039062"/>
     <use xlink:href="#DejaVuSans-29" x="312.248047"/>
     <use xlink:href="#DejaVuSans-29" x="351.261719"/>
    </g>
   </g>
  </g>
  <g id="axes_3">
   <g id="patch_12">
    <path d="M 44.845313 307.64 
L 453.150312 307.64 
L 453.150312 245.448 
L 44.845313 245.448 
z
" style="fill: #ffffff"/>
   </g>
   <g id="matplotlib.axis_5">
    <g id="xtick_13">
     <g id="line2d_43">
      <path d="M 52.851293 307.64 
L 52.851293 245.448 
" clip-path="url(#p5aaf53b6f0)" style="fill: none; stroke: #b0b0b0; stroke-width: 0.8; stroke-linecap: square"/>
     </g>
     <g id="line2d_44">
      <g>
       <use xlink:href="#m234e713217" x="52.851293" y="307.64" style="stroke: #000000; stroke-width: 0.8"/>
      </g>
     </g>
     <g id="text_23">
      <!-- 0 -->
      <g transform="translate(49.670043 322.238437) scale(0.1 -0.1)">
       <use xlink:href="#DejaVuSans-30"/>
      </g>
     </g>
    </g>
    <g id="xtick_14">
     <g id="line2d_45">
      <path d="M 132.911097 307.64 
L 132.911097 245.448 
" clip-path="url(#p5aaf53b6f0)" style="fill: none; stroke: #b0b0b0; stroke-width: 0.8; stroke-linecap: square"/>
     </g>
     <g id="line2d_46">
      <g>
       <use xlink:href="#m234e713217" x="132.911097" y="307.64" style="stroke: #000000; stroke-width: 0.8"/>
      </g>
     </g>
     <g id="text_24">
      <!-- 5 -->
      <g transform="translate(129.729847 322.238437) scale(0.1 -0.1)">
       <use xlink:href="#DejaVuSans-35"/>
      </g>
     </g>
    </g>
    <g id="xtick_15">
     <g id="line2d_47">
      <path d="M 212.970901 307.64 
L 212.970901 245.448 
" clip-path="url(#p5aaf53b6f0)" style="fill: none; stroke: #b0b0b0; stroke-width: 0.8; stroke-linecap: square"/>
     </g>
     <g id="line2d_48">
      <g>
       <use xlink:href="#m234e713217" x="212.970901" y="307.64" style="stroke: #000000; stroke-width: 0.8"/>
      </g>
     </g>
     <g id="text_25">
      <!-- 10 -->
      <g transform="translate(206.608401 322.238437) scale(0.1 -0.1)">
       <use xlink:href="#DejaVuSans-31"/>
       <use xlink:href="#DejaVuSans-30" x="63.623047"/>
      </g>
     </g>
    </g>
    <g id="xtick_16">
     <g id="line2d_49">
      <path d="M 293.030705 307.64 
L 293.030705 245.448 
" clip-path="url(#p5aaf53b6f0)" style="fill: none; stroke: #b0b0b0; stroke-width: 0.8; stroke-linecap: square"/>
     </g>
     <g id="line2d_50">
      <g>
       <use xlink:href="#m234e713217" x="293.030705" y="307.64" style="stroke: #000000; stroke-width: 0.8"/>
      </g>
     </g>
     <g id="text_26">
      <!-- 15 -->
      <g transform="translate(286.668205 322.238437) scale(0.1 -0.1)">
       <use xlink:href="#DejaVuSans-31"/>
       <use xlink:href="#DejaVuSans-35" x="63.623047"/>
      </g>
     </g>
    </g>
    <g id="xtick_17">
     <g id="line2d_51">
      <path d="M 373.090509 307.64 
L 373.090509 245.448 
" clip-path="url(#p5aaf53b6f0)" style="fill: none; stroke: #b0b0b0; stroke-width: 0.8; stroke-linecap: square"/>
     </g>
     <g id="line2d_52">
      <g>
       <use xlink:href="#m234e713217" x="373.090509" y="307.64" style="stroke: #000000; stroke-width: 0.8"/>
      </g>
     </g>
     <g id="text_27">
      <!-- 20 -->
      <g transform="translate(366.728009 322.238437) scale(0.1 -0.1)">
       <use xlink:href="#DejaVuSans-32"/>
       <use xlink:href="#DejaVuSans-30" x="63.623047"/>
      </g>
     </g>
    </g>
    <g id="xtick_18">
     <g id="line2d_53">
      <path d="M 453.150312 307.64 
L 453.150312 245.448 
" clip-path="url(#p5aaf53b6f0)" style="fill: none; stroke: #b0b0b0; stroke-width: 0.8; stroke-linecap: square"/>
     </g>
     <g id="line2d_54">
      <g>
       <use xlink:href="#m234e713217" x="453.150312" y="307.64" style="stroke: #000000; stroke-width: 0.8"/>
      </g>
     </g>
     <g id="text_28">
      <!-- 25 -->
      <g transform="translate(446.787812 322.238437) scale(0.1 -0.1)">
       <use xlink:href="#DejaVuSans-32"/>
       <use xlink:href="#DejaVuSans-35" x="63.623047"/>
      </g>
     </g>
    </g>
   </g>
   <g id="matplotlib.axis_6">
    <g id="ytick_9">
     <g id="line2d_55">
      <path d="M 44.845313 302.457333 
L 453.150312 302.457333 
" clip-path="url(#p5aaf53b6f0)" style="fill: none; stroke: #b0b0b0; stroke-width: 0.8; stroke-linecap: square"/>
     </g>
     <g id="line2d_56">
      <g>
       <use xlink:href="#mb1f15c0fd6" x="44.845313" y="302.457333" style="stroke: #000000; stroke-width: 0.8"/>
      </g>
     </g>
     <g id="text_29">
      <!-- −25.0 -->
      <g transform="translate(7.2 306.256552) scale(0.1 -0.1)">
       <use xlink:href="#DejaVuSans-2212"/>
       <use xlink:href="#DejaVuSans-32" x="83.789062"/>
       <use xlink:href="#DejaVuSans-35" x="147.412109"/>
       <use xlink:href="#DejaVuSans-2e" x="211.035156"/>
       <use xlink:href="#DejaVuSans-30" x="242.822266"/>
      </g>
     </g>
    </g>
    <g id="ytick_10">
     <g id="line2d_57">
      <path d="M 44.845313 289.500667 
L 453.150312 289.500667 
" clip-path="url(#p5aaf53b6f0)" style="fill: none; stroke: #b0b0b0; stroke-width: 0.8; stroke-linecap: square"/>
     </g>
     <g id="line2d_58">
      <g>
       <use xlink:href="#mb1f15c0fd6" x="44.845313" y="289.500667" style="stroke: #000000; stroke-width: 0.8"/>
      </g>
     </g>
     <g id="text_30">
      <!-- −12.5 -->
      <g transform="translate(7.2 293.299885) scale(0.1 -0.1)">
       <use xlink:href="#DejaVuSans-2212"/>
       <use xlink:href="#DejaVuSans-31" x="83.789062"/>
       <use xlink:href="#DejaVuSans-32" x="147.412109"/>
       <use xlink:href="#DejaVuSans-2e" x="211.035156"/>
       <use xlink:href="#DejaVuSans-35" x="242.822266"/>
      </g>
     </g>
    </g>
    <g id="ytick_11">
     <g id="line2d_59">
      <path d="M 44.845313 276.544 
L 453.150312 276.544 
" clip-path="url(#p5aaf53b6f0)" style="fill: none; stroke: #b0b0b0; stroke-width: 0.8; stroke-linecap: square"/>
     </g>
     <g id="line2d_60">
      <g>
       <use xlink:href="#mb1f15c0fd6" x="44.845313" y="276.544" style="stroke: #000000; stroke-width: 0.8"/>
      </g>
     </g>
     <g id="text_31">
      <!-- 0.0 -->
      <g transform="translate(21.942188 280.343219) scale(0.1 -0.1)">
       <use xlink:href="#DejaVuSans-30"/>
       <use xlink:href="#DejaVuSans-2e" x="63.623047"/>
       <use xlink:href="#DejaVuSans-30" x="95.410156"/>
      </g>
     </g>
    </g>
    <g id="ytick_12">
     <g id="line2d_61">
      <path d="M 44.845313 263.587333 
L 453.150312 263.587333 
" clip-path="url(#p5aaf53b6f0)" style="fill: none; stroke: #b0b0b0; stroke-width: 0.8; stroke-linecap: square"/>
     </g>
     <g id="line2d_62">
      <g>
       <use xlink:href="#mb1f15c0fd6" x="44.845313" y="263.587333" style="stroke: #000000; stroke-width: 0.8"/>
      </g>
     </g>
     <g id="text_32">
      <!-- 12.5 -->
      <g transform="translate(15.579688 267.386552) scale(0.1 -0.1)">
       <use xlink:href="#DejaVuSans-31"/>
       <use xlink:href="#DejaVuSans-32" x="63.623047"/>
       <use xlink:href="#DejaVuSans-2e" x="127.246094"/>
       <use xlink:href="#DejaVuSans-35" x="159.033203"/>
      </g>
     </g>
    </g>
    <g id="ytick_13">
     <g id="line2d_63">
      <path d="M 44.845313 250.630667 
L 453.150312 250.630667 
" clip-path="url(#p5aaf53b6f0)" style="fill: none; stroke: #b0b0b0; stroke-width: 0.8; stroke-linecap: square"/>
     </g>
     <g id="line2d_64">
      <g>
       <use xlink:href="#mb1f15c0fd6" x="44.845313" y="250.630667" style="stroke: #000000; stroke-width: 0.8"/>
      </g>
     </g>
     <g id="text_33">
      <!-- 25.0 -->
      <g transform="translate(15.579688 254.429885) scale(0.1 -0.1)">
       <use xlink:href="#DejaVuSans-32"/>
       <use xlink:href="#DejaVuSans-35" x="63.623047"/>
       <use xlink:href="#DejaVuSans-2e" x="127.246094"/>
       <use xlink:href="#DejaVuSans-30" x="159.033203"/>
      </g>
     </g>
    </g>
   </g>
   <g id="line2d_65">
    <g clip-path="url(#p5aaf53b6f0)">
     <use xlink:href="#m1ea5ef3a73" x="52.851293" y="276.544" style="fill: #1f77b4; stroke: #1f77b4"/>
     <use xlink:href="#m1ea5ef3a73" x="68.863254" y="302.457333" style="fill: #1f77b4; stroke: #1f77b4"/>
     <use xlink:href="#m1ea5ef3a73" x="84.875214" y="276.544" style="fill: #1f77b4; stroke: #1f77b4"/>
     <use xlink:href="#m1ea5ef3a73" x="100.887175" y="276.544" style="fill: #1f77b4; stroke: #1f77b4"/>
     <use xlink:href="#m1ea5ef3a73" x="116.899136" y="276.544" style="fill: #1f77b4; stroke: #1f77b4"/>
     <use xlink:href="#m1ea5ef3a73" x="132.911097" y="276.544" style="fill: #1f77b4; stroke: #1f77b4"/>
     <use xlink:href="#m1ea5ef3a73" x="148.923058" y="276.544" style="fill: #1f77b4; stroke: #1f77b4"/>
     <use xlink:href="#m1ea5ef3a73" x="164.935018" y="276.544" style="fill: #1f77b4; stroke: #1f77b4"/>
     <use xlink:href="#m1ea5ef3a73" x="180.946979" y="276.544" style="fill: #1f77b4; stroke: #1f77b4"/>
     <use xlink:href="#m1ea5ef3a73" x="196.95894" y="276.544" style="fill: #1f77b4; stroke: #1f77b4"/>
     <use xlink:href="#m1ea5ef3a73" x="212.970901" y="276.544" style="fill: #1f77b4; stroke: #1f77b4"/>
     <use xlink:href="#m1ea5ef3a73" x="228.982862" y="276.544" style="fill: #1f77b4; stroke: #1f77b4"/>
     <use xlink:href="#m1ea5ef3a73" x="244.994822" y="276.544" style="fill: #1f77b4; stroke: #1f77b4"/>
     <use xlink:href="#m1ea5ef3a73" x="261.006783" y="276.544" style="fill: #1f77b4; stroke: #1f77b4"/>
     <use xlink:href="#m1ea5ef3a73" x="277.018744" y="276.544" style="fill: #1f77b4; stroke: #1f77b4"/>
     <use xlink:href="#m1ea5ef3a73" x="293.030705" y="276.544" style="fill: #1f77b4; stroke: #1f77b4"/>
     <use xlink:href="#m1ea5ef3a73" x="309.042665" y="276.544" style="fill: #1f77b4; stroke: #1f77b4"/>
     <use xlink:href="#m1ea5ef3a73" x="325.054626" y="276.544" style="fill: #1f77b4; stroke: #1f77b4"/>
     <use xlink:href="#m1ea5ef3a73" x="341.066587" y="276.544" style="fill: #1f77b4; stroke: #1f77b4"/>
     <use xlink:href="#m1ea5ef3a73" x="357.078548" y="276.544" style="fill: #1f77b4; stroke: #1f77b4"/>
     <use xlink:href="#m1ea5ef3a73" x="373.090509" y="276.544" style="fill: #1f77b4; stroke: #1f77b4"/>
     <use xlink:href="#m1ea5ef3a73" x="389.102469" y="276.544" style="fill: #1f77b4; stroke: #1f77b4"/>
     <use xlink:href="#m1ea5ef3a73" x="405.11443" y="276.544" style="fill: #1f77b4; stroke: #1f77b4"/>
     <use xlink:href="#m1ea5ef3a73" x="421.126391" y="276.544" style="fill: #1f77b4; stroke: #1f77b4"/>
     <use xlink:href="#m1ea5ef3a73" x="437.138352" y="250.630667" style="fill: #1f77b4; stroke: #1f77b4"/>
    </g>
   </g>
   <g id="patch_13">
    <path d="M 44.845313 307.64 
L 44.845313 245.448 
" style="fill: none; stroke: #000000; stroke-width: 0.8; stroke-linejoin: miter; stroke-linecap: square"/>
   </g>
   <g id="patch_14">
    <path d="M 453.150312 307.64 
L 453.150312 245.448 
" style="fill: none; stroke: #000000; stroke-width: 0.8; stroke-linejoin: miter; stroke-linecap: square"/>
   </g>
   <g id="patch_15">
    <path d="M 44.845313 307.64 
L 453.150312 307.64 
" style="fill: none; stroke: #000000; stroke-width: 0.8; stroke-linejoin: miter; stroke-linecap: square"/>
   </g>
   <g id="patch_16">
    <path d="M 44.845313 245.448 
L 453.150312 245.448 
" style="fill: none; stroke: #000000; stroke-width: 0.8; stroke-linejoin: miter; stroke-linecap: square"/>
   </g>
   <g id="text_34">
    <!-- Im(X(t)) -->
    <g transform="translate(225.5575 239.448) scale(0.12 -0.12)">
     <defs>
      <path id="DejaVuSans-49" d="M 628 4666 
L 1259 4666 
L 1259 0 
L 628 0 
L 628 4666 
z
" transform="scale(0.015625)"/>
      <path id="DejaVuSans-6d" d="M 3328 2828 
Q 3544 3216 3844 3400 
Q 4144 3584 4550 3584 
Q 5097 3584 5394 3201 
Q 5691 2819 5691 2113 
L 5691 0 
L 5113 0 
L 5113 2094 
Q 5113 2597 4934 2840 
Q 4756 3084 4391 3084 
Q 3944 3084 3684 2787 
Q 3425 2491 3425 1978 
L 3425 0 
L 2847 0 
L 2847 2094 
Q 2847 2600 2669 2842 
Q 2491 3084 2119 3084 
Q 1678 3084 1418 2786 
Q 1159 2488 1159 1978 
L 1159 0 
L 581 0 
L 581 3500 
L 1159 3500 
L 1159 2956 
Q 1356 3278 1631 3431 
Q 1906 3584 2284 3584 
Q 2666 3584 2933 3390 
Q 3200 3197 3328 2828 
z
" transform="scale(0.015625)"/>
     </defs>
     <use xlink:href="#DejaVuSans-49"/>
     <use xlink:href="#DejaVuSans-6d" x="29.492188"/>
     <use xlink:href="#DejaVuSans-28" x="126.904297"/>
     <use xlink:href="#DejaVuSans-58" x="165.917969"/>
     <use xlink:href="#DejaVuSans-28" x="234.423828"/>
     <use xlink:href="#DejaVuSans-74" x="273.4375"/>
     <use xlink:href="#DejaVuSans-29" x="312.646484"/>
     <use xlink:href="#DejaVuSans-29" x="351.660156"/>
    </g>
   </g>
  </g>
  <g id="text_35">
   <!-- X = DFT(x) -->
   <g transform="translate(208.7 16.318125) scale(0.12 -0.12)">
    <defs>
     <path id="DejaVuSans-44" d="M 1259 4147 
L 1259 519 
L 2022 519 
Q 2988 519 3436 956 
Q 3884 1394 3884 2338 
Q 3884 3275 3436 3711 
Q 2988 4147 2022 4147 
L 1259 4147 
z
M 628 4666 
L 1925 4666 
Q 3281 4666 3915 4102 
Q 4550 3538 4550 2338 
Q 4550 1131 3912 565 
Q 3275 0 1925 0 
L 628 0 
L 628 4666 
z
" transform="scale(0.015625)"/>
     <path id="DejaVuSans-46" d="M 628 4666 
L 3309 4666 
L 3309 4134 
L 1259 4134 
L 1259 2759 
L 3109 2759 
L 3109 2228 
L 1259 2228 
L 1259 0 
L 628 0 
L 628 4666 
z
" transform="scale(0.015625)"/>
     <path id="DejaVuSans-54" d="M -19 4666 
L 3928 4666 
L 3928 4134 
L 2272 4134 
L 2272 0 
L 1638 0 
L 1638 4134 
L -19 4134 
L -19 4666 
z
" transform="scale(0.015625)"/>
    </defs>
    <use xlink:href="#DejaVuSans-58"/>
    <use xlink:href="#DejaVuSans-20" x="68.505859"/>
    <use xlink:href="#DejaVuSans-3d" x="100.292969"/>
    <use xlink:href="#DejaVuSans-20" x="184.082031"/>
    <use xlink:href="#DejaVuSans-44" x="215.869141"/>
    <use xlink:href="#DejaVuSans-46" x="292.871094"/>
    <use xlink:href="#DejaVuSans-54" x="348.640625"/>
    <use xlink:href="#DejaVuSans-28" x="409.724609"/>
    <use xlink:href="#DejaVuSans-78" x="448.738281"/>
    <use xlink:href="#DejaVuSans-29" x="507.917969"/>
   </g>
  </g>
 </g>
 <defs>
  <clipPath id="pb936979478">
   <rect x="44.845313" y="57.384" width="408.305" height="62.192"/>
  </clipPath>
  <clipPath id="p785b413182">
   <rect x="44.845313" y="151.416" width="408.305" height="62.192"/>
  </clipPath>
  <clipPath id="p5aaf53b6f0">
   <rect x="44.845313" y="245.448" width="408.305" height="62.192"/>
  </clipPath>
 </defs>
</svg>
