<?xml version="1.0" encoding="utf-8" standalone="no"?>
<!DOCTYPE svg PUBLIC "-//W3C//DTD SVG 1.1//EN"
  "http://www.w3.org/Graphics/SVG/1.1/DTD/svg11.dtd">
<!-- Created with matplotlib (https://matplotlib.org/) -->
<svg height="163.173421pt" version="1.1" viewBox="0 0 383.279474 163.173421" width="383.279474pt" xmlns="http://www.w3.org/2000/svg" xmlns:xlink="http://www.w3.org/1999/xlink">
 <defs>
  <style type="text/css">
*{stroke-linecap:butt;stroke-linejoin:round;}
  </style>
 </defs>
 <g id="figure_1">
  <g id="patch_1">
   <path d="M 0 163.173421 
L 383.279474 163.173421 
L 383.279474 0 
L 0 0 
z
" style="fill:#ffffff;"/>
  </g>
  <g id="axes_1">
   <g id="patch_2">
    <path clip-path="url(#p37d26df469)" d="M 49.671316 60.720888 
Q 49.671316 54.189288 49.671316 47.657688 
L 43.171316 47.657688 
Q 46.921316 44.658318 50.671316 41.658947 
Q 54.421316 44.658318 58.171316 47.657688 
L 51.671316 47.657688 
Q 51.671316 54.189288 51.671316 60.720888 
L 49.671316 60.720888 
z
"/>
   </g>
   <g id="patch_3">
    <path clip-path="url(#p37d26df469)" d="M 51.671316 47.658059 
Q 51.671316 54.189659 51.671316 60.721259 
L 58.171316 60.721259 
Q 54.421316 63.72063 50.671316 66.72 
Q 46.921316 63.72063 43.171316 60.721259 
L 49.671316 60.721259 
Q 49.671316 54.189659 49.671316 47.658059 
L 51.671316 47.658059 
z
"/>
   </g>
   <g id="patch_4">
    <path clip-path="url(#p37d26df469)" d="M 49.671316 92.047204 
Q 49.671316 85.515604 49.671316 78.984004 
L 43.171316 78.984004 
Q 46.921316 75.984633 50.671316 72.985263 
Q 54.421316 75.984633 58.171316 78.984004 
L 51.671316 78.984004 
Q 51.671316 85.515604 51.671316 92.047204 
L 49.671316 92.047204 
z
"/>
   </g>
   <g id="patch_5">
    <path clip-path="url(#p37d26df469)" d="M 51.671316 78.984375 
Q 51.671316 85.515975 51.671316 92.047575 
L 58.171316 92.047575 
Q 54.421316 95.046945 50.671316 98.046316 
Q 46.921316 95.046945 43.171316 92.047575 
L 49.671316 92.047575 
Q 49.671316 85.515975 49.671316 78.984375 
L 51.671316 78.984375 
z
"/>
   </g>
   <g id="patch_6">
    <path clip-path="url(#p37d26df469)" d="M 87.489006 60.606397 
Q 84.98947 54.571986 82.489935 48.537574 
L 76.484718 51.025016 
Q 78.801457 46.818897 81.118196 42.612777 
Q 85.730554 43.948771 90.342911 45.284765 
L 84.337694 47.772207 
Q 86.83723 53.806619 89.336765 59.84103 
L 87.489006 60.606397 
z
"/>
   </g>
   <g id="patch_7">
    <path clip-path="url(#p37d26df469)" d="M 84.337836 47.77255 
Q 86.837372 53.806962 89.336907 59.841373 
L 95.342124 57.353931 
Q 93.025385 61.560051 90.708646 65.76617 
Q 86.096288 64.430176 81.483931 63.094183 
L 87.489148 60.60674 
Q 84.989613 54.572329 82.490077 48.537917 
L 84.337836 47.77255 
z
"/>
   </g>
   <g id="patch_8">
    <path clip-path="url(#p37d26df469)" d="M 85.913421 97.092486 
C 87.18513 97.092486 88.404923 95.872692 89.304157 93.70175 
C 90.203391 91.530808 90.708646 88.585965 90.708646 85.515789 
C 90.708646 82.445614 90.203391 79.500771 89.304157 77.329829 
C 88.404923 75.158886 87.18513 73.939093 85.913421 73.939093 
C 84.641713 73.939093 83.421919 75.158886 82.522685 77.329829 
C 81.623451 79.500771 81.118196 82.445614 81.118196 85.515789 
C 81.118196 88.585965 81.623451 91.530808 82.522685 93.70175 
C 83.421919 95.872692 84.641713 97.092486 85.913421 97.092486 
z
" style="fill:none;stroke:#000000;stroke-linejoin:miter;stroke-width:2;"/>
   </g>
   <g id="patch_9">
    <path clip-path="url(#p37d26df469)" d="M 125.066827 59.514988 
Q 120.448288 54.896449 115.82975 50.277911 
L 111.233556 54.874105 
Q 111.764331 50.101579 112.295106 45.329054 
Q 117.067632 44.798278 121.840157 44.267503 
L 117.243963 48.863697 
Q 121.862502 53.482236 126.481041 58.100774 
L 125.066827 59.514988 
z
"/>
   </g>
   <g id="patch_10">
    <path clip-path="url(#p37d26df469)" d="M 117.244226 48.863959 
Q 121.862764 53.482498 126.481303 58.101037 
L 131.077497 53.504843 
Q 130.546722 58.277368 130.015946 63.049894 
Q 125.243421 63.580669 120.470895 64.111444 
L 125.067089 59.51525 
Q 120.448551 54.896712 115.830012 50.278173 
L 117.244226 48.863959 
z
"/>
   </g>
   <g id="patch_11">
    <path clip-path="url(#p37d26df469)" d="M 121.155526 94.37621 
C 123.505337 94.37621 125.759222 93.44262 127.420789 91.781053 
C 129.082357 90.119485 130.015946 87.8656 130.015946 85.515789 
C 130.015946 83.165979 129.082357 80.912094 127.420789 79.250526 
C 125.759222 77.588959 123.505337 76.655369 121.155526 76.655369 
C 118.805715 76.655369 116.55183 77.588959 114.890263 79.250526 
C 113.228696 80.912094 112.295106 83.165979 112.295106 85.515789 
C 112.295106 87.8656 113.228696 90.119485 114.890263 91.781053 
C 116.55183 93.44262 118.805715 94.37621 121.155526 94.37621 
z
" style="fill:none;stroke:#000000;stroke-linejoin:miter;stroke-width:2;"/>
   </g>
   <g id="patch_12">
    <path clip-path="url(#p37d26df469)" d="M 162.049188 57.612817 
Q 156.014777 55.113282 149.980365 52.613747 
L 147.492923 58.618964 
Q 146.156929 54.006606 144.820935 49.394249 
Q 149.027055 47.07751 153.233174 44.760771 
L 150.745732 50.765988 
Q 156.780144 53.265523 162.814555 55.765058 
L 162.049188 57.612817 
z
"/>
   </g>
   <g id="patch_13">
    <path clip-path="url(#p37d26df469)" d="M 150.746075 50.76613 
Q 156.780486 53.265665 162.814898 55.7652 
L 165.30234 49.759983 
Q 166.638334 54.372341 167.974328 58.984699 
Q 163.768209 61.301437 159.562089 63.618176 
L 162.049531 57.612959 
Q 156.01512 55.113424 149.980708 52.613889 
L 150.746075 50.76613 
z
"/>
   </g>
   <g id="patch_14">
    <path clip-path="url(#p37d26df469)" d="M 156.397632 90.311014 
C 159.467807 90.311014 162.41265 89.805759 164.583592 88.906525 
C 166.754535 88.007292 167.974328 86.787498 167.974328 85.515789 
C 167.974328 84.244081 166.754535 83.024287 164.583592 82.125053 
C 162.41265 81.22582 159.467807 80.720565 156.397632 80.720565 
C 153.327456 80.720565 150.382613 81.22582 148.211671 82.125053 
C 146.040729 83.024287 144.820935 84.244081 144.820935 85.515789 
C 144.820935 86.787498 146.040729 88.007292 148.211671 88.906525 
C 150.382613 89.805759 153.327456 90.311014 156.397632 90.311014 
z
" style="fill:none;stroke:#000000;stroke-linejoin:miter;stroke-width:2;"/>
   </g>
   <g id="patch_15">
    <path clip-path="url(#p37d26df469)" d="M 198.171151 55.189474 
Q 191.639551 55.189474 185.107951 55.189474 
L 185.107951 61.689474 
Q 182.108581 57.939474 179.109211 54.189474 
Q 182.108581 50.439474 185.107951 46.689474 
L 185.107951 53.189474 
Q 191.639551 53.189474 198.171151 53.189474 
L 198.171151 55.189474 
z
"/>
   </g>
   <g id="patch_16">
    <path clip-path="url(#p37d26df469)" d="M 185.108322 53.189474 
Q 191.639922 53.189474 198.171523 53.189474 
L 198.171523 46.689474 
Q 201.170893 50.439474 204.170263 54.189474 
Q 201.170893 57.939474 198.171523 61.689474 
L 198.171523 55.189474 
Q 191.639922 55.189474 185.108322 55.189474 
L 185.108322 53.189474 
z
"/>
   </g>
   <g id="patch_17">
    <path clip-path="url(#p37d26df469)" d="M 198.171151 86.515789 
Q 191.639551 86.515789 185.107951 86.515789 
L 185.107951 93.015789 
Q 182.108581 89.265789 179.109211 85.515789 
Q 182.108581 81.765789 185.107951 78.015789 
L 185.107951 84.515789 
Q 191.639551 84.515789 198.171151 84.515789 
L 198.171151 86.515789 
z
"/>
   </g>
   <g id="patch_18">
    <path clip-path="url(#p37d26df469)" d="M 185.108322 84.515789 
Q 191.639922 84.515789 198.171523 84.515789 
L 198.171523 78.015789 
Q 201.170893 81.765789 204.170263 85.515789 
Q 201.170893 89.265789 198.171523 93.015789 
L 198.171523 86.515789 
Q 191.639922 86.515789 185.108322 86.515789 
L 185.108322 84.515789 
z
"/>
   </g>
   <g id="patch_19">
    <path clip-path="url(#p37d26df469)" d="M 233.298766 52.613889 
Q 227.264354 55.113424 221.229942 57.612959 
L 223.717385 63.618176 
Q 219.511265 61.301437 215.305145 58.984699 
Q 216.641139 54.372341 217.977133 49.759983 
L 220.464576 55.7652 
Q 226.498987 53.265665 232.533399 50.76613 
L 233.298766 52.613889 
z
"/>
   </g>
   <g id="patch_20">
    <path clip-path="url(#p37d26df469)" d="M 220.464919 55.765058 
Q 226.49933 53.265523 232.533742 50.765988 
L 230.046299 44.760771 
Q 234.252419 47.07751 238.458539 49.394249 
Q 237.122545 54.006606 235.786551 58.618964 
L 233.299109 52.613747 
Q 227.264697 55.113282 221.230285 57.612817 
L 220.464919 55.765058 
z
"/>
   </g>
   <g id="patch_21">
    <path clip-path="url(#p37d26df469)" d="M 226.881842 90.311014 
C 229.952018 90.311014 232.896861 89.805759 235.067803 88.906525 
C 237.238745 88.007292 238.458539 86.787498 238.458539 85.515789 
C 238.458539 84.244081 237.238745 83.024287 235.067803 82.125053 
C 232.896861 81.22582 229.952018 80.720565 226.881842 80.720565 
C 223.811666 80.720565 220.866823 81.22582 218.695881 82.125053 
C 216.524939 83.024287 215.305145 84.244081 215.305145 85.515789 
C 215.305145 86.787498 216.524939 88.007292 218.695881 88.906525 
C 220.866823 89.805759 223.811666 90.311014 226.881842 90.311014 
z
" style="fill:none;stroke:#000000;stroke-linejoin:miter;stroke-width:2;"/>
   </g>
   <g id="patch_22">
    <path clip-path="url(#p37d26df469)" d="M 267.449462 50.278173 
Q 262.830923 54.896712 258.212384 59.51525 
L 262.808578 64.111444 
Q 258.036053 63.580669 253.263527 63.049894 
Q 252.732752 58.277368 252.201977 53.504843 
L 256.798171 58.101037 
Q 261.416709 53.482498 266.035248 48.863959 
L 267.449462 50.278173 
z
"/>
   </g>
   <g id="patch_23">
    <path clip-path="url(#p37d26df469)" d="M 256.798433 58.100774 
Q 261.416972 53.482236 266.035511 48.863697 
L 261.439316 44.267503 
Q 266.211842 44.798278 270.984367 45.329054 
Q 271.515143 50.101579 272.045918 54.874105 
L 267.449724 50.277911 
Q 262.831185 54.896449 258.212647 59.514988 
L 256.798433 58.100774 
z
"/>
   </g>
   <g id="patch_24">
    <path clip-path="url(#p37d26df469)" d="M 262.123947 94.37621 
C 264.473758 94.37621 266.727643 93.44262 268.389211 91.781053 
C 270.050778 90.119485 270.984367 87.8656 270.984367 85.515789 
C 270.984367 83.165979 270.050778 80.912094 268.389211 79.250526 
C 266.727643 77.588959 264.473758 76.655369 262.123947 76.655369 
C 259.774136 76.655369 257.520251 77.588959 255.858684 79.250526 
C 254.197117 80.912094 253.263527 83.165979 253.263527 85.515789 
C 253.263527 87.8656 254.197117 90.119485 255.858684 91.781053 
C 257.520251 93.44262 259.774136 94.37621 262.123947 94.37621 
z
" style="fill:none;stroke:#000000;stroke-linejoin:miter;stroke-width:2;"/>
   </g>
   <g id="patch_25">
    <path clip-path="url(#p37d26df469)" d="M 300.789396 48.537917 
Q 298.289861 54.572329 295.790326 60.60674 
L 301.795543 63.094183 
Q 297.183185 64.430176 292.570828 65.76617 
Q 290.254089 61.560051 287.93735 57.353931 
L 293.942567 59.841373 
Q 296.442102 53.806962 298.941637 47.77255 
L 300.789396 48.537917 
z
"/>
   </g>
   <g id="patch_26">
    <path clip-path="url(#p37d26df469)" d="M 293.942709 59.84103 
Q 296.442244 53.806619 298.941779 47.772207 
L 292.936562 45.284765 
Q 297.54892 43.948771 302.161277 42.612777 
Q 304.478016 46.818897 306.794755 51.025016 
L 300.789538 48.537574 
Q 298.290003 54.571986 295.790468 60.606397 
L 293.942709 59.84103 
z
"/>
   </g>
   <g id="patch_27">
    <path clip-path="url(#p37d26df469)" d="M 297.366053 97.092486 
C 298.637761 97.092486 299.857555 95.872692 300.756789 93.70175 
C 301.656022 91.530808 302.161277 88.585965 302.161277 85.515789 
C 302.161277 82.445614 301.656022 79.500771 300.756789 77.329829 
C 299.857555 75.158886 298.637761 73.939093 297.366053 73.939093 
C 296.094344 73.939093 294.87455 75.158886 293.975317 77.329829 
C 293.076083 79.500771 292.570828 82.445614 292.570828 85.515789 
C 292.570828 88.585965 293.076083 91.530808 293.975317 93.70175 
C 294.87455 95.872692 296.094344 97.092486 297.366053 97.092486 
z
" style="fill:none;stroke:#000000;stroke-linejoin:miter;stroke-width:2;"/>
   </g>
   <g id="patch_28">
    <path clip-path="url(#p37d26df469)" d="M 333.608158 47.658059 
Q 333.608158 54.189659 333.608158 60.721259 
L 340.108158 60.721259 
Q 336.358158 63.72063 332.608158 66.72 
Q 328.858158 63.72063 325.108158 60.721259 
L 331.608158 60.721259 
Q 331.608158 54.189659 331.608158 47.658059 
L 333.608158 47.658059 
z
"/>
   </g>
   <g id="patch_29">
    <path clip-path="url(#p37d26df469)" d="M 331.608158 60.720888 
Q 331.608158 54.189288 331.608158 47.657688 
L 325.108158 47.657688 
Q 328.858158 44.658318 332.608158 41.658947 
Q 336.358158 44.658318 340.108158 47.657688 
L 333.608158 47.657688 
Q 333.608158 54.189288 333.608158 60.720888 
L 331.608158 60.720888 
z
"/>
   </g>
   <g id="patch_30">
    <path clip-path="url(#p37d26df469)" d="M 333.608158 78.984375 
Q 333.608158 85.515975 333.608158 92.047575 
L 340.108158 92.047575 
Q 336.358158 95.046945 332.608158 98.046316 
Q 328.858158 95.046945 325.108158 92.047575 
L 331.608158 92.047575 
Q 331.608158 85.515975 331.608158 78.984375 
L 333.608158 78.984375 
z
"/>
   </g>
   <g id="patch_31">
    <path clip-path="url(#p37d26df469)" d="M 331.608158 92.047204 
Q 331.608158 85.515604 331.608158 78.984004 
L 325.108158 78.984004 
Q 328.858158 75.984633 332.608158 72.985263 
Q 336.358158 75.984633 340.108158 78.984004 
L 333.608158 78.984004 
Q 333.608158 85.515604 333.608158 92.047204 
L 331.608158 92.047204 
z
"/>
   </g>
   <g id="patch_32">
    <path clip-path="url(#p37d26df469)" d="M 52.671753 134.637895 
Q 184.13822 134.637895 315.604687 134.637895 
L 315.604687 128.137895 
Q 323.104758 131.887895 330.604829 135.637895 
Q 323.104758 139.387895 315.604687 143.137895 
L 315.604687 136.637895 
Q 184.13822 136.637895 52.671753 136.637895 
L 52.671753 134.637895 
z
"/>
   </g>
   <g id="line2d_1">
    <defs>
     <path d="M 4 0 
L -4 -4 
L -4 4 
z
" id="m63736852c2" style="stroke:#000000;stroke-linejoin:miter;"/>
    </defs>
    <g>
     <use style="stroke:#000000;stroke-linejoin:miter;" x="85.913421" xlink:href="#m63736852c2" y="73.939093"/>
    </g>
   </g>
   <g id="line2d_2">
    <g>
     <use style="stroke:#000000;stroke-linejoin:miter;" x="121.155526" xlink:href="#m63736852c2" y="76.655369"/>
    </g>
   </g>
   <g id="line2d_3">
    <g>
     <use style="stroke:#000000;stroke-linejoin:miter;" x="156.397632" xlink:href="#m63736852c2" y="80.720565"/>
    </g>
   </g>
   <g id="line2d_4">
    <defs>
     <path d="M -4 -0 
L 4 4 
L 4 -4 
z
" id="ma1c26d85d0" style="stroke:#000000;stroke-linejoin:miter;"/>
    </defs>
    <g>
     <use style="stroke:#000000;stroke-linejoin:miter;" x="226.881842" xlink:href="#ma1c26d85d0" y="80.720565"/>
    </g>
   </g>
   <g id="line2d_5">
    <g>
     <use style="stroke:#000000;stroke-linejoin:miter;" x="262.123947" xlink:href="#ma1c26d85d0" y="76.655369"/>
    </g>
   </g>
   <g id="line2d_6">
    <g>
     <use style="stroke:#000000;stroke-linejoin:miter;" x="297.366053" xlink:href="#ma1c26d85d0" y="73.939093"/>
    </g>
   </g>
   <g id="text_1">
    <!-- |+⟩ -->
    <defs>
     <path d="M 23.78125 76.421875 
L 23.78125 -23.578125 
L 12.703125 -23.578125 
L 12.703125 76.421875 
z
" id="DejaVuSans-Bold-124"/>
     <path d="M 47.703125 62.703125 
L 47.703125 37.109375 
L 73.1875 37.109375 
L 73.1875 25.59375 
L 47.703125 25.59375 
L 47.703125 0 
L 36.078125 0 
L 36.078125 25.59375 
L 10.59375 25.59375 
L 10.59375 37.109375 
L 36.078125 37.109375 
L 36.078125 62.703125 
z
" id="DejaVuSans-Bold-43"/>
     <path d="M 35.203125 31.34375 
L 21.296875 -13.1875 
L 8.015625 -13.1875 
L 21.96875 31.34375 
L 8.015625 75.875 
L 21.296875 75.875 
z
" id="DejaVuSans-Bold-10217"/>
    </defs>
    <g transform="translate(107.873026 27.090658)scale(0.16 -0.16)">
     <use xlink:href="#DejaVuSans-Bold-124"/>
     <use x="36.523438" xlink:href="#DejaVuSans-Bold-43"/>
     <use x="120.3125" xlink:href="#DejaVuSans-Bold-10217"/>
    </g>
   </g>
   <g id="text_2">
    <!-- |i⟩ -->
    <defs>
     <path d="M 8.40625 54.6875 
L 25.875 54.6875 
L 25.875 0 
L 8.40625 0 
z
M 8.40625 75.984375 
L 25.875 75.984375 
L 25.875 61.71875 
L 8.40625 61.71875 
z
" id="DejaVuSans-Bold-105"/>
    </defs>
    <g transform="translate(111.834276 121.069605)scale(0.16 -0.16)">
     <use xlink:href="#DejaVuSans-Bold-124"/>
     <use x="36.523438" xlink:href="#DejaVuSans-Bold-105"/>
     <use x="70.800781" xlink:href="#DejaVuSans-Bold-10217"/>
    </g>
   </g>
   <g id="text_3">
    <!-- |1⟩ -->
    <defs>
     <path d="M 11.71875 12.984375 
L 28.328125 12.984375 
L 28.328125 60.109375 
L 11.28125 56.59375 
L 11.28125 69.390625 
L 28.21875 72.90625 
L 46.09375 72.90625 
L 46.09375 12.984375 
L 62.703125 12.984375 
L 62.703125 0 
L 11.71875 0 
z
" id="DejaVuSans-Bold-49"/>
    </defs>
    <g transform="translate(179.494737 27.090658)scale(0.16 -0.16)">
     <use xlink:href="#DejaVuSans-Bold-124"/>
     <use x="36.523438" xlink:href="#DejaVuSans-Bold-49"/>
     <use x="106.103516" xlink:href="#DejaVuSans-Bold-10217"/>
    </g>
   </g>
   <g id="text_4">
    <!-- |1⟩ -->
    <g transform="translate(179.494737 121.069605)scale(0.16 -0.16)">
     <use xlink:href="#DejaVuSans-Bold-124"/>
     <use x="36.523438" xlink:href="#DejaVuSans-Bold-49"/>
     <use x="106.103516" xlink:href="#DejaVuSans-Bold-10217"/>
    </g>
   </g>
   <g id="text_5">
    <!-- |-⟩ -->
    <defs>
     <path d="M 5.421875 35.890625 
L 36.078125 35.890625 
L 36.078125 21.6875 
L 5.421875 21.6875 
z
" id="DejaVuSans-Bold-45"/>
    </defs>
    <g transform="translate(252.225197 27.090658)scale(0.16 -0.16)">
     <use xlink:href="#DejaVuSans-Bold-124"/>
     <use x="36.523438" xlink:href="#DejaVuSans-Bold-45"/>
     <use x="78.027344" xlink:href="#DejaVuSans-Bold-10217"/>
    </g>
   </g>
   <g id="text_6">
    <!-- |-i⟩ -->
    <g transform="translate(249.482697 121.069605)scale(0.16 -0.16)">
     <use xlink:href="#DejaVuSans-Bold-124"/>
     <use x="36.523438" xlink:href="#DejaVuSans-Bold-45"/>
     <use x="78.027344" xlink:href="#DejaVuSans-Bold-105"/>
     <use x="112.304688" xlink:href="#DejaVuSans-Bold-10217"/>
    </g>
   </g>
   <g id="text_7">
    <!-- |0⟩ -->
    <defs>
     <path d="M 46 36.53125 
Q 46 50.203125 43.4375 55.78125 
Q 40.875 61.375 34.8125 61.375 
Q 28.765625 61.375 26.171875 55.78125 
Q 23.578125 50.203125 23.578125 36.53125 
Q 23.578125 22.703125 26.171875 17.03125 
Q 28.765625 11.375 34.8125 11.375 
Q 40.828125 11.375 43.40625 17.03125 
Q 46 22.703125 46 36.53125 
z
M 64.796875 36.375 
Q 64.796875 18.265625 56.984375 8.421875 
Q 49.171875 -1.421875 34.8125 -1.421875 
Q 20.40625 -1.421875 12.59375 8.421875 
Q 4.78125 18.265625 4.78125 36.375 
Q 4.78125 54.546875 12.59375 64.375 
Q 20.40625 74.21875 34.8125 74.21875 
Q 49.171875 74.21875 56.984375 64.375 
Q 64.796875 54.546875 64.796875 36.375 
z
" id="DejaVuSans-Bold-48"/>
    </defs>
    <g transform="translate(7.2 74.080132)scale(0.16 -0.16)">
     <use xlink:href="#DejaVuSans-Bold-124"/>
     <use x="36.523438" xlink:href="#DejaVuSans-Bold-48"/>
     <use x="106.103516" xlink:href="#DejaVuSans-Bold-10217"/>
    </g>
   </g>
   <g id="text_8">
    <!-- |0⟩ -->
    <g transform="translate(351.789474 74.080132)scale(0.16 -0.16)">
     <use xlink:href="#DejaVuSans-Bold-124"/>
     <use x="36.523438" xlink:href="#DejaVuSans-Bold-48"/>
     <use x="106.103516" xlink:href="#DejaVuSans-Bold-10217"/>
    </g>
   </g>
   <g id="text_9">
    <!-- Increasing θ -->
    <defs>
     <path d="M 9.8125 72.90625 
L 19.671875 72.90625 
L 19.671875 0 
L 9.8125 0 
z
" id="DejaVuSans-73"/>
     <path d="M 54.890625 33.015625 
L 54.890625 0 
L 45.90625 0 
L 45.90625 32.71875 
Q 45.90625 40.484375 42.875 44.328125 
Q 39.84375 48.1875 33.796875 48.1875 
Q 26.515625 48.1875 22.3125 43.546875 
Q 18.109375 38.921875 18.109375 30.90625 
L 18.109375 0 
L 9.078125 0 
L 9.078125 54.6875 
L 18.109375 54.6875 
L 18.109375 46.1875 
Q 21.34375 51.125 25.703125 53.5625 
Q 30.078125 56 35.796875 56 
Q 45.21875 56 50.046875 50.171875 
Q 54.890625 44.34375 54.890625 33.015625 
z
" id="DejaVuSans-110"/>
     <path d="M 48.78125 52.59375 
L 48.78125 44.1875 
Q 44.96875 46.296875 41.140625 47.34375 
Q 37.3125 48.390625 33.40625 48.390625 
Q 24.65625 48.390625 19.8125 42.84375 
Q 14.984375 37.3125 14.984375 27.296875 
Q 14.984375 17.28125 19.8125 11.734375 
Q 24.65625 6.203125 33.40625 6.203125 
Q 37.3125 6.203125 41.140625 7.25 
Q 44.96875 8.296875 48.78125 10.40625 
L 48.78125 2.09375 
Q 45.015625 0.34375 40.984375 -0.53125 
Q 36.96875 -1.421875 32.421875 -1.421875 
Q 20.0625 -1.421875 12.78125 6.34375 
Q 5.515625 14.109375 5.515625 27.296875 
Q 5.515625 40.671875 12.859375 48.328125 
Q 20.21875 56 33.015625 56 
Q 37.15625 56 41.109375 55.140625 
Q 45.0625 54.296875 48.78125 52.59375 
z
" id="DejaVuSans-99"/>
     <path d="M 41.109375 46.296875 
Q 39.59375 47.171875 37.8125 47.578125 
Q 36.03125 48 33.890625 48 
Q 26.265625 48 22.1875 43.046875 
Q 18.109375 38.09375 18.109375 28.8125 
L 18.109375 0 
L 9.078125 0 
L 9.078125 54.6875 
L 18.109375 54.6875 
L 18.109375 46.1875 
Q 20.953125 51.171875 25.484375 53.578125 
Q 30.03125 56 36.53125 56 
Q 37.453125 56 38.578125 55.875 
Q 39.703125 55.765625 41.0625 55.515625 
z
" id="DejaVuSans-114"/>
     <path d="M 56.203125 29.59375 
L 56.203125 25.203125 
L 14.890625 25.203125 
Q 15.484375 15.921875 20.484375 11.0625 
Q 25.484375 6.203125 34.421875 6.203125 
Q 39.59375 6.203125 44.453125 7.46875 
Q 49.3125 8.734375 54.109375 11.28125 
L 54.109375 2.78125 
Q 49.265625 0.734375 44.1875 -0.34375 
Q 39.109375 -1.421875 33.890625 -1.421875 
Q 20.796875 -1.421875 13.15625 6.1875 
Q 5.515625 13.8125 5.515625 26.8125 
Q 5.515625 40.234375 12.765625 48.109375 
Q 20.015625 56 32.328125 56 
Q 43.359375 56 49.78125 48.890625 
Q 56.203125 41.796875 56.203125 29.59375 
z
M 47.21875 32.234375 
Q 47.125 39.59375 43.09375 43.984375 
Q 39.0625 48.390625 32.421875 48.390625 
Q 24.90625 48.390625 20.390625 44.140625 
Q 15.875 39.890625 15.1875 32.171875 
z
" id="DejaVuSans-101"/>
     <path d="M 34.28125 27.484375 
Q 23.390625 27.484375 19.1875 25 
Q 14.984375 22.515625 14.984375 16.5 
Q 14.984375 11.71875 18.140625 8.90625 
Q 21.296875 6.109375 26.703125 6.109375 
Q 34.1875 6.109375 38.703125 11.40625 
Q 43.21875 16.703125 43.21875 25.484375 
L 43.21875 27.484375 
z
M 52.203125 31.203125 
L 52.203125 0 
L 43.21875 0 
L 43.21875 8.296875 
Q 40.140625 3.328125 35.546875 0.953125 
Q 30.953125 -1.421875 24.3125 -1.421875 
Q 15.921875 -1.421875 10.953125 3.296875 
Q 6 8.015625 6 15.921875 
Q 6 25.140625 12.171875 29.828125 
Q 18.359375 34.515625 30.609375 34.515625 
L 43.21875 34.515625 
L 43.21875 35.40625 
Q 43.21875 41.609375 39.140625 45 
Q 35.0625 48.390625 27.6875 48.390625 
Q 23 48.390625 18.546875 47.265625 
Q 14.109375 46.140625 10.015625 43.890625 
L 10.015625 52.203125 
Q 14.9375 54.109375 19.578125 55.046875 
Q 24.21875 56 28.609375 56 
Q 40.484375 56 46.34375 49.84375 
Q 52.203125 43.703125 52.203125 31.203125 
z
" id="DejaVuSans-97"/>
     <path d="M 44.28125 53.078125 
L 44.28125 44.578125 
Q 40.484375 46.53125 36.375 47.5 
Q 32.28125 48.484375 27.875 48.484375 
Q 21.1875 48.484375 17.84375 46.4375 
Q 14.5 44.390625 14.5 40.28125 
Q 14.5 37.15625 16.890625 35.375 
Q 19.28125 33.59375 26.515625 31.984375 
L 29.59375 31.296875 
Q 39.15625 29.25 43.1875 25.515625 
Q 47.21875 21.78125 47.21875 15.09375 
Q 47.21875 7.46875 41.1875 3.015625 
Q 35.15625 -1.421875 24.609375 -1.421875 
Q 20.21875 -1.421875 15.453125 -0.5625 
Q 10.6875 0.296875 5.421875 2 
L 5.421875 11.28125 
Q 10.40625 8.6875 15.234375 7.390625 
Q 20.0625 6.109375 24.8125 6.109375 
Q 31.15625 6.109375 34.5625 8.28125 
Q 37.984375 10.453125 37.984375 14.40625 
Q 37.984375 18.0625 35.515625 20.015625 
Q 33.0625 21.96875 24.703125 23.78125 
L 21.578125 24.515625 
Q 13.234375 26.265625 9.515625 29.90625 
Q 5.8125 33.546875 5.8125 39.890625 
Q 5.8125 47.609375 11.28125 51.796875 
Q 16.75 56 26.8125 56 
Q 31.78125 56 36.171875 55.265625 
Q 40.578125 54.546875 44.28125 53.078125 
z
" id="DejaVuSans-115"/>
     <path d="M 9.421875 54.6875 
L 18.40625 54.6875 
L 18.40625 0 
L 9.421875 0 
z
M 9.421875 75.984375 
L 18.40625 75.984375 
L 18.40625 64.59375 
L 9.421875 64.59375 
z
" id="DejaVuSans-105"/>
     <path d="M 45.40625 27.984375 
Q 45.40625 37.75 41.375 43.109375 
Q 37.359375 48.484375 30.078125 48.484375 
Q 22.859375 48.484375 18.828125 43.109375 
Q 14.796875 37.75 14.796875 27.984375 
Q 14.796875 18.265625 18.828125 12.890625 
Q 22.859375 7.515625 30.078125 7.515625 
Q 37.359375 7.515625 41.375 12.890625 
Q 45.40625 18.265625 45.40625 27.984375 
z
M 54.390625 6.78125 
Q 54.390625 -7.171875 48.1875 -13.984375 
Q 42 -20.796875 29.203125 -20.796875 
Q 24.46875 -20.796875 20.265625 -20.09375 
Q 16.0625 -19.390625 12.109375 -17.921875 
L 12.109375 -9.1875 
Q 16.0625 -11.328125 19.921875 -12.34375 
Q 23.78125 -13.375 27.78125 -13.375 
Q 36.625 -13.375 41.015625 -8.765625 
Q 45.40625 -4.15625 45.40625 5.171875 
L 45.40625 9.625 
Q 42.625 4.78125 38.28125 2.390625 
Q 33.9375 0 27.875 0 
Q 17.828125 0 11.671875 7.65625 
Q 5.515625 15.328125 5.515625 27.984375 
Q 5.515625 40.671875 11.671875 48.328125 
Q 17.828125 56 27.875 56 
Q 33.9375 56 38.28125 53.609375 
Q 42.625 51.21875 45.40625 46.390625 
L 45.40625 54.6875 
L 54.390625 54.6875 
z
" id="DejaVuSans-103"/>
     <path id="DejaVuSans-32"/>
     <path d="M 46.140625 34.671875 
L 15.046875 34.671875 
Q 15.765625 20.0625 19.140625 13.875 
Q 23.34375 6.25 30.609375 6.25 
Q 37.9375 6.25 42 13.921875 
Q 45.5625 20.65625 46.140625 34.671875 
z
M 46 42.96875 
Q 44.625 56.84375 42 61.71875 
Q 37.796875 69.4375 30.609375 69.4375 
Q 23.140625 69.4375 19.1875 61.8125 
Q 16.0625 55.671875 15.140625 42.96875 
z
M 30.609375 76.765625 
Q 42.328125 76.765625 49.03125 66.40625 
Q 55.71875 56.109375 55.71875 37.84375 
Q 55.71875 19.625 49.03125 9.28125 
Q 42.328125 -1.125 30.609375 -1.125 
Q 18.84375 -1.125 12.203125 9.28125 
Q 5.515625 19.625 5.515625 37.84375 
Q 5.515625 56.109375 12.203125 66.40625 
Q 18.84375 76.765625 30.609375 76.765625 
z
" id="DejaVuSans-952"/>
    </defs>
    <g transform="translate(142.900987 152.645921)scale(0.16 -0.16)">
     <use xlink:href="#DejaVuSans-73"/>
     <use x="29.492188" xlink:href="#DejaVuSans-110"/>
     <use x="92.871094" xlink:href="#DejaVuSans-99"/>
     <use x="147.851562" xlink:href="#DejaVuSans-114"/>
     <use x="186.714844" xlink:href="#DejaVuSans-101"/>
     <use x="248.238281" xlink:href="#DejaVuSans-97"/>
     <use x="309.517578" xlink:href="#DejaVuSans-115"/>
     <use x="361.617188" xlink:href="#DejaVuSans-105"/>
     <use x="389.400391" xlink:href="#DejaVuSans-110"/>
     <use x="452.779297" xlink:href="#DejaVuSans-103"/>
     <use x="516.255859" xlink:href="#DejaVuSans-32"/>
     <use x="548.042969" xlink:href="#DejaVuSans-952"/>
    </g>
   </g>
  </g>
 </g>
 <defs>
  <clipPath id="p37d26df469">
   <rect height="140.968421" width="357.12" x="13.079737" y="7.2"/>
  </clipPath>
 </defs>
</svg>
